<?xml version="1.0" encoding="utf-8"?>
<!-- Generator: Adobe Illustrator 15.0.0, SVG Export Plug-In . SVG Version: 6.00 Build 0)  -->
<!DOCTYPE svg PUBLIC "-//W3C//DTD SVG 1.1//EN" "http://www.w3.org/Graphics/SVG/1.1/DTD/svg11.dtd">
<svg version="1.1" id="Layer_1" xmlns="http://www.w3.org/2000/svg" xmlns:xlink="http://www.w3.org/1999/xlink" x="0px" y="0px"
	 width="400px" height="150px" viewBox="0 0 400 150" enable-background="new 0 0 400 150" xml:space="preserve">
<g id="background">
	<g>
		<rect fill="#58BE89" width="400" height="150"/>
	</g>
</g>
<g>
	<defs>
		<rect id="SVGID_1_" x="-99.487" y="-295.606" width="1037.821" height="1037.819"/>
	</defs>
	<clipPath id="SVGID_2_">
		<use xlink:href="#SVGID_1_"  display="none" overflow="visible"/>
	</clipPath>
	<path clip-path="url(#SVGID_2_)" fill="#FFFFFF" d="M98.564,71.61h-3.755c0,0-6.996-9.328-14.511,0
		c-7.511,9.33-8.417,40.283,4.794,40.283v14.379c0,0-22.797-4.188-22.797-31.736c0-27.542,13.473-41.449,36.269-41.449V71.61z"/>
	<rect x="85.005" y="108.783" clip-path="url(#SVGID_2_)" fill="#658588" width="11.098" height="25"/>
	<rect x="98.564" y="37.287" clip-path="url(#SVGID_2_)" fill="#E8E8E8" width="18.911" height="37.307"/>
	<rect x="101.803" y="24.726" clip-path="url(#SVGID_2_)" fill="#E8E8E8" width="12.437" height="12.561"/>
	<rect x="99.988" y="20.06" clip-path="url(#SVGID_2_)" fill="#658588" width="16.062" height="4.666"/>
	<path clip-path="url(#SVGID_2_)" fill="#658588" d="M88.98,53.086c0-5.292,4.291-9.58,9.584-9.58c5.292,0,9.583,4.289,9.583,9.58
		c0,5.298-4.291,9.584-9.583,9.584C93.271,62.67,88.98,58.384,88.98,53.086"/>
	<path clip-path="url(#SVGID_2_)" fill="#FFFFFF" d="M93.514,53.086c0-2.787,2.261-5.05,5.051-5.05c2.789,0,5.051,2.263,5.051,5.05
		c0,2.792-2.263,5.052-5.051,5.052C95.774,58.138,93.514,55.877,93.514,53.086"/>
	<rect x="101.803" y="74.593" clip-path="url(#SVGID_2_)" fill="#FFFFFF" width="12.437" height="8.803"/>
	<rect x="105.428" y="88.322" clip-path="url(#SVGID_2_)" fill="#FFFFFF" width="5.184" height="8.803"/>
	
		<rect x="120.803" y="82.32" transform="matrix(0.707 -0.7072 0.7072 0.707 -25.1784 112.6726)" clip-path="url(#SVGID_2_)" fill="#FFFFFF" width="5.181" height="8.808"/>
	<polygon clip-path="url(#SVGID_2_)" fill="#658588" points="122.009,75.234 114.235,83.396 99.988,83.396 99.988,88.322 
		116.05,88.322 125.385,78.492 	"/>
	<path clip-path="url(#SVGID_2_)" fill="#FFFFFF" d="M65.536,133.783l15.802-14.637c0,0,5.31-5.049,8.418-0.646
		c3.11,4.404,4.403,15.283,4.403,15.283H65.536z"/>
	<path clip-path="url(#SVGID_2_)" fill="#658588" d="M87.599,124.158c0-1.432-1.162-2.592-2.593-2.592
		c-1.429,0-2.589,1.16-2.589,2.592s1.16,2.592,2.589,2.592C86.437,126.75,87.599,125.59,87.599,124.158"/>
	<rect x="85.005" y="101.014" clip-path="url(#SVGID_2_)" fill="#658588" width="42.66" height="3.369"/>
	<rect x="85.005" y="104.383" clip-path="url(#SVGID_2_)" fill="#E8E8E8" width="16.408" height="4.402"/>
	<polygon clip-path="url(#SVGID_2_)" fill="#E8E8E8" points="101.759,114.145 101.759,115.867 96.103,115.867 96.103,118.375 
		101.759,118.375 101.759,120.1 111.775,120.1 111.775,114.145 	"/>
	<polygon clip-path="url(#SVGID_2_)" fill="#E8E8E8" points="135.438,138.314 135.438,133.783 59.79,133.783 59.79,138.314 
		52.969,138.314 52.969,145.184 66.571,145.184 66.571,138.314 128.636,138.314 128.636,145.184 142.237,145.184 142.237,138.314 	
		"/>
</g>
<g>
	<path fill="#FFFFFF" d="M73.598,13.15h-0.033l-1.838,0.993l-0.277-1.09l2.31-1.236h1.22v10.573h-1.382V13.15z"/>
</g>
<g>
	<path fill="#FFFFFF" d="M128.485,116.65h-0.033l-1.838,0.992l-0.277-1.09l2.31-1.236h1.22v10.573h-1.382V116.65z"/>
	<path fill="#FFFFFF" d="M133.719,125.89v-0.878l1.123-1.09c2.7-2.57,3.936-3.937,3.936-5.531c0-1.073-0.504-2.065-2.082-2.065
		c-0.959,0-1.756,0.488-2.245,0.895l-0.456-1.008c0.716-0.603,1.773-1.074,2.977-1.074c2.277,0,3.237,1.562,3.237,3.074
		c0,1.952-1.415,3.53-3.644,5.677l-0.83,0.781v0.032h4.733v1.188H133.719z"/>
	<path fill="#FFFFFF" d="M148.128,125.613c-0.375,0.179-1.204,0.455-2.261,0.455c-2.375,0-3.92-1.61-3.92-4.018
		c0-2.424,1.659-4.196,4.229-4.196c0.846,0,1.594,0.211,1.984,0.423l-0.325,1.09c-0.342-0.179-0.878-0.374-1.659-0.374
		c-1.806,0-2.781,1.35-2.781,2.977c0,1.821,1.171,2.944,2.732,2.944c0.813,0,1.35-0.195,1.757-0.374L148.128,125.613z"/>
</g>
<g>
	<path fill="#FFFFFF" d="M42.384,83.746c0,7.646-4.667,11.749-10.359,11.749c-5.924,0-10.028-4.601-10.028-11.352
		c0-7.083,4.369-11.716,10.326-11.716C38.446,72.427,42.384,77.094,42.384,83.746z M25.042,84.077c0,4.799,2.582,9.068,7.149,9.068
		s7.149-4.203,7.149-9.268c0-4.468-2.317-9.101-7.116-9.101C27.425,74.777,25.042,79.212,25.042,84.077z"/>
</g>
<g>
	<path fill="#FFFFFF" d="M163.067,64.351h-4.381v4.079h4.901v1.225h-6.378V58.342h6.126v1.226h-4.649v3.575h4.381V64.351z"/>
	<path fill="#FFFFFF" d="M165.432,63.73c0-0.856-0.017-1.527-0.067-2.199h1.309l0.084,1.343h0.034
		c0.403-0.755,1.343-1.51,2.686-1.51c1.125,0,2.87,0.671,2.87,3.458v4.834h-1.477v-4.683c0-1.309-0.487-2.4-1.88-2.4
		c-0.957,0-1.712,0.688-1.98,1.511c-0.067,0.185-0.101,0.436-0.101,0.688v4.884h-1.477V63.73z"/>
</g>
<g>
	<defs>
		<rect id="SVGID_3_" x="-99.487" y="-295.606" width="1037.821" height="1037.819"/>
	</defs>
	<clipPath id="SVGID_4_">
		<use xlink:href="#SVGID_3_"  overflow="visible"/>
	</clipPath>
</g>
<g>
	<path fill="#FFFFFF" d="M376.009,9.802h-26.213c-1.394,0-2.523-1.13-2.523-2.524c0-1.393,1.13-2.524,2.523-2.524h26.213
		c1.394,0,2.522,1.131,2.522,2.524C378.531,8.672,377.402,9.802,376.009,9.802z"/>
	<path fill="#FFFFFF" d="M380.521,61.599c-0.431,0-0.863-0.108-1.262-0.338c-1.207-0.697-1.619-2.24-0.922-3.447l12.694-21.99
		c0.698-1.207,2.241-1.619,3.448-0.923c1.207,0.697,1.619,2.241,0.923,3.448l-12.696,21.989
		C382.24,61.146,381.392,61.599,380.521,61.599z"/>
	<path fill="#FFFFFF" d="M367.802,69.417h-26.213c-0.901,0-1.734-0.481-2.187-1.263l-17.209-29.807
		c-0.449-0.782-0.449-1.742,0-2.524l12.698-21.989c0.697-1.207,2.238-1.62,3.445-0.924c1.207,0.698,1.621,2.239,0.926,3.448
		l-11.969,20.727l15.752,27.285h24.756c1.394,0,2.523,1.131,2.523,2.523C370.325,68.287,369.195,69.417,367.802,69.417z"/>
	<path fill="#FFFFFF" d="M341.604,18.979c-5.939,0-10.77-4.832-10.77-10.77c0-5.939,4.83-10.771,10.77-10.771
		c5.938,0,10.77,4.832,10.77,10.771C352.374,14.148,347.543,18.979,341.604,18.979z M341.604,2.487
		c-3.156,0-5.723,2.567-5.723,5.723s2.566,5.723,5.723,5.723c3.155,0,5.724-2.567,5.724-5.723S344.76,2.487,341.604,2.487z"/>
</g>
<path fill="#658588" d="M375.993,16.457c-4.547,0-8.246-3.701-8.246-8.247c0-4.548,3.699-8.247,8.246-8.247
	c4.548,0,8.247,3.699,8.247,8.247C384.24,12.756,380.541,16.457,375.993,16.457z"/>
<path fill="#FFFFFF" d="M375.993,18.979c-5.937,0-10.77-4.832-10.77-10.77c0-5.939,4.833-10.771,10.77-10.771
	c5.939,0,10.771,4.832,10.771,10.771C386.764,14.148,381.933,18.979,375.993,18.979z M375.993,2.487
	c-3.156,0-5.724,2.567-5.724,5.723s2.567,5.723,5.724,5.723s5.723-2.567,5.723-5.723S379.147,2.487,375.993,2.487z"/>
<path fill="#658588" d="M391.998,45.332c-4.548,0-8.245-3.699-8.245-8.247c0-4.546,3.697-8.247,8.245-8.247
	c4.547,0,8.246,3.701,8.246,8.247C400.244,41.633,396.545,45.332,391.998,45.332z"/>
<path fill="#FFFFFF" d="M391.998,47.856c-5.938,0-10.77-4.831-10.77-10.771c0-5.938,4.832-10.769,10.77-10.769
	c5.938,0,10.77,4.831,10.77,10.769C402.768,43.025,397.937,47.856,391.998,47.856z M391.998,31.362
	c-3.156,0-5.722,2.569-5.722,5.723c0,3.156,2.565,5.723,5.722,5.723s5.722-2.567,5.722-5.723
	C397.72,33.931,395.154,31.362,391.998,31.362z"/>
<path fill="#658588" d="M324.38,45.332c-4.547,0-8.245-3.699-8.245-8.247c0-4.546,3.698-8.247,8.245-8.247
	c4.548,0,8.245,3.701,8.245,8.247C332.625,41.633,328.928,45.332,324.38,45.332z"/>
<path fill="#FFFFFF" d="M324.38,47.856c-5.938,0-10.77-4.831-10.77-10.771c0-5.938,4.831-10.769,10.77-10.769
	s10.77,4.831,10.77,10.769C335.149,43.025,330.318,47.856,324.38,47.856z M324.38,31.362c-3.154,0-5.722,2.569-5.722,5.723
	c0,3.156,2.567,5.723,5.722,5.723c3.156,0,5.723-2.567,5.723-5.723C330.103,33.931,327.536,31.362,324.38,31.362z"/>
<path fill="#658588" d="M341.604,74.208c-4.548,0-8.247-3.698-8.247-8.247c0-4.546,3.699-8.245,8.247-8.245
	c4.547,0,8.246,3.699,8.246,8.245C349.851,70.51,346.151,74.208,341.604,74.208z"/>
<g>
	<path fill="#FFFFFF" d="M341.604,76.732c-5.939,0-10.77-4.831-10.77-10.771c0-5.938,4.83-10.769,10.77-10.769
		c5.938,0,10.77,4.832,10.77,10.769C352.374,71.902,347.543,76.732,341.604,76.732z M341.604,60.239
		c-3.156,0-5.723,2.568-5.723,5.723c0,3.156,2.566,5.724,5.723,5.724c3.155,0,5.724-2.567,5.724-5.724
		C347.328,62.807,344.76,60.239,341.604,60.239z"/>
	<path fill="#FFFFFF" d="M375.993,76.732c-5.937,0-10.77-4.831-10.77-10.771c0-5.938,4.833-10.769,10.77-10.769
		c5.939,0,10.771,4.832,10.771,10.769C386.764,71.902,381.933,76.732,375.993,76.732z M375.993,60.239
		c-3.156,0-5.724,2.568-5.724,5.723c0,3.156,2.567,5.724,5.724,5.724s5.723-2.567,5.723-5.724
		C381.716,62.807,379.147,60.239,375.993,60.239z"/>
	<path fill="#FFFFFF" d="M364.396,52.646h-12.415c-1.712,0-3.308-0.92-4.165-2.403l-6.207-10.753c-0.856-1.482-0.856-3.325,0-4.808
		l6.207-10.753c0.857-1.482,2.453-2.403,4.165-2.403h12.415c1.394,0,2.524,1.13,2.524,2.522c0,1.393-1.131,2.524-2.524,2.524
		h-12.278l-6.07,10.513l6.07,10.515h12.142l6.139-10.632c0.698-1.207,2.239-1.621,3.446-0.923c1.207,0.696,1.621,2.24,0.924,3.446
		l-6.207,10.753C367.704,51.726,366.108,52.646,364.396,52.646z"/>
</g>
<g id="Layer_2">
	<g enable-background="new    ">
		<path fill="#FFFFFF" d="M223.13,104.967c0,2.273-1.095,4.462-3.831,5.683c3.452,1.053,4.715,4.716,4.715,6.567
			c0,6.568-4.926,8.673-11.03,8.673c-4.673,0-9.304,0-13.977,0V96.42c4.631,0,9.304,0,13.977,0
			C218.793,96.42,223.13,99.03,223.13,104.967z M204.479,108.25h8.504c3.494,0,4.631-1.474,4.631-3.157
			c0-1.348-1.095-3.62-4.631-3.62h-8.504V108.25z M204.479,120.712h8.504c2.273,0,5.516-0.758,5.516-3.537
			c0-2.652-3.242-4.041-5.516-4.041h-8.504V120.712z"/>
		<path fill="#FFFFFF" d="M233.148,99.283c0,3.999-6.063,3.999-6.063,0C227.086,95.283,233.148,95.283,233.148,99.283z
			 M227.549,105.051v20.839h5.137v-20.839H227.549z"/>
		<path fill="#FFFFFF" d="M258.407,115.533c0,5.979-4.084,10.819-10.819,10.819c-6.736,0-10.777-4.841-10.777-10.819
			c0-5.936,4.126-10.819,10.735-10.819S258.407,109.598,258.407,115.533z M241.946,115.533c0,3.157,1.895,6.104,5.642,6.104
			s5.642-2.947,5.642-6.104c0-3.115-2.189-6.146-5.642-6.146C243.883,109.387,241.946,112.418,241.946,115.533z"/>
		<path fill="#FFFFFF" d="M267.037,96.463v29.427h-5.095V96.463H267.037z"/>
		<path fill="#FFFFFF" d="M292.17,115.533c0,5.979-4.084,10.819-10.819,10.819c-6.736,0-10.777-4.841-10.777-10.819
			c0-5.936,4.126-10.819,10.735-10.819S292.17,109.598,292.17,115.533z M275.709,115.533c0,3.157,1.895,6.104,5.642,6.104
			s5.642-2.947,5.642-6.104c0-3.115-2.189-6.146-5.642-6.146C277.646,109.387,275.709,112.418,275.709,115.533z"/>
		<path fill="#FFFFFF" d="M311.998,103.03l3.789,2.862l-2.315,2.947c1.6,1.81,2.188,3.873,2.188,6.146
			c0,2.567-0.968,6.188-4.378,7.746c3.452,1.726,4.294,4.21,4.294,6.862c0,5.725-4.378,9.262-10.398,9.262
			s-10.524-3.663-10.524-9.262h5.094c0,2.694,2.483,4.462,5.431,4.462s5.263-1.6,5.263-4.462c0-2.863-2.694-4.168-5.263-4.168
			c-6.483,0-10.524-3.957-10.524-10.44s4.715-10.525,10.524-10.525c1.642,0,3.326,0.211,4.757,1.179L311.998,103.03z
			 M299.747,114.986c0,3.62,2.441,5.768,5.431,5.768c2.947,0,5.389-2.189,5.389-5.768c0-3.579-2.441-5.853-5.389-5.853
			C302.188,109.134,299.747,111.365,299.747,114.986z"/>
		<path fill="#FFFFFF" d="M340.287,105.135l-12.672,29.428h-5.642l3.873-9.01l-8.293-20.418h5.978l3.157,8.967l1.979,5.853
			l2.146-5.726l3.789-9.094H340.287z"/>
	</g>
</g>
</svg>
