<?xml version="1.0" encoding="utf-8"?>
<!-- Generator: Adobe Illustrator 15.0.0, SVG Export Plug-In . SVG Version: 6.00 Build 0)  -->
<!DOCTYPE svg PUBLIC "-//W3C//DTD SVG 1.1//EN" "http://www.w3.org/Graphics/SVG/1.1/DTD/svg11.dtd">
<svg version="1.1" xmlns="http://www.w3.org/2000/svg" xmlns:xlink="http://www.w3.org/1999/xlink" x="0px" y="0px" width="300px"
	 height="100px" viewBox="0 0 300 100" enable-background="new 0 0 300 100" xml:space="preserve">
<g id="Layer_1">
	<g id="Layer_1_1_" opacity="0.54">
	</g>
	<g id="background">
		<g>
			<rect fill="#56BD88" width="300" height="100"/>
		</g>
	</g>
	<g id="Layer_2">
		<g enable-background="new    ">
			<path fill="#FFFFFF" d="M97.773,26.488c0,1.296-0.625,2.544-2.185,3.24c1.968,0.6,2.688,2.688,2.688,3.744
				c0,3.744-2.808,4.944-6.289,4.944c-2.664,0-5.305,0-7.969,0V21.615c2.64,0,5.305,0,7.969,0
				C95.3,21.615,97.773,23.104,97.773,26.488z M87.14,28.36h4.849c1.992,0,2.64-0.84,2.64-1.801c0-0.768-0.624-2.063-2.64-2.063
				H87.14V28.36z M87.14,35.465h4.849c1.296,0,3.144-0.433,3.144-2.017c0-1.512-1.848-2.304-3.144-2.304H87.14V35.465z"/>
			<path fill="#FFFFFF" d="M103.484,23.248c0,2.28-3.456,2.28-3.456,0S103.484,20.968,103.484,23.248z M100.292,26.536v11.881h2.928
				V26.536H100.292z"/>
			<path fill="#FFFFFF" d="M117.884,32.513c0,3.408-2.328,6.168-6.168,6.168s-6.145-2.76-6.145-6.168
				c0-3.385,2.352-6.169,6.12-6.169C115.46,26.344,117.884,29.128,117.884,32.513z M108.5,32.513c0,1.8,1.08,3.48,3.216,3.48
				s3.216-1.681,3.216-3.48c0-1.776-1.249-3.505-3.216-3.505C109.604,29.008,108.5,30.736,108.5,32.513z"/>
			<path fill="#FFFFFF" d="M122.803,21.64v16.777h-2.904V21.64H122.803z"/>
			<path fill="#FFFFFF" d="M137.132,32.513c0,3.408-2.328,6.168-6.168,6.168s-6.145-2.76-6.145-6.168
				c0-3.385,2.352-6.169,6.121-6.169C134.708,26.344,137.132,29.128,137.132,32.513z M127.747,32.513c0,1.8,1.08,3.48,3.216,3.48
				s3.216-1.681,3.216-3.48c0-1.776-1.249-3.505-3.216-3.505C128.851,29.008,127.747,30.736,127.747,32.513z"/>
			<path fill="#FFFFFF" d="M148.436,25.384l2.16,1.632l-1.32,1.681c0.912,1.032,1.248,2.208,1.248,3.504
				c0,1.465-0.552,3.528-2.496,4.417c1.968,0.983,2.448,2.399,2.448,3.912c0,3.265-2.496,5.28-5.929,5.28c-3.432,0-6-2.088-6-5.28
				h2.904c0,1.536,1.416,2.544,3.096,2.544s3-0.912,3-2.544s-1.536-2.376-3-2.376c-3.696,0-6-2.257-6-5.953s2.688-6,6-6
				c0.937,0,1.896,0.12,2.712,0.672L148.436,25.384z M141.451,32.2c0,2.064,1.392,3.288,3.096,3.288c1.68,0,3.072-1.248,3.072-3.288
				s-1.392-3.336-3.072-3.336C142.843,28.864,141.451,30.137,141.451,32.2z"/>
			<path fill="#FFFFFF" d="M164.563,26.584l-7.225,16.777h-3.216l2.208-5.137l-4.729-11.641h3.408l1.801,5.112l1.128,3.336
				l1.224-3.264l2.16-5.185H164.563z"/>
		</g>
	</g>
	<g>
	</g>
</g>
<g id="Layer_7_1_">
	<g>
		<defs>
			<rect id="SVGID_1_" x="-46.32" y="-99.106" width="469.82" height="469.819"/>
		</defs>
		<clipPath id="SVGID_2_">
			<use xlink:href="#SVGID_1_"  display="none" overflow="visible"/>
		</clipPath>
		<path clip-path="url(#SVGID_2_)" fill="#FFFFFF" d="M43.337,67.132h-1.7c0,0-3.167-4.223-6.569,0
			c-3.4,4.224-3.811,18.235,2.17,18.235v6.51c0,0-10.32-1.896-10.32-14.367c0-12.468,6.099-18.764,16.419-18.764V67.132z"/>
		<rect x="37.199" y="83.96" clip-path="url(#SVGID_2_)" fill="#648487" width="5.024" height="11.317"/>
		<rect x="43.337" y="51.594" clip-path="url(#SVGID_2_)" fill="#E8E8E8" width="8.561" height="16.889"/>
		<rect x="44.803" y="45.907" clip-path="url(#SVGID_2_)" fill="#E8E8E8" width="5.63" height="5.687"/>
		<rect x="43.982" y="43.795" clip-path="url(#SVGID_2_)" fill="#648487" width="7.271" height="2.112"/>
		<path clip-path="url(#SVGID_2_)" fill="#648487" d="M38.999,58.746c0-2.396,1.942-4.337,4.339-4.337
			c2.396,0,4.338,1.941,4.338,4.337c0,2.398-1.942,4.339-4.338,4.339C40.941,63.085,38.999,61.145,38.999,58.746"/>
		<path clip-path="url(#SVGID_2_)" fill="#FFFFFF" d="M41.051,58.746c0-1.262,1.023-2.286,2.287-2.286
			c1.262,0,2.287,1.024,2.287,2.286c0,1.264-1.024,2.287-2.287,2.287C42.074,61.033,41.051,60.01,41.051,58.746"/>
		<rect x="44.803" y="68.482" clip-path="url(#SVGID_2_)" fill="#FFFFFF" width="5.63" height="3.985"/>
		<rect x="46.444" y="74.697" clip-path="url(#SVGID_2_)" fill="#FFFFFF" width="2.347" height="3.985"/>
		
			<rect x="53.404" y="71.98" transform="matrix(0.7069 -0.7073 0.7073 0.7069 -36.326 60.285)" clip-path="url(#SVGID_2_)" fill="#FFFFFF" width="2.346" height="3.987"/>
		<polygon clip-path="url(#SVGID_2_)" fill="#648487" points="53.951,68.772 50.432,72.468 43.982,72.468 43.982,74.697 
			51.253,74.697 55.479,70.247 		"/>
		<path clip-path="url(#SVGID_2_)" fill="#FFFFFF" d="M28.385,95.277l7.153-6.626c0,0,2.404-2.285,3.811-0.293
			c1.408,1.994,1.993,6.919,1.993,6.919H28.385z"/>
		<path clip-path="url(#SVGID_2_)" fill="#648487" d="M38.373,90.92c0-0.647-0.526-1.173-1.174-1.173
			c-0.647,0-1.172,0.525-1.172,1.173c0,0.648,0.525,1.174,1.172,1.174C37.847,92.094,38.373,91.568,38.373,90.92"/>
		<rect x="37.199" y="80.442" clip-path="url(#SVGID_2_)" fill="#648487" width="19.312" height="1.525"/>
		<rect x="37.199" y="81.968" clip-path="url(#SVGID_2_)" fill="#E8E8E8" width="7.428" height="1.993"/>
		<polygon clip-path="url(#SVGID_2_)" fill="#E8E8E8" points="44.784,86.387 44.784,87.167 42.223,87.167 42.223,88.302 
			44.784,88.302 44.784,89.083 49.318,89.083 49.318,86.387 		"/>
		<polygon clip-path="url(#SVGID_2_)" fill="#E8E8E8" points="60.03,97.329 60.03,95.277 25.784,95.277 25.784,97.329 
			22.696,97.329 22.696,100.438 28.854,100.438 28.854,97.329 56.951,97.329 56.951,100.438 63.108,100.438 63.108,97.329 		"/>
	</g>
	<g>
		<path fill="#FFFFFF" d="M32.033,40.672h-0.015l-0.831,0.449l-0.125-0.493l1.044-0.559h0.552v4.781h-0.625V40.672z"/>
	</g>
	<g>
		<path fill="#FFFFFF" d="M56.88,87.526h-0.015l-0.831,0.449l-0.125-0.493l1.044-0.559h0.552v4.78H56.88V87.526z"/>
		<path fill="#FFFFFF" d="M59.251,91.704v-0.397l0.507-0.492c1.221-1.162,1.78-1.78,1.78-2.501c0-0.485-0.228-0.934-0.941-0.934
			c-0.434,0-0.794,0.221-1.015,0.404l-0.206-0.456c0.324-0.272,0.802-0.485,1.346-0.485c1.03,0,1.464,0.706,1.464,1.39
			c0,0.883-0.64,1.597-1.647,2.567l-0.375,0.353v0.015h2.14v0.537H59.251z"/>
		<path fill="#FFFFFF" d="M65.77,91.579c-0.169,0.081-0.544,0.206-1.022,0.206c-1.074,0-1.772-0.729-1.772-1.816
			c0-1.097,0.75-1.897,1.913-1.897c0.382,0,0.721,0.095,0.897,0.19l-0.147,0.493c-0.154-0.081-0.397-0.169-0.75-0.169
			c-0.816,0-1.258,0.61-1.258,1.346c0,0.823,0.529,1.331,1.235,1.331c0.368,0,0.611-0.088,0.794-0.169L65.77,91.579z"/>
	</g>
	<g>
		<path fill="#FFFFFF" d="M17.905,72.625c0,3.461-2.113,5.319-4.69,5.319c-2.682,0-4.54-2.083-4.54-5.14
			c0-3.207,1.978-5.305,4.675-5.305C16.122,67.5,17.905,69.613,17.905,72.625z M10.054,72.774c0,2.173,1.169,4.105,3.236,4.105
			c2.068,0,3.237-1.902,3.237-4.195c0-2.022-1.049-4.12-3.222-4.12C11.133,68.564,10.054,70.572,10.054,72.774z"/>
	</g>
	<g>
		<path fill="#FFFFFF" d="M72.537,63.845h-1.983v1.847h2.219v0.555h-2.888v-5.121h2.774v0.555h-2.105v1.618h1.983V63.845z"/>
		<path fill="#FFFFFF" d="M73.608,63.563c0-0.388-0.007-0.691-0.03-0.995h0.593l0.038,0.607h0.016
			c0.182-0.342,0.608-0.684,1.216-0.684c0.509,0,1.299,0.304,1.299,1.565v2.188H76.07v-2.12c0-0.593-0.22-1.087-0.851-1.087
			c-0.433,0-0.775,0.312-0.896,0.685c-0.03,0.083-0.045,0.197-0.045,0.312v2.211h-0.669V63.563z"/>
	</g>
	<g>
		<defs>
			<rect id="SVGID_3_" x="-46.32" y="-99.106" width="469.82" height="469.819"/>
		</defs>
		<clipPath id="SVGID_4_">
			<use xlink:href="#SVGID_3_"  overflow="visible"/>
		</clipPath>
	</g>
</g>
<g id="Layer_6">
</g>
<g id="Layer_5">
	<path fill="#FFFFFF" d="M269.197,87.194c-2.613-2.612-6.864-2.613-9.478,0l-0.903,0.903c-0.904,0.904-2.106,1.402-3.385,1.402
		s-2.481-0.498-3.385-1.402c-1.866-1.867-1.866-4.904,0-6.771l6.771-6.771l-1.355-1.354l-6.77,6.77
		c-2.613,2.613-2.613,6.865,0,9.479c1.266,1.266,2.949,1.963,4.739,1.963s3.474-0.697,4.739-1.963l0.902-0.902
		c1.867-1.867,4.904-1.867,6.77,0c1.867,1.866,1.867,4.903,0,6.77c-0.373,0.374-0.373,0.98,0,1.354c0.375,0.374,0.98,0.374,1.354,0
		C271.811,94.06,271.811,89.808,269.197,87.194z"/>
	<g>
		<path fill="#FFFFFF" d="M285.334,46.685c0.374,0.374,0.98,0.374,1.354,0l3.61-3.611c0.374-0.374,0.374-0.98,0-1.354
			s-0.979-0.374-1.354,0l-3.61,3.611C284.96,45.705,284.96,46.311,285.334,46.685z"/>
		<path fill="#FFFFFF" d="M275.968,77.717l-21.664-21.664c-0.375-0.375-0.98-0.375-1.354,0c-0.374,0.373-0.374,0.979,0,1.354
			l21.664,21.664c0.374,0.374,0.979,0.374,1.354,0C276.341,78.696,276.341,78.09,275.968,77.717z"/>
		<path fill="#FFFFFF" d="M265.415,78.521c0-0.528-0.428-0.957-0.957-0.957c-0.528,0-0.957,0.429-0.957,0.957v4.359
			c0,0.264,0.107,0.504,0.28,0.676c0.173,0.174,0.413,0.281,0.677,0.281c0.529,0,0.957-0.429,0.957-0.957V78.521z"/>
		<path fill="#FFFFFF" d="M253.498,66.604h-4.358c-0.529,0-0.957,0.43-0.957,0.958c0,0.265,0.106,0.504,0.279,0.677
			c0.174,0.174,0.413,0.28,0.678,0.28h4.358c0.528,0,0.957-0.429,0.958-0.957C254.456,67.033,254.026,66.604,253.498,66.604z"/>
		<path fill="#FFFFFF" d="M260.115,50.24l21.663,21.664c0.375,0.374,0.98,0.374,1.354,0c0.374-0.373,0.374-0.98,0-1.354
			L261.47,48.887c-0.375-0.375-0.98-0.375-1.354,0C259.741,49.26,259.741,49.866,260.115,50.24z"/>
		<path fill="#FFFFFF" d="M277.833,42.269c0,0.265,0.106,0.504,0.279,0.677c0.174,0.173,0.413,0.28,0.678,0.28
			c0.529,0,0.957-0.429,0.957-0.958v-4.358c0-0.529-0.429-0.958-0.957-0.958c-0.529,0-0.957,0.429-0.957,0.958V42.269z"/>
		<path fill="#FFFFFF" d="M289.073,53.906c0.174,0.174,0.412,0.281,0.677,0.281h4.358c0.529,0,0.957-0.43,0.957-0.958
			s-0.428-0.958-0.957-0.958h-4.358c-0.528,0-0.957,0.43-0.957,0.958C288.793,53.494,288.899,53.733,289.073,53.906z"/>
		<path fill="#FFFFFF" d="M267.28,43.074l21.664,21.664c0.375,0.374,0.98,0.374,1.354,0c0.374-0.373,0.374-0.98,0-1.354
			L268.635,41.72c-0.374-0.374-0.979-0.374-1.354,0C266.907,42.094,266.907,42.701,267.28,43.074z"/>
	</g>
	<path fill="#648487" d="M255.432,58.535l14.331-14.333c4.986-4.985,13.068-4.985,18.054,0c4.985,4.985,4.985,13.069,0,18.053
		l-14.331,14.332c-4.986,4.985-13.068,4.985-18.054,0S250.446,63.52,255.432,58.535z"/>
	<path fill="#FFFDFE" d="M285.108,46.911c-3.484-3.484-9.152-3.484-12.637,0l-2.709,2.708L258.14,61.242
		c-3.484,3.484-3.484,9.153,0,12.638c3.484,3.483,9.153,3.483,12.637,0l14.332-14.332C288.593,56.064,288.593,50.395,285.108,46.911
		z"/>
	<g>
		<circle fill="#C6C6C6" cx="280.595" cy="56.028" r="0.958"/>
		<circle fill="#C6C6C6" cx="280.595" cy="50.611" r="0.957"/>
		<circle fill="#C6C6C6" cx="262.653" cy="64.763" r="0.958"/>
	</g>
	<path fill="#648487" d="M267.343,64.731c-0.244,0-0.49-0.094-0.677-0.28c-0.374-0.375-0.374-0.98,0-1.354
		c0.747-0.747,1.536-0.771,2.058-0.786c0.427-0.013,0.559-0.025,0.76-0.227c0.201-0.2,0.214-0.332,0.227-0.76
		c0.016-0.521,0.038-1.31,0.786-2.057c0.747-0.748,1.536-0.771,2.058-0.787c0.427-0.012,0.559-0.024,0.76-0.226
		c0.201-0.2,0.213-0.333,0.226-0.76c0.016-0.521,0.038-1.31,0.786-2.058c0.374-0.374,0.98-0.374,1.354,0
		c0.375,0.374,0.375,0.98,0,1.354c-0.2,0.201-0.213,0.334-0.226,0.76c-0.015,0.522-0.038,1.311-0.786,2.059
		c-0.747,0.747-1.535,0.77-2.057,0.785c-0.428,0.014-0.56,0.025-0.76,0.227c-0.201,0.201-0.215,0.333-0.227,0.76
		c-0.016,0.521-0.039,1.311-0.786,2.058c-0.748,0.747-1.536,0.771-2.058,0.786c-0.428,0.013-0.56,0.025-0.76,0.227
		C267.833,64.638,267.588,64.731,267.343,64.731z"/>
</g>
</svg>
