<?xml version="1.0" encoding="utf-8"?>
<!-- Generator: Adobe Illustrator 15.0.0, SVG Export Plug-In . SVG Version: 6.00 Build 0)  -->
<!DOCTYPE svg PUBLIC "-//W3C//DTD SVG 1.1//EN" "http://www.w3.org/Graphics/SVG/1.1/DTD/svg11.dtd">
<svg version="1.1" xmlns="http://www.w3.org/2000/svg" xmlns:xlink="http://www.w3.org/1999/xlink" x="0px" y="0px" width="350px"
	 height="500px" viewBox="0 0 350 500" enable-background="new 0 0 350 500" xml:space="preserve">
<g id="Layer_1">
</g>
<g id="Layer_2">
	<g id="background">
		<g>
			<rect fill="#58BE89" width="350" height="500"/>
		</g>
	</g>
</g>
<g id="Layer_3">
	<g opacity="0.32">
		<defs>
			<rect id="SVGID_1_" x="-133.82" y="-87.553" opacity="0.32" width="1361.82" height="1361.818"/>
		</defs>
		<clipPath id="SVGID_2_">
			<use xlink:href="#SVGID_1_"  display="none" overflow="visible"/>
		</clipPath>
		<path clip-path="url(#SVGID_2_)" fill="#FFFFFF" d="M174.758,384.902h-3.908c0,0-7.281-9.707-15.101,0
			c-7.817,9.71-8.76,41.92,4.989,41.92v14.964c0,0-23.725-4.356-23.725-33.027c0-28.66,14.021-43.134,37.744-43.134V384.902z"/>
		<rect x="160.647" y="423.587" clip-path="url(#SVGID_2_)" fill="#658588" width="11.549" height="26.017"/>
		<rect x="174.758" y="349.184" clip-path="url(#SVGID_2_)" fill="#E8E8E8" width="19.681" height="38.823"/>
		<rect x="178.127" y="336.11" clip-path="url(#SVGID_2_)" fill="#E8E8E8" width="12.943" height="13.073"/>
		<rect x="176.239" y="331.255" clip-path="url(#SVGID_2_)" fill="#658588" width="16.716" height="4.855"/>
		<path clip-path="url(#SVGID_2_)" fill="#658588" d="M164.783,365.625c0-5.507,4.466-9.971,9.975-9.971
			c5.507,0,9.972,4.464,9.972,9.971c0,5.515-4.465,9.975-9.972,9.975C169.249,375.6,164.783,371.14,164.783,365.625"/>
		<path clip-path="url(#SVGID_2_)" fill="#FFFFFF" d="M169.501,365.625c0-2.9,2.353-5.256,5.256-5.256
			c2.902,0,5.256,2.355,5.256,5.256c0,2.904-2.354,5.257-5.256,5.257C171.854,370.882,169.501,368.529,169.501,365.625"/>
		<rect x="178.127" y="388.007" clip-path="url(#SVGID_2_)" fill="#FFFFFF" width="12.943" height="9.161"/>
		<rect x="181.9" y="402.294" clip-path="url(#SVGID_2_)" fill="#FFFFFF" width="5.395" height="9.162"/>
		
			<rect x="197.9" y="396.047" transform="matrix(0.7068 -0.7074 0.7074 0.7068 -224.5896 259.3478)" clip-path="url(#SVGID_2_)" fill="#FFFFFF" width="5.392" height="9.166"/>
		<polygon clip-path="url(#SVGID_2_)" fill="#658588" points="199.156,388.674 191.065,397.168 176.239,397.168 176.239,402.294 
			192.955,402.294 202.67,392.063 		"/>
		<path clip-path="url(#SVGID_2_)" fill="#FFFFFF" d="M140.386,449.604l16.444-15.232c0,0,5.526-5.252,8.76-0.673
			c3.237,4.585,4.583,15.905,4.583,15.905H140.386z"/>
		<path clip-path="url(#SVGID_2_)" fill="#658588" d="M163.346,439.586c0-1.488-1.209-2.695-2.698-2.695
			c-1.487,0-2.695,1.207-2.695,2.695c0,1.491,1.208,2.699,2.695,2.699C162.137,442.285,163.346,441.077,163.346,439.586"/>
		<rect x="160.647" y="415.5" clip-path="url(#SVGID_2_)" fill="#658588" width="44.395" height="3.507"/>
		<rect x="160.647" y="419.007" clip-path="url(#SVGID_2_)" fill="#E8E8E8" width="17.074" height="4.582"/>
		<polygon clip-path="url(#SVGID_2_)" fill="#E8E8E8" points="178.082,429.165 178.082,430.959 172.197,430.959 172.197,433.567 
			178.082,433.567 178.082,435.363 188.506,435.363 188.506,429.165 		"/>
		<polygon clip-path="url(#SVGID_2_)" fill="#E8E8E8" points="213.13,454.32 213.13,449.604 134.406,449.604 134.406,454.32 
			127.308,454.32 127.308,461.468 141.463,461.468 141.463,454.32 206.053,454.32 206.053,461.468 220.207,461.468 220.207,454.32 
					"/>
	</g>
	<g opacity="0.32">
		<path fill="#FFFFFF" d="M148.776,324.067h-0.034l-1.913,1.032l-0.288-1.134l2.403-1.286h1.27v10.999h-1.438V324.067z"/>
	</g>
	<g opacity="0.32">
		<path fill="#FFFFFF" d="M205.895,431.778h-0.034l-1.912,1.032l-0.288-1.134l2.403-1.286h1.27v10.999h-1.438V431.778z"/>
		<path fill="#FFFFFF" d="M211.343,441.39v-0.914l1.167-1.134c2.81-2.674,4.096-4.095,4.096-5.753c0-1.117-0.525-2.149-2.166-2.149
			c-0.999,0-1.828,0.508-2.336,0.931l-0.474-1.049c0.745-0.626,1.845-1.117,3.097-1.117c2.369,0,3.367,1.625,3.367,3.198
			c0,2.031-1.472,3.672-3.79,5.906l-0.863,0.812v0.034h4.925v1.235H211.343z"/>
		<path fill="#FFFFFF" d="M226.334,441.102c-0.389,0.187-1.252,0.475-2.352,0.475c-2.471,0-4.078-1.676-4.078-4.18
			c0-2.521,1.726-4.366,4.399-4.366c0.88,0,1.658,0.22,2.064,0.439l-0.339,1.134c-0.354-0.186-0.913-0.389-1.726-0.389
			c-1.878,0-2.894,1.404-2.894,3.097c0,1.896,1.219,3.063,2.843,3.063c0.846,0,1.404-0.203,1.827-0.389L226.334,441.102z"/>
	</g>
	<g opacity="0.32">
		<path fill="#FFFFFF" d="M116.292,397.531c0,7.955-4.856,12.226-10.779,12.226c-6.165,0-10.435-4.787-10.435-11.813
			c0-7.37,4.546-12.191,10.745-12.191C112.194,385.753,116.292,390.608,116.292,397.531z M98.246,397.875
			c0,4.994,2.686,9.437,7.439,9.437c4.752,0,7.439-4.374,7.439-9.643c0-4.649-2.411-9.471-7.405-9.471
			S98.246,392.813,98.246,397.875z"/>
	</g>
	<g opacity="0.32">
		<path fill="#FFFFFF" d="M241.887,377.346h-4.561v4.245h5.102v1.275h-6.639v-11.775h6.377v1.275h-4.84v3.721h4.561V377.346z"/>
		<path fill="#FFFFFF" d="M244.346,376.699c0-0.892-0.018-1.59-0.069-2.289h1.362l0.087,1.397h0.035
			c0.42-0.786,1.397-1.572,2.796-1.572c1.17,0,2.987,0.699,2.987,3.599v5.032h-1.537v-4.874c0-1.363-0.507-2.499-1.957-2.499
			c-0.996,0-1.782,0.717-2.062,1.572c-0.07,0.192-0.105,0.454-0.105,0.717v5.084h-1.537V376.699z"/>
	</g>
	<g>
		<defs>
			<rect id="SVGID_3_" x="-133.82" y="-87.553" width="1361.82" height="1361.818"/>
		</defs>
		<clipPath id="SVGID_4_">
			<use xlink:href="#SVGID_3_"  overflow="visible"/>
		</clipPath>
	</g>
</g>
<g id="Layer_4">
	<path fill="#FFFFFF" d="M267.977,101.459c-3.615-3.614-9.495-3.615-13.11,0l-1.249,1.25c-1.251,1.25-2.913,1.939-4.682,1.939
		s-3.433-0.689-4.683-1.939c-2.581-2.583-2.581-6.784,0-9.365l9.366-9.365l-1.875-1.872l-9.364,9.364
		c-3.614,3.615-3.614,9.496,0,13.111c1.751,1.75,4.079,2.715,6.556,2.715c2.476,0,4.805-0.965,6.556-2.715l1.248-1.249
		c2.582-2.583,6.784-2.583,9.363,0c2.583,2.582,2.583,6.783,0,9.364c-0.516,0.518-0.516,1.356,0,1.874
		c0.519,0.517,1.356,0.517,1.874,0C271.591,110.955,271.591,105.073,267.977,101.459z"/>
	<g>
		<path fill="#FFFFFF" d="M290.297,45.425c0.518,0.518,1.356,0.518,1.874,0l4.993-4.995c0.518-0.517,0.518-1.355,0-1.873
			c-0.517-0.518-1.354-0.518-1.873,0l-4.994,4.995C289.779,44.07,289.779,44.908,290.297,45.425z"/>
		<path fill="#FFFFFF" d="M277.342,88.349l-29.967-29.966c-0.519-0.519-1.355-0.519-1.873,0c-0.518,0.516-0.518,1.354,0,1.872
			l29.966,29.966c0.518,0.517,1.354,0.517,1.874,0C277.857,89.704,277.857,88.865,277.342,88.349z"/>
		<path fill="#FFFFFF" d="M262.744,89.462c0-0.731-0.592-1.324-1.323-1.324s-1.323,0.593-1.323,1.324v6.03
			c0,0.365,0.148,0.697,0.387,0.935c0.239,0.24,0.572,0.389,0.937,0.389c0.731,0,1.323-0.593,1.323-1.324V89.462z"/>
		<path fill="#FFFFFF" d="M246.261,72.977h-6.028c-0.732,0-1.324,0.594-1.324,1.325c0,0.366,0.147,0.697,0.387,0.936
			c0.24,0.241,0.571,0.388,0.938,0.388h6.028c0.731,0,1.323-0.593,1.325-1.324C247.586,73.571,246.992,72.977,246.261,72.977z"/>
		<path fill="#FFFFFF" d="M255.414,50.343l29.965,29.967c0.519,0.517,1.356,0.517,1.874,0c0.517-0.517,0.517-1.356,0-1.873
			l-29.966-29.966c-0.519-0.519-1.356-0.519-1.873,0C254.896,48.987,254.896,49.826,255.414,50.343z"/>
		<path fill="#FFFFFF" d="M279.922,39.317c0,0.366,0.146,0.697,0.386,0.937c0.24,0.239,0.571,0.388,0.938,0.388
			c0.732,0,1.323-0.593,1.323-1.325v-6.028c0-0.731-0.592-1.325-1.323-1.325s-1.323,0.593-1.323,1.325V39.317z"/>
		<path fill="#FFFFFF" d="M295.469,55.414c0.241,0.24,0.57,0.389,0.937,0.389h6.028c0.732,0,1.324-0.595,1.324-1.326
			c0-0.73-0.592-1.325-1.324-1.325h-6.028c-0.73,0-1.324,0.594-1.324,1.325C295.081,54.844,295.229,55.175,295.469,55.414z"/>
		<path fill="#FFFFFF" d="M265.324,40.431l29.967,29.966c0.519,0.518,1.356,0.518,1.873,0c0.518-0.516,0.518-1.356,0-1.872
			l-29.966-29.967c-0.517-0.517-1.354-0.517-1.874,0C264.809,39.075,264.809,39.914,265.324,40.431z"/>
	</g>
	<path fill="#658588" d="M248.936,61.817l19.823-19.825c6.897-6.896,18.076-6.896,24.973,0c6.896,6.895,6.896,18.077,0,24.972
		l-19.824,19.824c-6.897,6.896-18.076,6.896-24.972,0C242.04,79.892,242.04,68.711,248.936,61.817z"/>
	<path fill="#FFFEFE" d="M289.985,45.737c-4.82-4.819-12.66-4.819-17.479,0l-3.747,3.747l-16.078,16.078
		c-4.819,4.819-4.819,12.661,0,17.48c4.82,4.818,12.661,4.818,17.48,0l19.824-19.824C294.805,58.399,294.805,50.557,289.985,45.737z
		"/>
	<g>
		<circle fill="#C7C6C6" cx="283.741" cy="58.348" r="1.324"/>
		<circle fill="#C7C6C6" cx="283.741" cy="50.856" r="1.324"/>
		<circle fill="#C7C6C6" cx="258.925" cy="70.431" r="1.324"/>
	</g>
	<path fill="#658588" d="M265.411,70.388c-0.338,0-0.678-0.13-0.936-0.388c-0.518-0.519-0.518-1.356,0-1.874
		c1.033-1.033,2.125-1.066,2.846-1.087c0.59-0.018,0.772-0.035,1.051-0.313c0.278-0.277,0.296-0.459,0.313-1.051
		c0.021-0.721,0.053-1.812,1.087-2.845c1.034-1.034,2.125-1.067,2.847-1.088c0.59-0.017,0.772-0.034,1.051-0.312
		c0.278-0.277,0.295-0.461,0.312-1.051c0.022-0.722,0.054-1.812,1.088-2.846c0.518-0.518,1.356-0.518,1.872,0
		c0.52,0.517,0.52,1.356,0,1.872c-0.277,0.278-0.294,0.462-0.312,1.051c-0.021,0.723-0.054,1.813-1.088,2.847
		c-1.033,1.034-2.123,1.065-2.845,1.086c-0.591,0.019-0.773,0.035-1.051,0.313c-0.278,0.278-0.297,0.461-0.313,1.051
		c-0.021,0.721-0.054,1.813-1.087,2.846c-1.035,1.033-2.125,1.065-2.847,1.087c-0.592,0.018-0.774,0.035-1.051,0.313
		C266.09,70.258,265.75,70.388,265.411,70.388z"/>
</g>
</svg>
