<?xml version="1.0" encoding="utf-8"?>
<!-- Generator: Adobe Illustrator 15.0.0, SVG Export Plug-In . SVG Version: 6.00 Build 0)  -->
<!DOCTYPE svg PUBLIC "-//W3C//DTD SVG 1.1//EN" "http://www.w3.org/Graphics/SVG/1.1/DTD/svg11.dtd">
<svg version="1.1" xmlns="http://www.w3.org/2000/svg" xmlns:xlink="http://www.w3.org/1999/xlink" x="0px" y="0px" width="300px"
	 height="100px" viewBox="0 0 300 100" enable-background="new 0 0 300 100" xml:space="preserve">
<g id="Layer_1">
	<g id="Layer_1_1_" opacity="0.54">
	</g>
	<g id="background">
		<g>
			<rect fill="#01BDD5" width="300" height="100"/>
		</g>
	</g>
	<g id="Layer_2">
		<g enable-background="new    ">
			<path fill="#FCFCFC" d="M98.925,36.305c-1.728,1.704-3.96,2.496-6.385,2.496c-6.24,0-8.88-4.296-8.904-8.664
				c-0.024-4.393,2.832-8.857,8.904-8.857c2.28,0,4.44,0.864,6.169,2.568l-2.112,2.04c-1.104-1.08-2.592-1.584-4.057-1.584
				c-4.056,0-5.808,3.024-5.784,5.833c0.024,2.784,1.632,5.688,5.784,5.688c1.464,0,3.121-0.601,4.225-1.704L98.925,36.305z"/>
			<path fill="#FCFCFC" d="M103.171,21.615v6.577c1.056-1.368,2.353-1.776,3.696-1.776c3.36,0,4.849,2.28,4.849,5.761v6.24h-2.928
				V32.2c0-2.16-1.128-3.072-2.688-3.072c-1.728,0-2.928,1.465-2.928,3.24v6.049h-2.928V21.615H103.171z"/>
			<path fill="#FCFCFC" d="M116.684,33.545c0.192,1.464,1.464,2.52,3.528,2.52c1.081,0,2.497-0.407,3.168-1.104l1.872,1.848
				c-1.248,1.296-3.288,1.921-5.088,1.921c-4.08,0-6.504-2.521-6.504-6.313c0-3.6,2.448-6.192,6.289-6.192
				c3.96,0,6.433,2.448,5.977,7.321H116.684z M123.116,31.12c-0.192-1.536-1.392-2.304-3.072-2.304c-1.584,0-2.88,0.768-3.312,2.304
				H123.116z"/>
			<path fill="#FCFCFC" d="M135.812,38.417V32.08c0-1.56-0.816-2.976-2.424-2.976c-1.584,0-2.521,1.416-2.521,2.976v6.337h-2.928
				V26.56h2.712l0.216,1.44c0.624-1.2,1.992-1.632,3.121-1.632c1.416,0,2.832,0.576,3.504,2.208c1.056-1.681,2.424-2.16,3.96-2.16
				c3.36,0,5.017,2.064,5.017,5.616v6.385h-2.928v-6.385c0-1.56-0.648-2.88-2.232-2.88c-1.584,0-2.568,1.368-2.568,2.928v6.337
				H135.812z"/>
			<path fill="#FCFCFC" d="M152.635,23.248c0,2.28-3.456,2.28-3.456,0S152.635,20.968,152.635,23.248z M149.443,26.536v11.881h2.928
				V26.536H149.443z"/>
			<path fill="#FCFCFC" d="M162.74,29.729c-0.841-0.792-1.801-1.057-2.929-1.057c-1.393,0-2.161,0.433-2.161,1.177
				c0,0.768,0.697,1.2,2.209,1.296c2.232,0.144,5.064,0.647,5.064,3.792c0,2.088-1.704,3.889-5.088,3.889
				c-1.873,0-3.745-0.313-5.473-2.112l1.439-2.088c0.84,0.936,2.76,1.632,4.08,1.656c1.104,0.023,2.137-0.553,2.137-1.417
				c0-0.815-0.672-1.151-2.352-1.248c-2.232-0.168-4.896-0.983-4.896-3.672c0-2.736,2.832-3.696,4.992-3.696
				c1.848,0,3.24,0.36,4.607,1.56L162.74,29.729z"/>
			<path fill="#FCFCFC" d="M170.923,23.248v3.36h3.265v2.52h-3.289v5.112c0,1.129,0.625,1.681,1.537,1.681
				c0.455,0,0.983-0.145,1.416-0.36l0.815,2.496c-0.84,0.336-1.536,0.48-2.424,0.504c-2.568,0.097-4.249-1.367-4.249-4.32v-5.112
				h-2.207v-2.52h2.207V23.56L170.923,23.248z"/>
			<path fill="#FCFCFC" d="M179.082,26.584l0.217,1.368c0.912-1.464,2.136-1.681,3.336-1.681c1.225,0,2.4,0.48,3.049,1.129
				l-1.32,2.544c-0.601-0.504-1.152-0.769-2.112-0.769c-1.536,0-2.952,0.816-2.952,3.001v6.24h-2.929V26.584H179.082z"/>
			<path fill="#FCFCFC" d="M199.459,26.584l-7.225,16.777h-3.217l2.209-5.137l-4.729-11.641h3.408l1.8,5.112l1.128,3.336
				l1.225-3.264l2.16-5.185H199.459z"/>
		</g>
	</g>
	<g>
	</g>
</g>
<g id="Layer_4">
	<g>
		<g>
			<path fill="#FFFFFF" d="M277.278,62.188V51.402c0-0.429-0.347-0.775-0.773-0.775c-0.429,0-0.774,0.347-0.774,0.775v10.786
				c0,0.428,0.346,0.774,0.774,0.774C276.932,62.963,277.278,62.616,277.278,62.188z"/>
			<path fill="#FFFFFF" d="M281.109,59.844V37.331c0-0.427-0.347-0.775-0.774-0.775s-0.774,0.348-0.774,0.775v22.514
				c0,0.427,0.347,0.774,0.774,0.774C280.764,60.619,281.109,60.271,281.109,59.844z"/>
			<path fill="#FFFFFF" d="M284.626,60.626v-4.847c0-0.428-0.346-0.774-0.774-0.774c-0.427,0-0.773,0.347-0.773,0.774v4.847
				c0,0.427,0.347,0.773,0.773,0.773C284.28,61.399,284.626,61.054,284.626,60.626z"/>
			<g>
				<circle fill="#FFFFFF" cx="275.098" cy="90.487" r="1.883"/>
				<path fill="#FFFFFF" d="M280.337,81.412c-1.212,0-2.198,0.983-2.198,2.196c0,1.212,0.985,2.195,2.198,2.195
					c1.211,0,2.195-0.983,2.195-2.195C282.532,82.396,281.547,81.412,280.337,81.412z"/>
				<circle fill="#FFFFFF" cx="283.852" cy="90.487" r="1.883"/>
				<path fill="#CDDC37" d="M294.979,96.611l-9.727-22.079v-8.747c0-0.429-0.346-0.774-0.774-0.774h-9.537
					c-0.213,0-0.419,0.089-0.565,0.245c-0.146,0.156-0.222,0.367-0.208,0.581l0.614,9.197l-9.152,21.719
					c-0.101,0.24-0.075,0.513,0.068,0.728c0.145,0.216,0.386,0.347,0.646,0.347h27.984c0.006,0,0.013,0.001,0.015,0
					c0.431,0,0.774-0.347,0.774-0.774C295.116,96.888,295.066,96.737,294.979,96.611z M275.098,93.918
					c-1.893,0-3.432-1.539-3.432-3.433c0-1.892,1.538-3.432,3.432-3.432c1.893,0,3.433,1.539,3.433,3.432
					C278.53,92.379,276.988,93.918,275.098,93.918z M276.59,83.608c0-2.064,1.681-3.745,3.747-3.745
					c2.063,0,3.744,1.681,3.744,3.745c0,2.063-1.681,3.744-3.744,3.744C278.271,87.353,276.59,85.672,276.59,83.608z
					 M283.852,93.918c-1.891,0-3.432-1.539-3.432-3.433c0-1.892,1.539-3.432,3.432-3.432c1.894,0,3.436,1.539,3.436,3.432
					C287.285,92.379,285.745,93.918,283.852,93.918z"/>
			</g>
		</g>
	</g>
</g>
<g id="Layer_3">
	<g id="Layer_8">
		<g>
			<g>
				<g>
					<circle opacity="0.3" fill="#FFFFFF" enable-background="new    " cx="61.573" cy="55.691" r="8.085"/>
				</g>
			</g>
		</g>
		<g>
			<g>
				<g>
					<circle opacity="0.3" fill="#FFFFFF" enable-background="new    " cx="267.883" cy="32.963" r="10.664"/>
				</g>
			</g>
		</g>
		<g>
			<g>
				<g>
					<circle opacity="0.3" fill="#FFFFFF" enable-background="new    " cx="249.883" cy="9.957" r="3.014"/>
				</g>
			</g>
		</g>
		<g>
			<g>
				<g>
					<circle opacity="0.3" fill="#FFFFFF" enable-background="new    " cx="272.831" cy="3.114" r="7.262"/>
				</g>
			</g>
		</g>
		<g>
			<g>
				<g>
					<circle opacity="0.3" fill="#FFFFFF" enable-background="new    " cx="291.883" cy="23.031" r="10.867"/>
				</g>
			</g>
		</g>
		<g>
			<g>
				<g>
					<circle opacity="0.3" fill="#FFFFFF" enable-background="new    " cx="296.216" cy="-5.822" r="4.12"/>
				</g>
			</g>
		</g>
		<g>
			<g>
				<g>
					<circle opacity="0.3" fill="#FFFFFF" enable-background="new    " cx="68.216" cy="28.931" r="4.583"/>
				</g>
			</g>
		</g>
		<g>
			<g>
				<g>
					<circle opacity="0.3" fill="#FFFFFF" enable-background="new    " cx="5.216" cy="-12.729" r="6.068"/>
				</g>
			</g>
		</g>
		<g>
			<g>
				<g>
					<circle opacity="0.3" fill="#FFFFFF" enable-background="new    " cx="288.967" cy="3.114" r="5.036"/>
				</g>
			</g>
		</g>
		<g>
			<g>
				<g>
					<circle opacity="0.3" fill="#FFFFFF" enable-background="new    " cx="300.336" cy="49.984" r="13.483"/>
				</g>
			</g>
		</g>
		<g>
			<g>
				<g>
					<circle opacity="0.3" fill="#FFFFFF" enable-background="new    " cx="237.883" cy="50.037" r="16.603"/>
				</g>
			</g>
		</g>
		<g>
			<g>
				<g>
					<circle opacity="0.3" fill="#FFFFFF" enable-background="new    " cx="10.549" cy="-48.312" r="15.799"/>
				</g>
			</g>
		</g>
		<g>
			<g>
				<g>
					<circle opacity="0.3" fill="#FFFFFF" enable-background="new    " cx="266.549" cy="-10.354" r="10.703"/>
				</g>
			</g>
		</g>
		<g>
			<g>
				<g>
					<circle opacity="0.3" fill="#FFFFFF" enable-background="new    " cx="248.216" cy="12.971" r="14.259"/>
				</g>
			</g>
		</g>
	</g>
</g>
<g id="Layer_2_1_">
	<g id="chemistry">
		<g>
			<g>
				<g>
					<g>
						<g>
							<g>
								<g>
									<g>
										<g>
											<path fill="#FFFFFF" d="M32.604,37.561h-3.738c-0.187,0-0.375-0.188-0.375-0.373l0,0c0-0.188,0.187-0.374,0.375-0.374
												h3.738c0.188,0,0.373,0.186,0.373,0.374l0,0C32.977,37.373,32.792,37.561,32.604,37.561z"/>
										</g>
									</g>
									<g>
										<g>
											<path fill="#FFFFFF" d="M30.92,40.738h-2.242c-0.187,0-0.374-0.188-0.374-0.374l0,0c0-0.185,0.187-0.374,0.374-0.374
												h2.242c0.188,0,0.375,0.188,0.375,0.374l0,0C31.483,40.364,31.295,40.738,30.92,40.738z"/>
										</g>
									</g>
									<g>
										<g>
											<path fill="#FFFFFF" d="M30.92,43.729h-2.055c-0.187,0-0.375-0.187-0.375-0.374l0,0c0-0.187,0.188-0.371,0.375-0.371
												h2.244c0.186,0,0.374,0.184,0.374,0.371l0,0C31.483,43.542,31.295,43.729,30.92,43.729z"/>
										</g>
									</g>
									<g>
										<g>
											<path fill="#FFFFFF" d="M30.92,46.906h-2.055c-0.187,0-0.375-0.188-0.375-0.374l0,0c0-0.186,0.188-0.375,0.375-0.375
												h2.244c0.186,0,0.374,0.189,0.374,0.375l0,0C31.483,46.718,31.295,46.906,30.92,46.906z"/>
										</g>
									</g>
									<g>
										<g>
											<path fill="#FFFFFF" d="M32.604,50.083h-3.738c-0.187,0-0.375-0.188-0.375-0.375l0,0c0-0.186,0.187-0.373,0.375-0.373
												h3.738c0.188,0,0.373,0.187,0.373,0.373l0,0C32.977,49.896,32.792,50.083,32.604,50.083z"/>
										</g>
									</g>
									<g>
										<g>
											<path fill="#FFFFFF" d="M30.92,53.259h-2.055c-0.187,0-0.375-0.185-0.375-0.368l0,0c0-0.192,0.188-0.379,0.375-0.379
												h2.244c0.186,0,0.374,0.187,0.374,0.379l0,0C31.483,53.074,31.295,53.259,30.92,53.259z"/>
										</g>
									</g>
									<g>
										<g>
											<path fill="#FFFFFF" d="M30.92,56.438h-2.055c-0.187,0-0.375-0.188-0.375-0.376l0,0c0-0.186,0.188-0.371,0.375-0.371
												h2.244c0.186,0,0.374,0.186,0.374,0.371l0,0C31.483,56.251,31.295,56.438,30.92,56.438z"/>
										</g>
									</g>
									<g>
										<g>
											<path fill="#FFFFFF" d="M30.92,59.615h-2.242c-0.187,0-0.374-0.186-0.374-0.373l0,0c0-0.188,0.187-0.374,0.374-0.374
												h2.242c0.188,0,0.375,0.185,0.375,0.374l0,0C31.483,59.432,31.295,59.615,30.92,59.615z"/>
										</g>
									</g>
									<g>
										<g>
											<path fill="#FFFFFF" d="M32.604,62.795h-3.738c-0.187,0-0.375-0.189-0.375-0.378l0,0c0-0.185,0.187-0.372,0.375-0.372
												h3.738c0.188,0,0.373,0.188,0.373,0.372l0,0C32.977,62.605,32.792,62.795,32.604,62.795z"/>
										</g>
									</g>
								</g>
								<g>
									<path fill="#FFFFFF" d="M41.388,63.355V32.327l1.309-2.243c0.187-0.375,0.374-0.935,0.374-1.496v-0.187
										c0-1.121-0.935-2.055-2.056-2.055H24.753c-1.121,0-2.056,0.934-2.056,2.055v0.187c0,0.561,0.188,0.934,0.374,1.496
										l1.308,2.243v31.028C12.418,67.092,4.193,78.119,4.193,90.641c0,15.892,12.709,28.787,28.598,28.787
										c15.886,0,28.595-12.71,28.782-28.598C61.575,78.306,53.351,67.092,41.388,63.355z M25.875,66.344
										c0.374-0.186,0.746-0.186,1.308-0.373l0.747-0.186V32.141c0-0.56-0.187-1.123-0.374-1.497l-0.561-0.934h12.336
										l-0.748,1.121c-0.186,0.374-0.374,0.935-0.374,1.495v33.642l0.748,0.188c0.374,0.185,0.748,0.185,1.307,0.371
										c10.655,3.18,18.131,13.274,18.131,24.3c0,14.019-11.402,25.417-25.42,25.233c-14.018,0-25.418-11.399-25.233-25.424
										C7.558,79.614,15.034,69.521,25.875,66.344z"/>
								</g>
							</g>
							<g>
								<path fill="#CDDC37" d="M55.22,94.192c-2.243,0-4.299-0.931-5.794-2.243c-1.496,1.313-3.552,2.243-5.794,2.243
									c-2.99,0-5.608-1.495-7.104-3.737c-1.493,2.241-4.111,3.553-7.101,3.553c-2.431,0-4.674-0.934-6.168-2.62
									c-1.495,1.497-3.738,2.62-6.167,2.62c-2.991,0-5.608-1.495-7.103-3.737c0,0.184-0.188,0.184-0.188,0.367
									c0,12.712,10.468,23.183,23.176,23.183c11.59,0,21.307-8.6,22.992-19.813C55.78,94.192,55.406,94.192,55.22,94.192z"/>
							</g>
						</g>
						<g>
							<g opacity="0.17">
								<path fill="#FEFFFF" d="M39.706,9.847c0,1.869-1.495,3.364-3.364,3.364c-1.868,0-3.365-1.494-3.365-3.364
									c0-1.872,1.496-3.365,3.365-3.365C38.212,6.482,39.706,7.977,39.706,9.847z"/>
							</g>
							<g opacity="0.53">
								<path fill="#FFFFFF" d="M47.934,7.233c0,1.452-1.162,2.614-2.613,2.614c-1.452,0-2.614-1.162-2.614-2.614
									s1.161-2.616,2.614-2.616C46.773,4.618,47.934,5.781,47.934,7.233z"/>
							</g>
							<g opacity="0.76">
								<path fill="#FEFFFF" d="M44.362,12.646c0,1.709-1.389,3.099-3.206,3.099c-1.709,0-3.205-1.39-3.098-3.206
									c0-1.709,1.389-3.099,3.206-3.099C42.973,9.44,44.362,10.829,44.362,12.646z"/>
							</g>
							<g opacity="0.54">
								<path fill="#FEFFFF" d="M39.021,3.666c0,1.301-1.101,2.303-2.301,2.303c-1.301,0-2.302-1.101-2.302-2.401
									c0-1.302,1.1-2.303,2.302-2.303C37.92,1.363,39.021,2.365,39.021,3.666z"/>
							</g>
							<g>
								<path fill="#FFFFFF" d="M35.594,20.105c0,2.539-2.079,4.615-4.731,4.615c-2.54,0-4.617-2.192-4.617-4.731
									c0-2.538,2.193-4.731,4.731-4.615C33.516,15.374,35.594,17.567,35.594,20.105z"/>
							</g>
						</g>
					</g>
				</g>
			</g>
		</g>
	</g>
	<g>
	</g>
</g>
</svg>
