<?xml version="1.0" encoding="utf-8"?>
<!-- Generator: Adobe Illustrator 15.0.0, SVG Export Plug-In . SVG Version: 6.00 Build 0)  -->
<!DOCTYPE svg PUBLIC "-//W3C//DTD SVG 1.1//EN" "http://www.w3.org/Graphics/SVG/1.1/DTD/svg11.dtd">
<svg version="1.1" xmlns="http://www.w3.org/2000/svg" xmlns:xlink="http://www.w3.org/1999/xlink" x="0px" y="0px" width="350px"
	 height="500px" viewBox="0 0 350 500" enable-background="new 0 0 350 500" xml:space="preserve">
<g id="Layer_2">
	<g>
		<rect fill="#0ABDD5" width="350" height="500"/>
	</g>
</g>
<g id="Layer_4" opacity="0.41">
	<g>
		<g>
			<path fill="#FFFFFF" d="M178.458,374.004v-29.509c0-1.173-0.948-2.121-2.115-2.121c-1.173,0-2.119,0.948-2.119,2.121v29.509
				c0,1.17,0.946,2.119,2.119,2.119C177.51,376.123,178.458,375.174,178.458,374.004z"/>
			<path fill="#FFFFFF" d="M188.939,367.589v-61.593c0-1.168-0.948-2.119-2.119-2.119c-1.17,0-2.118,0.951-2.118,2.119v61.596
				c0,1.168,0.948,2.119,2.118,2.119C187.993,369.711,188.939,368.76,188.939,367.589z"/>
			<path fill="#FFFFFF" d="M198.561,369.729v-13.26c0-1.17-0.946-2.119-2.119-2.119c-1.167,0-2.116,0.949-2.116,2.119v13.26
				c0,1.167,0.949,2.115,2.116,2.115C197.614,371.845,198.561,370.899,198.561,369.729z"/>
			<g>
				<circle fill="#FFFFFF" cx="172.492" cy="451.423" r="5.152"/>
				<path fill="#FFFFFF" d="M186.826,426.597c-3.315,0-6.014,2.69-6.014,6.008c0,3.316,2.695,6.007,6.014,6.007
					c3.313,0,6.006-2.69,6.006-6.007C192.832,429.287,190.137,426.597,186.826,426.597z"/>
				<circle fill="#FFFFFF" cx="196.441" cy="451.423" r="5.152"/>
				<path fill="#CDDC37" d="M226.886,468.179l-26.61-60.404v-23.931c0-1.173-0.945-2.118-2.119-2.118h-26.091
					c-0.583,0-1.146,0.243-1.547,0.67c-0.398,0.428-0.606,1.005-0.569,1.59l1.681,25.162l-25.039,59.419
					c-0.275,0.657-0.206,1.402,0.187,1.99c0.396,0.59,1.055,0.948,1.766,0.948h76.56c0.016,0,0.035,0.003,0.04,0
					c1.178,0,2.118-0.948,2.118-2.118C227.26,468.935,227.123,468.523,226.886,468.179z M172.492,460.811
					c-5.178,0-9.388-4.211-9.388-9.392c0-5.175,4.208-9.389,9.388-9.389c5.178,0,9.392,4.211,9.392,9.389
					C181.884,456.6,177.665,460.811,172.492,460.811z M176.575,432.604c0-5.647,4.598-10.245,10.251-10.245
					c5.646,0,10.243,4.598,10.243,10.245c0,5.646-4.598,10.244-10.243,10.244C181.173,442.849,176.575,438.25,176.575,432.604z
					 M196.441,460.811c-5.172,0-9.389-4.211-9.389-9.392c0-5.175,4.211-9.389,9.389-9.389c5.181,0,9.399,4.211,9.399,9.389
					C205.835,456.6,201.622,460.811,196.441,460.811z"/>
			</g>
		</g>
	</g>
</g>
<g id="Layer_3">
	<g id="Layer_8">
		<g>
			<g>
				<g>
					<circle opacity="0.3" fill="#FFFFFF" enable-background="new    " cx="-47.491" cy="276.207" r="9.051"/>
				</g>
			</g>
		</g>
		<g>
			<g>
				<g>
					<circle opacity="0.3" fill="#FFFFFF" enable-background="new    " cx="183.479" cy="250.763" r="11.938"/>
				</g>
			</g>
		</g>
		<g>
			<g>
				<g>
					<circle opacity="0.3" fill="#FFFFFF" enable-background="new    " cx="163.327" cy="225.007" r="3.374"/>
				</g>
			</g>
		</g>
		<g>
			<g>
				<g>
					<circle opacity="0.3" fill="#FFFFFF" enable-background="new    " cx="189.019" cy="217.346" r="8.13"/>
				</g>
			</g>
		</g>
		<g>
			<g>
				<g>
					<circle opacity="0.3" fill="#FFFFFF" enable-background="new    " cx="210.348" cy="239.643" r="12.167"/>
				</g>
			</g>
		</g>
		<g>
			<g>
				<g>
					<circle opacity="0.3" fill="#FFFFFF" enable-background="new    " cx="215.198" cy="207.342" r="4.613"/>
				</g>
			</g>
		</g>
		<g>
			<g>
				<g>
					<circle opacity="0.3" fill="#FFFFFF" enable-background="new    " cx="-40.054" cy="246.249" r="5.131"/>
				</g>
			</g>
		</g>
		<g>
			<g>
				<g>
					<circle opacity="0.3" fill="#FFFFFF" enable-background="new    " cx="-110.584" cy="199.609" r="6.793"/>
				</g>
			</g>
		</g>
		<g>
			<g>
				<g>
					<circle opacity="0.3" fill="#FFFFFF" enable-background="new    " cx="207.082" cy="217.346" r="5.638"/>
				</g>
			</g>
		</g>
		<g>
			<g>
				<g>
					<circle opacity="0.3" fill="#FFFFFF" enable-background="new    " cx="219.811" cy="269.818" r="15.095"/>
				</g>
			</g>
		</g>
		<g>
			<g>
				<g>
					<circle opacity="0.3" fill="#FFFFFF" enable-background="new    " cx="149.893" cy="269.878" r="18.588"/>
				</g>
			</g>
		</g>
		<g>
			<g>
				<g>
					<circle opacity="0.3" fill="#FFFFFF" enable-background="new    " cx="-104.614" cy="159.773" r="17.688"/>
				</g>
			</g>
		</g>
		<g>
			<g>
				<g>
					<circle opacity="0.3" fill="#FFFFFF" enable-background="new    " cx="181.984" cy="202.268" r="11.982"/>
				</g>
			</g>
		</g>
		<g>
			<g>
				<g>
					<circle opacity="0.3" fill="#FFFFFF" enable-background="new    " cx="161.461" cy="228.381" r="15.964"/>
				</g>
			</g>
		</g>
	</g>
</g>
<g id="Layer_5">
	<g id="chemistry">
		<g>
			<g>
				<g>
					<g>
						<g>
							<g>
								<g>
									<g>
										<g>
											<path fill="#FFFFFF" d="M278.579,66.559h-3.737c-0.188,0-0.375-0.188-0.375-0.373l0,0c0-0.188,0.187-0.374,0.375-0.374
												h3.737c0.188,0,0.372,0.186,0.372,0.374l0,0C278.951,66.372,278.767,66.559,278.579,66.559z"/>
										</g>
									</g>
									<g>
										<g>
											<path fill="#FFFFFF" d="M276.895,69.736h-2.241c-0.187,0-0.374-0.188-0.374-0.374l0,0c0-0.185,0.188-0.374,0.374-0.374
												h2.241c0.189,0,0.375,0.188,0.375,0.374l0,0C277.457,69.363,277.27,69.736,276.895,69.736z"/>
										</g>
									</g>
									<g>
										<g>
											<path fill="#FFFFFF" d="M276.895,72.728h-2.055c-0.187,0-0.375-0.187-0.375-0.374l0,0c0-0.187,0.188-0.371,0.375-0.371
												h2.244c0.186,0,0.373,0.184,0.373,0.371l0,0C277.457,72.541,277.27,72.728,276.895,72.728z"/>
										</g>
									</g>
									<g>
										<g>
											<path fill="#FFFFFF" d="M276.895,75.905h-2.055c-0.187,0-0.375-0.188-0.375-0.374l0,0c0-0.186,0.188-0.375,0.375-0.375
												h2.244c0.186,0,0.373,0.189,0.373,0.375l0,0C277.457,75.716,277.27,75.905,276.895,75.905z"/>
										</g>
									</g>
									<g>
										<g>
											<path fill="#FFFFFF" d="M278.579,79.082h-3.737c-0.188,0-0.375-0.188-0.375-0.375l0,0c0-0.186,0.187-0.373,0.375-0.373
												h3.737c0.188,0,0.372,0.187,0.372,0.373l0,0C278.951,78.895,278.767,79.082,278.579,79.082z"/>
										</g>
									</g>
									<g>
										<g>
											<path fill="#FFFFFF" d="M276.895,82.257h-2.055c-0.187,0-0.375-0.185-0.375-0.368l0,0c0-0.192,0.188-0.379,0.375-0.379
												h2.244c0.186,0,0.373,0.187,0.373,0.379l0,0C277.457,82.073,277.27,82.257,276.895,82.257z"/>
										</g>
									</g>
									<g>
										<g>
											<path fill="#FFFFFF" d="M276.895,85.437h-2.055c-0.187,0-0.375-0.188-0.375-0.376l0,0c0-0.186,0.188-0.371,0.375-0.371
												h2.244c0.186,0,0.373,0.186,0.373,0.371l0,0C277.457,85.25,277.27,85.437,276.895,85.437z"/>
										</g>
									</g>
									<g>
										<g>
											<path fill="#FFFFFF" d="M276.895,88.614h-2.241c-0.187,0-0.374-0.186-0.374-0.373l0,0c0-0.188,0.188-0.374,0.374-0.374
												h2.241c0.189,0,0.375,0.185,0.375,0.374l0,0C277.457,88.43,277.27,88.614,276.895,88.614z"/>
										</g>
									</g>
									<g>
										<g>
											<path fill="#FFFFFF" d="M278.579,91.793h-3.737c-0.188,0-0.375-0.189-0.375-0.378l0,0c0-0.185,0.187-0.372,0.375-0.372
												h3.737c0.188,0,0.372,0.188,0.372,0.372l0,0C278.951,91.604,278.767,91.793,278.579,91.793z"/>
										</g>
									</g>
								</g>
								<g>
									<path fill="#FFFFFF" d="M287.363,92.354V61.326l1.309-2.243c0.186-0.375,0.373-0.935,0.373-1.496V57.4
										c0-1.121-0.935-2.055-2.056-2.055h-16.262c-1.121,0-2.056,0.934-2.056,2.055v0.187c0,0.561,0.188,0.934,0.373,1.496
										l1.308,2.243v31.028c-11.96,3.736-20.185,14.764-20.185,27.285c0,15.892,12.709,28.787,28.598,28.787
										c15.887,0,28.596-12.71,28.782-28.598C307.549,107.304,299.325,96.09,287.363,92.354z M271.85,95.342
										c0.374-0.186,0.746-0.186,1.309-0.373l0.746-0.186V61.139c0-0.56-0.187-1.123-0.373-1.497l-0.562-0.934h12.337
										l-0.748,1.121c-0.186,0.374-0.375,0.935-0.375,1.495v33.642l0.748,0.188c0.375,0.185,0.748,0.185,1.308,0.371
										c10.655,3.18,18.132,13.274,18.132,24.3c0,14.019-11.402,25.417-25.421,25.233c-14.018,0-25.419-11.399-25.233-25.424
										C253.532,108.613,261.009,98.52,271.85,95.342z"/>
								</g>
							</g>
							<g>
								<path fill="#CDDC37" d="M301.195,123.191c-2.244,0-4.3-0.931-5.795-2.243c-1.496,1.313-3.553,2.243-5.795,2.243
									c-2.989,0-5.607-1.495-7.104-3.737c-1.492,2.241-4.111,3.553-7.101,3.553c-2.431,0-4.674-0.934-6.168-2.62
									c-1.495,1.497-3.737,2.62-6.167,2.62c-2.991,0-5.608-1.495-7.104-3.737c0,0.184-0.188,0.184-0.188,0.367
									c0,12.712,10.469,23.183,23.176,23.183c11.59,0,21.308-8.6,22.992-19.813C301.754,123.191,301.381,123.191,301.195,123.191z
									"/>
							</g>
						</g>
						<g>
							<g opacity="0.17">
								<path fill="#FFFFFF" d="M285.681,38.845c0,1.869-1.495,3.364-3.364,3.364c-1.867,0-3.365-1.494-3.365-3.364
									c0-1.872,1.496-3.365,3.365-3.365C284.188,35.481,285.681,36.975,285.681,38.845z"/>
							</g>
							<g opacity="0.53">
								<path fill="#FFFFFF" d="M293.908,36.232c0,1.452-1.162,2.614-2.613,2.614s-2.613-1.162-2.613-2.614s1.161-2.616,2.613-2.616
									C292.748,33.616,293.908,34.779,293.908,36.232z"/>
							</g>
							<g opacity="0.76">
								<path fill="#FFFFFF" d="M290.336,41.644c0,1.709-1.389,3.099-3.205,3.099c-1.709,0-3.205-1.39-3.099-3.206
									c0-1.709,1.39-3.099,3.206-3.099C288.947,38.438,290.336,39.828,290.336,41.644z"/>
							</g>
							<g opacity="0.54">
								<path fill="#FFFFFF" d="M284.996,32.665c0,1.301-1.102,2.303-2.302,2.303c-1.302,0-2.302-1.101-2.302-2.401
									c0-1.302,1.1-2.303,2.302-2.303C283.895,30.362,284.996,31.364,284.996,32.665z"/>
							</g>
							<g>
								<path fill="#FFFFFF" d="M281.568,49.104c0,2.539-2.078,4.615-4.73,4.615c-2.54,0-4.617-2.192-4.617-4.731
									c0-2.538,2.193-4.731,4.731-4.615C279.49,44.372,281.568,46.565,281.568,49.104z"/>
							</g>
						</g>
					</g>
				</g>
			</g>
		</g>
	</g>
</g>
</svg>
