<?xml version="1.0" encoding="utf-8"?>
<!-- Generator: Adobe Illustrator 15.0.0, SVG Export Plug-In . SVG Version: 6.00 Build 0)  -->
<!DOCTYPE svg PUBLIC "-//W3C//DTD SVG 1.1//EN" "http://www.w3.org/Graphics/SVG/1.1/DTD/svg11.dtd">
<svg version="1.1" xmlns="http://www.w3.org/2000/svg" xmlns:xlink="http://www.w3.org/1999/xlink" x="0px" y="0px" width="350px"
	 height="500px" viewBox="0 0 350 500" enable-background="new 0 0 350 500" xml:space="preserve">
<g id="Layer_2">
	<g>
		<rect fill="#FBBF15" width="350" height="500"/>
	</g>
</g>
<g id="Layer_4">
	<path opacity="0.37" fill="#FFFFFF" d="M160.148,337.391c-22.254,0-40.301,18.038-40.301,40.298v60.453
		c0,22.257,18.047,40.302,40.301,40.302c22.261,0,40.305-18.045,40.305-40.302v-60.453
		C200.453,355.429,182.409,337.391,160.148,337.391z"/>
	<path opacity="0.37" fill="#EA6344" d="M165.186,377.688c0,2.786-2.251,5.037-5.037,5.037c-2.785,0-5.037-2.251-5.037-5.037
		c0-2.782,2.252-5.037,5.037-5.037C162.935,372.651,165.186,374.906,165.186,377.688z"/>
	<g opacity="0.37">
		<circle fill="#FFFFFF" cx="160.152" cy="434.147" r="29.315"/>
		<path fill="#FCC016" d="M155.268,446.361c0,2.698,2.187,4.891,4.884,4.891c2.698,0,4.885-2.192,4.885-4.891
			s-2.187-4.884-4.885-4.884C157.454,441.478,155.268,443.663,155.268,446.361z"/>
		<g>
			<path fill="none" d="M147.001,430.294c-0.016,0.013-0.027,0.025-0.043,0.037C146.974,430.319,146.985,430.307,147.001,430.294z"
				/>
			<path fill="#FCC016" d="M165.773,440.749c0.693,0.69,1.901,0.69,2.592-0.006c0.712-0.718,0.709-1.88-0.01-2.592
				c-2.198-2.187-5.112-3.392-8.204-3.392c-3.091,0-6.005,1.205-8.203,3.392c-0.719,0.712-0.722,1.874-0.01,2.592
				c0.712,0.715,1.877,0.722,2.592,0.006c1.524-1.511,3.573-2.267,5.621-2.267C162.2,438.482,164.249,439.238,165.773,440.749z"/>
			<path fill="#FCC016" d="M173.54,435.565c0.715-0.719,0.712-1.88-0.004-2.592c-3.588-3.573-8.341-5.54-13.385-5.54
				c-5.043,0-9.796,1.967-13.384,5.54c-0.716,0.712-0.719,1.873-0.004,2.592c0.712,0.712,1.874,0.718,2.589,0.006
				c2.896-2.885,6.733-4.478,10.799-4.478c4.066,0,7.904,1.593,10.8,4.478C171.645,436.259,172.853,436.259,173.54,435.565z"/>
			<path fill="#FCC016" d="M160.151,420.101c-7.011,0-13.606,2.736-18.565,7.695c-0.347,0.35-0.537,0.806-0.537,1.299
				c0,0.487,0.19,0.949,0.537,1.293c0.716,0.712,1.874,0.712,2.589,0c4.27-4.272,9.943-6.62,15.977-6.62
				c6.034,0,11.708,2.348,15.978,6.62c0.693,0.693,1.896,0.693,2.589,0c0.347-0.344,0.537-0.806,0.537-1.293
				c0-0.493-0.19-0.949-0.537-1.299C173.759,422.837,167.163,420.101,160.151,420.101z"/>
		</g>
	</g>
	<g opacity="0.33">
		
			<rect x="192.712" y="208.671" transform="matrix(0.7071 -0.7071 0.7071 0.7071 -99.281 229.2788)" fill="#FFFFFF" width="68.83" height="51.626"/>
		<polygon fill="#FFFFFF" points="184.54,240.565 233.21,240.565 233.21,191.898 		"/>
		<polygon fill="#A7DAE8" points="233.21,191.898 233.21,240.565 184.54,240.565 187.581,243.607 218.002,243.607 218.005,274.031 
			221.044,277.072 221.044,243.607 236.256,243.607 236.252,228.402 269.715,228.402 266.673,225.36 236.252,225.355 
			236.252,194.939 		"/>
		<path fill="#1F5A7F" d="M248.868,200.574l-25.23,25.23c-1.432,1.434-1.432,3.757,0.004,5.191l25.227,25.226
			c1.434,1.435,3.757,1.435,5.19,0.002l25.231-25.228c1.431-1.434,1.429-3.757-0.005-5.191l-25.227-25.227
			C252.625,199.144,250.3,199.141,248.868,200.574z"/>
		<path fill="#E31E26" d="M257.549,194.939c3.358,3.358,3.358,8.81,0,12.169c-3.359,3.36-8.811,3.36-12.165,0
			c-3.365-3.362-3.365-8.811,0-12.169C248.738,191.579,254.187,191.578,257.549,194.939z"/>
		<g>
			<path fill="#FFFFFF" d="M250.861,197.202l-2.263,2.263l1.294,1.75c0.12-0.154,0.229-0.301,0.447-0.521
				c0.455-0.456,1.011-0.809,1.597-0.957c0.728-0.2,1.624-0.07,2.37,0.676c1.159,1.157,1.104,2.944-0.184,4.23
				c-0.646,0.652-1.376,1.016-1.841,1.116l-0.41-0.813c0.392-0.096,1.059-0.4,1.594-0.938c0.759-0.756,0.916-1.899,0.123-2.693
				c-0.78-0.758-1.834-0.793-3.02,0.394c-0.34,0.337-0.566,0.638-0.759,0.883l-2.46-3.228l2.834-2.835L250.861,197.202z"/>
		</g>
		<polygon fill="#FFFFFF" points="266.673,225.36 248.424,243.607 236.252,231.439 254.503,213.192 		"/>
		<path fill="#A7DAE8" d="M254.503,213.192v16.1c0.003,0.593-0.239,1.129-0.628,1.52c-0.392,0.388-0.927,0.635-1.52,0.631
			l-16.104-0.003l2.156,2.156h7.861l0.004,7.86l2.15,2.152l-0.002-10.013h3.934c1.147,0,2.229-0.448,3.043-1.259
			c0.813-0.813,1.255-1.897,1.255-3.044l0.005-3.932h10.015l-2.15-2.15l-7.864-0.005l-0.005-7.864L254.503,213.192z"/>
	</g>
</g>
<g id="Layer_3">
	<g>
		<path fill="#E4E5E5" d="M232.451,124.328c0,3.423,2.285,6.197,5.107,6.197h23.866c2.821,0,5.108-2.774,5.108-6.197v-9.505
			c0-3.422-2.287-6.197-5.108-6.197h-23.866c-2.822,0-5.107,2.775-5.107,6.197V124.328z"/>
		<path fill="#FFFFFF" d="M188.193,107.546c0,3.422,2.774,6.199,6.197,6.199h110.203c3.423,0,6.197-2.777,6.197-6.199V33.364
			c0-3.423-2.774-6.196-6.197-6.196H194.391c-3.423,0-6.197,2.773-6.197,6.196V107.546z"/>
		<path fill="#A6CBCC" d="M190.912,99.578c0,2.961,2.649,5.364,5.921,5.364h105.316c3.272,0,5.924-2.403,5.924-5.364V35.348
			c0-2.963-2.651-5.365-5.924-5.365H196.833c-3.271,0-5.921,2.402-5.921,5.365V99.578z"/>
		<polygon fill="#E4E5E5" points="232.487,125.05 266.496,125.05 282.706,136 216.279,136 		"/>
		<rect x="205.885" y="36.05" fill="#E4E5E5" width="90.366" height="10.192"/>
		<rect x="205.885" y="47.927" fill="#E4E5E5" width="90.366" height="1.813"/>
		<rect x="266.533" y="53.942" fill="#E4E5E5" width="29.718" height="2.264"/>
		<rect x="266.533" y="59.169" fill="#E4E5E5" width="29.718" height="2.266"/>
		<rect x="282.706" y="63.909" fill="#7FBFC7" width="13.545" height="13.545"/>
		<rect x="266.533" y="63.909" fill="#EA6344" width="13.546" height="13.545"/>
		<rect x="266.533" y="79.342" fill="#E4E5E5" width="29.718" height="7.477"/>
		<g>
			<polygon fill="#FAAC1C" points="216.117,73.76 228.409,70.938 238.668,79.014 249.521,73.307 260.696,77.853 260.696,86.819 
				204.979,86.819 204.979,62.809 			"/>
			<polygon fill="#E4E5E5" points="238.78,77.789 228.658,69.822 216.438,72.625 204.979,61.359 204.979,53.942 260.696,53.942 
				260.696,76.74 249.464,72.169 			"/>
			<polygon fill="#EA6344" points="238.668,79.014 228.409,70.938 216.117,73.76 204.979,62.809 204.979,61.359 216.438,72.625 
				228.658,69.822 238.78,77.789 249.464,72.169 260.696,76.74 260.696,77.853 249.521,73.307 			"/>
		</g>
		<rect x="291.546" y="90.918" fill="#FAAC1C" width="4.705" height="3.356"/>
		<rect x="291.546" y="96.339" fill="#EA6344" width="4.705" height="3.874"/>
		<rect x="204.979" y="91.462" fill="#E4E5E5" width="83.187" height="2.264"/>
		<rect x="204.979" y="97.142" fill="#E4E5E5" width="83.187" height="2.266"/>
	</g>
</g>
</svg>
