<?xml version="1.0" encoding="utf-8"?>
<!-- Generator: Adobe Illustrator 15.0.0, SVG Export Plug-In . SVG Version: 6.00 Build 0)  -->
<!DOCTYPE svg PUBLIC "-//W3C//DTD SVG 1.1//EN" "http://www.w3.org/Graphics/SVG/1.1/DTD/svg11.dtd">
<svg version="1.1" xmlns="http://www.w3.org/2000/svg" xmlns:xlink="http://www.w3.org/1999/xlink" x="0px" y="0px" width="300px"
	 height="100px" viewBox="0 0 300 100" enable-background="new 0 0 300 100" xml:space="preserve">
<g id="Layer_1">
	<g id="Layer_1_1_" opacity="0.54">
	</g>
	<g id="background">
		<g>
			<rect fill="#FDC00F" width="300" height="100"/>
		</g>
	</g>
	<g id="Layer_2">
		<g enable-background="new    ">
			<path fill="#FCFCFC" d="M98.925,36.305c-1.728,1.704-3.96,2.496-6.385,2.496c-6.24,0-8.88-4.296-8.904-8.664
				c-0.024-4.393,2.832-8.857,8.904-8.857c2.28,0,4.44,0.864,6.169,2.568l-2.112,2.04c-1.104-1.08-2.592-1.584-4.057-1.584
				c-4.056,0-5.808,3.024-5.784,5.833c0.024,2.784,1.632,5.688,5.784,5.688c1.464,0,3.121-0.601,4.225-1.704L98.925,36.305z"/>
			<path fill="#FCFCFC" d="M103.124,36.905c0,2.279-3.456,2.279-3.456,0C99.667,34.625,103.124,34.625,103.124,36.905z"/>
			<path fill="#FCFCFC" d="M116.132,25.672c-0.576-0.96-2.16-1.872-3.984-1.872c-2.352,0-3.48,0.984-3.48,2.232
				c0,1.464,1.728,1.872,3.744,2.112c3.504,0.432,6.769,1.344,6.769,5.352c0,3.745-3.313,5.353-7.057,5.353
				c-3.432,0-6.072-1.056-7.321-4.128l2.641-1.368c0.744,1.849,2.688,2.664,4.728,2.664c1.992,0,3.865-0.696,3.865-2.521
				c0-1.584-1.656-2.231-3.889-2.472c-3.432-0.408-6.601-1.32-6.601-5.089c0-3.456,3.408-4.872,6.505-4.896
				c2.616,0,5.328,0.744,6.601,3.337L116.132,25.672z"/>
			<path fill="#FCFCFC" d="M131.563,36.905c-1.368,1.344-2.808,1.872-4.56,1.872c-3.433,0-6.289-2.064-6.289-6.265
				s2.856-6.265,6.289-6.265c1.68,0,2.976,0.479,4.272,1.752l-1.848,1.944c-0.696-0.624-1.56-0.937-2.376-0.937
				c-1.968,0-3.408,1.44-3.408,3.505c0,2.256,1.536,3.456,3.36,3.456c0.936,0,1.872-0.264,2.592-0.984L131.563,36.905z"/>
			<path fill="#FCFCFC" d="M136.051,23.248c0,2.28-3.456,2.28-3.456,0S136.051,20.968,136.051,23.248z M132.858,26.536v11.881h2.928
				V26.536H132.858z"/>
			<path fill="#FCFCFC" d="M140.923,33.545c0.192,1.464,1.464,2.52,3.528,2.52c1.081,0,2.497-0.407,3.168-1.104l1.872,1.848
				c-1.248,1.296-3.288,1.921-5.088,1.921c-4.08,0-6.504-2.521-6.504-6.313c0-3.6,2.448-6.192,6.289-6.192
				c3.96,0,6.432,2.448,5.977,7.321H140.923z M147.355,31.12c-0.192-1.536-1.392-2.304-3.072-2.304c-1.584,0-2.88,0.768-3.312,2.304
				H147.355z"/>
			<path fill="#FCFCFC" d="M161.131,38.417v-6.192c0-1.801-0.984-3.168-2.856-3.168c-1.8,0-3.024,1.512-3.024,3.312v6.049h-2.904
				V26.56h2.617l0.191,1.608c1.2-1.176,2.4-1.776,3.889-1.776c2.784,0,5.016,2.089,5.016,5.809v6.217H161.131z"/>
			<path fill="#FCFCFC" d="M176.73,36.905c-1.367,1.344-2.808,1.872-4.56,1.872c-3.433,0-6.288-2.064-6.288-6.265
				s2.855-6.265,6.288-6.265c1.681,0,2.976,0.479,4.272,1.752l-1.849,1.944c-0.696-0.624-1.56-0.937-2.376-0.937
				c-1.969,0-3.408,1.44-3.408,3.505c0,2.256,1.536,3.456,3.36,3.456c0.937,0,1.872-0.264,2.593-0.984L176.73,36.905z"/>
			<path fill="#FCFCFC" d="M181.002,33.545c0.192,1.464,1.465,2.52,3.528,2.52c1.08,0,2.497-0.407,3.169-1.104l1.871,1.848
				c-1.248,1.296-3.287,1.921-5.088,1.921c-4.08,0-6.504-2.521-6.504-6.313c0-3.6,2.447-6.192,6.288-6.192
				c3.96,0,6.433,2.448,5.977,7.321H181.002z M187.435,31.12c-0.192-1.536-1.392-2.304-3.072-2.304c-1.584,0-2.88,0.768-3.312,2.304
				H187.435z"/>
		</g>
	</g>
	<g>
	</g>
</g>
<g id="Layer_3">
	<path fill="#FFFFFF" d="M282.918,59.576c-6.959,0-12.603,5.641-12.603,12.602v18.904c0,6.96,5.644,12.603,12.603,12.603
		c6.961,0,12.604-5.643,12.604-12.603V72.178C295.521,65.217,289.879,59.576,282.918,59.576z"/>
	<circle fill="#EA6244" cx="282.918" cy="72.178" r="1.575"/>
	<g>
		<circle fill="#FFFFFF" cx="282.919" cy="89.833" r="9.167"/>
		<circle fill="#FDC00F" cx="282.919" cy="93.652" r="1.527"/>
		<g>
			<path fill="none" d="M278.807,88.628c-0.005,0.004-0.009,0.008-0.014,0.012C278.798,88.636,278.802,88.632,278.807,88.628z"/>
			<path fill="#FDC00F" d="M284.677,91.897c0.217,0.216,0.595,0.216,0.811-0.002c0.223-0.225,0.222-0.588-0.003-0.811
				c-0.688-0.684-1.599-1.061-2.565-1.061s-1.878,0.377-2.565,1.061c-0.225,0.223-0.226,0.586-0.003,0.811
				c0.223,0.224,0.587,0.226,0.811,0.002c0.477-0.473,1.117-0.709,1.758-0.709S284.2,91.425,284.677,91.897z"/>
			<path fill="#FDC00F" d="M287.105,90.276c0.224-0.225,0.223-0.588-0.001-0.811c-1.122-1.117-2.608-1.732-4.186-1.732
				s-3.063,0.615-4.186,1.732c-0.224,0.223-0.225,0.586-0.001,0.811c0.223,0.223,0.586,0.225,0.81,0.002
				c0.905-0.902,2.105-1.4,3.377-1.4s2.472,0.498,3.377,1.4C286.513,90.493,286.891,90.493,287.105,90.276z"/>
			<path fill="#FDC00F" d="M282.919,85.44c-2.192,0-4.255,0.855-5.806,2.406c-0.108,0.109-0.168,0.252-0.168,0.406
				c0,0.152,0.06,0.297,0.168,0.404c0.224,0.223,0.586,0.223,0.81,0c1.335-1.336,3.109-2.07,4.996-2.07s3.661,0.734,4.996,2.07
				c0.217,0.217,0.593,0.217,0.81,0c0.108-0.107,0.168-0.252,0.168-0.404c0-0.154-0.06-0.297-0.168-0.406
				C287.174,86.296,285.111,85.44,282.919,85.44z"/>
		</g>
	</g>
	<g>
		
			<rect x="268.972" y="7.873" transform="matrix(0.7071 -0.7071 0.7071 0.7071 70.35 203.6972)" fill="#FFFFFF" width="24.156" height="18.118"/>
		<polygon fill="#FFFFFF" points="266.104,19.067 283.185,19.067 283.185,1.987 		"/>
		<polygon fill="#A6DAE8" points="283.185,1.987 283.185,19.067 266.104,19.067 267.171,20.134 277.847,20.134 277.848,30.811 
			278.915,31.878 278.915,20.134 284.253,20.134 284.252,14.797 295.995,14.797 294.928,13.73 284.252,13.729 284.252,3.054 		"/>
		<path fill="#1E597E" d="M288.68,5.032l-8.855,8.854c-0.502,0.503-0.502,1.318,0.002,1.821l8.854,8.854
			c0.503,0.503,1.318,0.503,1.821,0.001l8.854-8.854c0.503-0.503,0.502-1.318-0.001-1.821l-8.854-8.854
			C289.998,4.53,289.182,4.529,288.68,5.032z"/>
		<circle fill="#E50B0C" cx="289.591" cy="5.189" r="3.019"/>
		<g>
			<path fill="#FFFFFF" d="M289.379,3.848l-0.794,0.794l0.454,0.614c0.042-0.054,0.08-0.105,0.157-0.183
				c0.159-0.16,0.354-0.284,0.56-0.336c0.256-0.07,0.57-0.024,0.832,0.237c0.407,0.406,0.388,1.033-0.064,1.484
				c-0.227,0.229-0.482,0.356-0.646,0.392l-0.145-0.285c0.138-0.034,0.372-0.141,0.56-0.329c0.267-0.266,0.321-0.667,0.043-0.945
				c-0.273-0.266-0.644-0.278-1.06,0.139c-0.119,0.118-0.199,0.224-0.267,0.31l-0.863-1.133l0.995-0.995L289.379,3.848z"/>
		</g>
		
			<rect x="285.061" y="11.777" transform="matrix(0.7071 -0.7071 0.7071 0.7071 74.3559 209.1048)" fill="#FFFFFF" width="9.057" height="6.04"/>
		<path fill="#A6DAE8" d="M290.657,9.459v5.65c0.001,0.208-0.084,0.396-0.221,0.533c-0.138,0.137-0.325,0.223-0.533,0.222
			l-5.651-0.001l0.756,0.756h2.76l0.001,2.76l0.755,0.755l-0.001-3.515h1.381c0.402,0,0.782-0.157,1.067-0.441
			c0.285-0.285,0.441-0.666,0.441-1.068l0.001-1.38h3.515l-0.755-0.755l-2.76-0.001l-0.001-2.76L290.657,9.459z"/>
	</g>
</g>
<g id="Layer_2_1_">
	<g>
		<path fill="#E4E5E5" d="M31.4,94.639c0,2.027,1.354,3.67,3.025,3.67h14.134c1.67,0,3.025-1.643,3.025-3.67V89.01
			c0-2.026-1.354-3.67-3.025-3.67H34.425c-1.67,0-3.025,1.644-3.025,3.67V94.639z"/>
		<path fill="#FFFFFF" d="M5.191,84.7c0,2.026,1.643,3.671,3.67,3.671h65.262c2.027,0,3.67-1.645,3.67-3.671V40.77
			c0-2.027-1.643-3.669-3.67-3.669H8.861c-2.027,0-3.67,1.643-3.67,3.669V84.7z"/>
		<path fill="#A6CBCC" d="M6.8,79.981c0,1.754,1.57,3.177,3.507,3.177h62.368c1.938,0,3.507-1.423,3.507-3.177V41.945
			c0-1.755-1.57-3.177-3.507-3.177H10.308c-1.938,0-3.507,1.422-3.507,3.177V79.981z"/>
		<polygon fill="#E4E5E5" points="31.422,95.066 51.562,95.066 61.161,101.551 21.823,101.551 		"/>
		<rect x="15.668" y="42.36" fill="#E4E5E5" width="53.514" height="6.036"/>
		<rect x="15.668" y="49.394" fill="#E4E5E5" width="53.514" height="1.073"/>
		<rect x="51.584" y="52.956" fill="#E4E5E5" width="17.599" height="1.341"/>
		<rect x="51.584" y="56.052" fill="#E4E5E5" width="17.599" height="1.342"/>
		<rect x="61.161" y="58.858" fill="#7EBFC7" width="8.021" height="8.021"/>
		<rect x="51.584" y="58.858" fill="#EA6244" width="8.022" height="8.021"/>
		<rect x="51.584" y="67.998" fill="#E4E5E5" width="17.599" height="4.428"/>
		<g>
			<polygon fill="#FAAB1B" points="21.728,64.692 29.007,63.021 35.083,67.804 41.509,64.424 48.126,67.116 48.126,72.426 
				15.132,72.426 15.132,58.207 			"/>
			<polygon fill="#E4E5E5" points="35.149,67.078 29.155,62.36 21.918,64.021 15.132,57.349 15.132,52.956 48.126,52.956 
				48.126,66.457 41.476,63.75 			"/>
			<polygon fill="#EA6244" points="35.083,67.804 29.007,63.021 21.728,64.692 15.132,58.207 15.132,57.349 21.918,64.021 
				29.155,62.36 35.149,67.078 41.476,63.75 48.126,66.457 48.126,67.116 41.509,64.424 			"/>
		</g>
		<rect x="66.396" y="74.854" fill="#FAAB1B" width="2.787" height="1.987"/>
		<rect x="66.396" y="78.063" fill="#EA6244" width="2.787" height="2.294"/>
		<rect x="15.132" y="75.176" fill="#E4E5E5" width="49.263" height="1.341"/>
		<rect x="15.132" y="78.539" fill="#E4E5E5" width="49.263" height="1.342"/>
	</g>
</g>
</svg>
