<?xml version="1.0" encoding="utf-8"?>
<!-- Generator: Adobe Illustrator 15.0.0, SVG Export Plug-In . SVG Version: 6.00 Build 0)  -->
<!DOCTYPE svg PUBLIC "-//W3C//DTD SVG 1.1//EN" "http://www.w3.org/Graphics/SVG/1.1/DTD/svg11.dtd">
<svg version="1.1" xmlns="http://www.w3.org/2000/svg" xmlns:xlink="http://www.w3.org/1999/xlink" x="0px" y="0px" width="64px"
	 height="64px" viewBox="0 0 64 64" enable-background="new 0 0 64 64" xml:space="preserve">
<g id="Layer_1">
</g>
<g id="Layer_2">
	<path fill="#356732" d="M4.626,14.86L32.495,0.318L60.363,14.86v34.8L32.495,63.683L4.626,49.66V14.86z"/>
</g>
<g id="Layer_3">
	<path id="district" fill="#FFFFFF" d="M52.075,46.971l-8.134-8.161h5.336c0.462-0.001,0.836-0.376,0.835-0.837v-3.75
		c-0.001-1.44-0.772-2.77-2.021-3.485c0.306-0.442,0.469-0.967,0.468-1.504v-2.377c0.001-1.463-1.183-2.65-2.646-2.653H45
		c-0.597-0.001-1.18,0.187-1.664,0.538c-3.243-6.87-11.442-9.81-18.313-6.565c-2.855,1.348-5.16,3.639-6.527,6.486
		c-0.437-0.299-0.955-0.459-1.484-0.458H16.1c-1.583,0.004-2.864,1.289-2.864,2.871v1.939c0,0.604,0.19,1.191,0.544,1.68
		c-1.293,0.705-2.098,2.058-2.098,3.53v3.75c-0.001,0.461,0.373,0.836,0.834,0.837h7.247c4.1,5.669,11.804,7.354,17.895,3.912
		l9.326,9.356c0.324,0.326,0.852,0.327,1.178,0.004c0.001-0.001,0.002-0.003,0.003-0.004l3.91-3.924
		C52.399,47.828,52.396,47.3,52.075,46.971z M45,25.878h0.913c0.539,0.001,0.976,0.438,0.976,0.978v2.375
		c0,0.54-0.437,0.978-0.976,0.979H45c-0.114,0-0.227-0.017-0.336-0.049c-0.046-1.273-0.269-2.533-0.661-3.743
		C44.224,26.081,44.599,25.878,45,25.878z M44.621,31.885h1.491c1.289,0.003,2.331,1.048,2.33,2.337v2.912h-5.363
		C43.939,35.504,44.463,33.721,44.621,31.885z M14.906,27.073c0-0.659,0.533-1.195,1.193-1.197h0.913
		c0.328,0,0.633,0.165,0.813,0.438c-0.417,1.254-0.652,2.565-0.696,3.887c-0.039,0.005-0.077,0.008-0.117,0.008H16.1
		c-0.66-0.002-1.193-0.538-1.193-1.197V27.073z M13.353,37.134v-2.912c0-1.289,1.042-2.335,2.331-2.337h1.492
		c0.159,1.836,0.684,3.62,1.545,5.249h-5.365H13.353z M47.574,50.301l-9.194-9.226c-0.276-0.276-0.707-0.324-1.036-0.115
		c-5.673,3.584-13.179,1.891-16.764-3.783c-3.584-5.672-1.891-13.178,3.783-16.762c5.673-3.585,13.179-1.892,16.763,3.782
		c2.537,4.017,2.502,9.143-0.091,13.124c-0.217,0.331-0.173,0.77,0.107,1.051l9.161,9.19L47.574,50.301z M30.896,20.626
		c-5.551-0.018-10.066,4.468-10.084,10.02c-0.018,5.551,4.468,10.067,10.019,10.085c5.551,0.018,10.067-4.469,10.084-10.02
		c0-0.012,0-0.021,0-0.033C40.921,25.139,36.437,20.64,30.896,20.626z M30.896,39.055c-2.432,0-4.742-1.064-6.323-2.911
		c0.196-1.589,1.629-2.432,3.234-2.646l2.385,3.76c0.246,0.389,0.761,0.505,1.15,0.259c0.104-0.065,0.192-0.155,0.259-0.259
		l2.385-3.76c1.605,0.214,3.038,1.057,3.234,2.646C35.639,37.99,33.328,39.055,30.896,39.055L30.896,39.055z M31.167,31.767h-0.542
		c-1.341,0-1.942-1.146-1.942-2.283v-1.466c0-1.136,0.601-2.283,1.942-2.283h0.542c1.342,0,1.943,1.147,1.943,2.283v1.466
		C33.11,30.621,32.51,31.768,31.167,31.767L31.167,31.767z M32.038,33.441l-1.145,1.806l-1.145-1.806H32.038z M34.133,31.827
		c0.434-0.704,0.656-1.516,0.644-2.342v-1.466c0-2.293-1.52-3.958-3.612-3.958h-0.543c-2.09,0-3.611,1.665-3.611,3.958v1.466
		c-0.014,0.826,0.209,1.638,0.642,2.342c-1.965,0.235-3.483,1.179-4.243,2.564c-2.046-4.133-0.354-9.142,3.78-11.187
		c4.133-2.045,9.143-0.354,11.187,3.779c1.156,2.334,1.156,5.074,0,7.408c-0.753-1.385-2.273-2.329-4.239-2.564H34.133z
		 M30.893,14.944c0.462-0.001,0.835-0.376,0.835-0.837v-1.592c0.001-0.461-0.371-0.837-0.833-0.838
		c-0.46-0.002-0.835,0.37-0.839,0.832c0,0.002,0,0.004,0,0.007v1.592C30.057,14.568,30.433,14.943,30.893,14.944
		c0.002,0,0.002,0,0.003,0H30.893z M38.359,16.951c0.397,0.231,0.906,0.096,1.138-0.301c0.001-0.002,0.001-0.003,0.002-0.005
		l0.794-1.378c0.231-0.4,0.096-0.911-0.305-1.142c-0.399-0.231-0.91-0.094-1.141,0.305l0,0l-0.794,1.377
		c-0.229,0.402-0.091,0.914,0.31,1.145H38.359z M22.287,16.645c0.222,0.404,0.731,0.55,1.136,0.328
		c0.404-0.223,0.55-0.732,0.327-1.136c-0.005-0.01-0.011-0.02-0.017-0.03l-0.793-1.377c-0.223-0.405-0.731-0.551-1.136-0.328
		c-0.404,0.222-0.55,0.73-0.328,1.135c0.006,0.011,0.012,0.02,0.017,0.03L22.287,16.645z"/>
</g>
</svg>
