<?xml version="1.0" encoding="utf-8"?>
<!-- Generator: Adobe Illustrator 15.0.0, SVG Export Plug-In . SVG Version: 6.00 Build 0)  -->
<!DOCTYPE svg PUBLIC "-//W3C//DTD SVG 1.1//EN" "http://www.w3.org/Graphics/SVG/1.1/DTD/svg11.dtd">
<svg version="1.1" id="Layer_1" xmlns="http://www.w3.org/2000/svg"  x="0px" y="0px"
	 width="24px" height="24px" viewBox="0 0 24 24" enable-background="new 0 0 24 24" xml:space="preserve">
<path id="grade" fill="#FFFFFF" d="M17.432,2.851c-0.199-0.001-0.358,0.16-0.361,0.359v1.52c0,0.2,0.162,0.361,0.361,0.361
	s0.36-0.162,0.36-0.361V3.21C17.791,3.01,17.63,2.85,17.432,2.851z M22.788,23.596c-0.164-1.688-0.584-3.339-1.247-4.896
	c-0.536-1.313-1.354-2.486-2.396-3.441c-0.918-0.813-2.043-1.349-3.25-1.553c2.448-1.674,3.651-4.657,3.051-7.563
	c0.054-0.063,0.082-0.145,0.082-0.228V2.131h1.391v2.373c-0.5,0.195-0.748,0.756-0.554,1.255c0.034,0.089,0.081,0.173,0.142,0.249
	c-0.508,0.573-0.508,1.726-0.508,2.165c-0.001,0.33,0.025,0.659,0.079,0.984c0.028,0.173,0.179,0.299,0.354,0.299h1.693
	c0.175,0,0.325-0.126,0.355-0.298c0.055-0.326,0.08-0.656,0.08-0.985c0-0.439,0-1.592-0.508-2.165
	c0.33-0.421,0.258-1.03-0.164-1.361c-0.076-0.06-0.158-0.107-0.248-0.142V2.131h0.118c0.584,0.013,1.067-0.451,1.08-1.035
	c0.013-0.583-0.45-1.066-1.034-1.078c-0.016,0-0.029,0-0.046,0H2.154C1.57,0.006,1.087,0.469,1.075,1.053
	C1.063,1.637,1.525,2.12,2.109,2.131c0.015,0,0.03,0,0.044,0h2.23v3.782c0,0.085,0.029,0.166,0.084,0.231
	C4.366,6.637,4.314,7.14,4.314,7.643c0,2.426,1.2,4.695,3.205,6.063c-1.207,0.202-2.333,0.739-3.25,1.551
	c-1.042,0.956-1.861,2.132-2.396,3.442c-0.663,1.56-1.084,3.212-1.247,4.896c-0.015,0.199,0.134,0.371,0.333,0.385
	c0.009,0.002,0.018,0.002,0.026,0.002h21.447c0.198-0.002,0.358-0.164,0.356-0.362C22.789,23.611,22.789,23.604,22.788,23.596z
	 M9.719,16.189l-1.927-1.804c0.267-0.038,0.537-0.061,0.808-0.067c0.792,0.367,1.643,0.591,2.514,0.658L9.719,16.189z M6.938,14.574
	l2.526,2.365c0.135,0.125,0.344,0.129,0.484,0.008l1.397-1.215v7.531H1.383c0.188-1.478,0.577-2.922,1.155-4.295
	c1.03-2.361,2.51-3.841,4.399-4.398L6.938,14.574L6.938,14.574z M2.153,0.738h19.105c0.188,0,0.338,0.151,0.338,0.338
	s-0.15,0.339-0.338,0.339l0,0H2.154c-0.188,0-0.34-0.152-0.34-0.34s0.152-0.34,0.34-0.34L2.153,0.738z M20.777,5.668
	c-0.144-0.001-0.258-0.117-0.256-0.259c0-0.142,0.117-0.256,0.258-0.254c0.143,0,0.256,0.116,0.256,0.257
	c-0.001,0.141-0.117,0.254-0.258,0.254V5.668z M20.777,6.386c0.361,0,0.561,0.634,0.561,1.786c0,0.189-0.009,0.379-0.029,0.566
	h-1.064c-0.018-0.187-0.028-0.376-0.027-0.566c0-1.154,0.2-1.788,0.563-1.788L20.777,6.386z M10.958,6.273
	c-0.682,1.34-2.198,3.005-5.561,3.53C5.156,9.108,5.033,8.377,5.033,7.642c0.001-0.46,0.048-0.917,0.142-1.369H10.958z M5.104,5.556
	V2.133h13.201v3.423H5.104L5.104,5.556z M12.432,6.273h5.802c0.095,0.451,0.142,0.909,0.142,1.369c0,0.748-0.126,1.49-0.375,2.196
	C14.616,9.304,13.105,7.622,12.432,6.273L12.432,6.273z M9.917,8.68c0.755-0.617,1.363-1.395,1.779-2.276
	c0.386,0.831,0.945,1.569,1.635,2.171c1.253,1.042,2.772,1.715,4.387,1.943c-1.608,3.32-5.605,4.707-8.925,3.098
	c-1.364-0.662-2.462-1.765-3.114-3.132c1.546-0.221,3.009-0.843,4.239-1.807L9.917,8.68z M12.296,14.98
	c0.872-0.068,1.722-0.293,2.515-0.66c0.271,0.008,0.539,0.029,0.807,0.068l-1.928,1.803L12.296,14.98z M12.066,15.732l1.397,1.215
	c0.066,0.058,0.148,0.09,0.236,0.09c0.093,0,0.182-0.035,0.248-0.098l2.523-2.365c1.891,0.559,3.372,2.037,4.4,4.396
	c0.577,1.372,0.966,2.817,1.154,4.295h-9.96L12.066,15.732L12.066,15.732z"/>
</svg>
