<?xml version="1.0" encoding="utf-8"?>
<!-- Generator: Adobe Illustrator 15.0.0, SVG Export Plug-In . SVG Version: 6.00 Build 0)  -->
<!DOCTYPE svg PUBLIC "-//W3C//DTD SVG 1.1//EN" "http://www.w3.org/Graphics/SVG/1.1/DTD/svg11.dtd">
<svg version="1.1" id="Layer_1" xmlns="http://www.w3.org/2000/svg" xmlns:xlink="http://www.w3.org/1999/xlink" x="0px" y="0px"
	 width="100px" height="100px" viewBox="0 0 100 100" enable-background="new 0 0 100 100" xml:space="preserve">
<g id="Layer_1_1_">
	<g>
		<circle fill="#C2001B" cx="50" cy="50" r="49.9"/>
	</g>
</g>
<g id="Layer_3">
</g>
<g id="Layer_2">
	<g>
		<path fill="#FFFFFF" d="M39.6,80.3V77h-4.1v3.4h-1.6V72h1.6v3.5h4.1V72h1.6v8.4h-1.6V80.3z"/>
		<path fill="#FFFFFF" d="M48.4,77.4c0,1.699-1.2,3.1-3.1,3.1c-1.9,0-3.1-1.4-3.1-3.1c0-1.7,1.2-3.101,3.1-3.101
			C47.2,74.3,48.4,75.7,48.4,77.4z M43.7,77.4c0,0.899,0.5,1.699,1.6,1.699c1.1,0,1.6-0.8,1.6-1.699c0-0.9-0.6-1.801-1.6-1.801
			S43.7,76.5,43.7,77.4z"/>
		<path fill="#FFFFFF" d="M53.4,80.3v-3.2c0-0.8-0.4-1.5-1.2-1.5s-1.3,0.7-1.3,1.5v3.2h-1.5V74.4h1.4L50.9,75.1
			c0.3-0.6,1-0.8,1.6-0.8c0.7,0,1.4,0.3,1.8,1.101c0.5-0.801,1.2-1.101,2-1.101c1.7,0,2.5,1,2.5,2.8v3.2h-1.5v-3.2
			c0-0.8-0.3-1.399-1.1-1.399s-1.3,0.7-1.3,1.5v3.2h-1.5V80.3z"/>
		<path fill="#FFFFFF" d="M61.4,77.9c0.1,0.699,0.699,1.3,1.8,1.3c0.5,0,1.2-0.2,1.6-0.601l0.9,0.9c-0.601,0.6-1.601,1-2.5,1
			c-2,0-3.3-1.3-3.3-3.2c0-1.8,1.199-3.1,3.1-3.1c2,0,3.2,1.2,3,3.7H61.4L61.4,77.9z M64.7,76.7c-0.101-0.8-0.7-1.2-1.5-1.2
			s-1.4,0.4-1.7,1.2H64.7z"/>
	</g>
</g>
<g id="home">
	<path fill="#FFFFFF" d="M73.563,43.517c-0.406,0.433-1.092,0.455-1.525,0.051L49.911,22.907c-0.433-0.405-1.144-0.405-1.578,0
		L26.762,43.017c-0.436,0.406-1.12,0.381-1.526-0.054l-2.209-2.37c-0.405-0.432-0.381-1.12,0.053-1.524l25.256-23.546
		c0.437-0.405,1.146-0.405,1.582,0.003l25.804,24.096c0.434,0.405,0.459,1.093,0.053,1.527L73.563,43.517z"/>
	<path fill="#FFFFFF" d="M49.121,26.636L30.937,43.588v17.575c0,0.596,0.49,1.087,1.088,1.087h11.952V47.014
		c0-0.598,0.49-1.088,1.089-1.088h8.706c0.6,0,1.088,0.49,1.088,1.088V62.25h11.99c0.602,0,1.088-0.491,1.088-1.087V44.208
		L49.121,26.636z"/>
	<path fill="#FFFFFF" d="M67.865,17.787c0-0.598-0.49-1.089-1.09-1.089h-6.527c-0.598,0-1.088,0.491-1.088,1.089v1.901l8.705,8.198
		V17.787L67.865,17.787z"/>
</g>
</svg>
