<?xml version="1.0" encoding="utf-8"?>
<!-- Generator: Adobe Illustrator 15.0.0, SVG Export Plug-In . SVG Version: 6.00 Build 0)  -->
<!DOCTYPE svg PUBLIC "-//W3C//DTD SVG 1.1//EN" "http://www.w3.org/Graphics/SVG/1.1/DTD/svg11.dtd">
<svg version="1.1" id="Layer_1" xmlns="http://www.w3.org/2000/svg" xmlns:xlink="http://www.w3.org/1999/xlink" x="0px" y="0px"
	 width="300px" height="100px" viewBox="0 0 300 100" enable-background="new 0 0 300 100" xml:space="preserve">
<g id="Layer_1_1_" opacity="0.54">
</g>
<g id="background">
	<g>
		<rect fill="#5F7D8B" width="300" height="100"/>
	</g>
</g>
<g id="arrow" opacity="0.08">
	<g>
		<g>
			<g>
				<polygon points="112.334,49.751 112.334,49.751 103.627,58.458 103.627,65.238 109.936,58.93 109.936,73.143 114.731,73.143 
					114.731,58.93 121.041,65.238 121.041,58.458 				"/>
			</g>
		</g>
	</g>
	<g>
		<g>
			<g>
				<polygon points="87.22,98.01 87.22,98.01 80.164,105.066 80.164,110.563 85.277,105.448 85.277,116.967 89.163,116.967 
					89.163,105.448 94.276,110.563 94.276,105.066 				"/>
			</g>
			<g>
				<polygon points="87.652,94.271 87.652,94.271 84.098,97.826 84.098,100.596 86.674,98.02 86.674,103.82 88.631,103.82 
					88.631,98.02 91.207,100.596 91.207,97.826 				"/>
			</g>
			<g>
				<polygon points="114.117,68.76 114.117,68.76 105.661,77.215 105.661,83.8 111.788,77.673 111.788,91.475 116.444,91.475 
					116.444,77.673 122.572,83.8 122.572,77.215 				"/>
			</g>
			<g>
				<polygon points="82.711,66.286 82.711,66.286 78.292,70.705 78.292,74.146 81.494,70.943 81.494,78.157 83.928,78.157 
					83.928,70.943 87.129,74.146 87.129,70.705 				"/>
			</g>
			<g>
				<polygon points="88.281,52.563 88.281,52.563 82.939,57.904 82.939,62.064 86.81,58.193 86.81,66.915 89.752,66.915 
					89.752,58.193 93.624,62.064 93.624,57.904 				"/>
			</g>
		</g>
	</g>
	<g opacity="0.13">
		<g>
			<g>
				<polygon points="105.333,114.984 105.333,114.984 99.811,120.508 99.811,124.811 103.813,120.809 103.813,129.822 
					106.854,129.822 106.854,120.809 110.856,124.811 110.856,120.508 				"/>
			</g>
		</g>
	</g>
</g>
<g id="Layer_7">
	<path fill="#F1F3F7" d="M74.621,9.846H8.641c-1.852,0-3.45,1.515-3.45,3.45v92.743c0,1.852,1.515,3.449,3.45,3.449h65.98
		c1.852,0,3.45-1.514,3.45-3.449V13.296C78.071,11.445,76.556,9.846,74.621,9.846z"/>
	<rect x="14.49" y="20.072" fill="#3AE6F2" width="55.628" height="18.346"/>
	<rect x="14.49" y="36.65" fill="#E0E0E0" width="55.628" height="1.767"/>
	<g>
		<rect x="13.858" y="45.951" fill="#FFCE04" width="12.876" height="12.875"/>
		<rect x="35.234" y="45.951" fill="#FAA736" width="12.877" height="12.875"/>
		<rect x="56.612" y="45.951" fill="#FFCE04" width="12.875" height="12.875"/>
		<rect x="13.858" y="66.482" fill="#FAA736" width="12.876" height="12.879"/>
		<rect x="35.234" y="66.482" fill="#FFCE04" width="12.877" height="12.879"/>
		<rect x="56.612" y="66.482" fill="#FAA736" width="12.875" height="12.879"/>
		<rect x="13.858" y="87.02" fill="#FFCE04" width="12.876" height="12.875"/>
		<rect x="35.234" y="87.02" fill="#FAA736" width="12.877" height="12.875"/>
		<rect x="56.612" y="87.02" fill="#FFCE04" width="12.875" height="12.875"/>
	</g>
</g>
<g>
	<g id="Layer_8">
		<path fill="#FFCE04" d="M263.589,25.203c-0.614,0-1.228-0.235-1.694-0.703l-19.59-19.589c-0.937-0.936-0.937-2.454,0-3.39
			l13.559-13.56c0.938-0.936,2.455-0.936,3.392,0L278.844,7.55c0.938,0.936,0.938,2.454,0,3.39L265.285,24.5
			C264.816,24.968,264.202,25.203,263.589,25.203z"/>
		<path fill="#FAA736" d="M296.736,58.352c-0.612,0-1.228-0.233-1.693-0.701l-19.59-19.59c-0.45-0.45-0.703-1.06-0.703-1.695
			c0-0.636,0.253-1.247,0.703-1.695l13.559-13.558c0.937-0.936,2.453-0.936,3.391,0l19.59,19.589c0.938,0.935,0.938,2.453,0,3.389
			L298.434,57.65C297.964,58.117,297.352,58.352,296.736,58.352z"/>
		<g>
			<path fill="#ED8823" d="M297.111,25.82l-6.076,6.078c-0.938,0.936-0.938,2.454,0,3.39c0.467,0.468,1.081,0.701,1.693,0.701
				s1.228-0.233,1.694-0.701l6.077-6.078L297.111,25.82z"/>
			<path fill="#ED8823" d="M270.743-0.549l-6.078,6.078c-0.937,0.936-0.937,2.454,0,3.39c0.468,0.468,1.082,0.702,1.694,0.702
				c0.613,0,1.228-0.234,1.695-0.702l6.077-6.078L270.743-0.549z"/>
		</g>
		<path fill="#F0542D" d="M305.203,10.707c-0.637,0-1.247-0.252-1.695-0.702l-13.56-13.559c-0.448-0.448-0.701-1.059-0.701-1.694
			c0-0.636,0.253-1.246,0.701-1.695l3.108-3.107c2.26-2.264,5.271-3.511,8.475-3.511c1.556,0,3.072,0.295,4.509,0.877
			c1.487,0.604,2.821,1.49,3.965,2.632l0,0c2.265,2.262,3.511,5.271,3.511,8.475s-1.246,6.214-3.511,8.476l-3.106,3.107
			C306.448,10.454,305.838,10.707,305.203,10.707z"/>
		<path fill="#CB3027" d="M303.507,10.004c0.449,0.45,1.062,0.702,1.696,0.702s1.245-0.252,1.693-0.702l3.107-3.107
			c2.264-2.262,3.512-5.271,3.512-8.475s-1.248-6.213-3.512-8.475L296.729,3.225L303.507,10.004z"/>
		<path fill="#3AE6F2" d="M247.675,36.316c-0.002,0.616,0.231,1.232,0.702,1.702l13.559,13.558c0.449,0.447,1.06,0.701,1.694,0.701
			c0.638,0,1.245-0.254,1.695-0.701c0,0,35.627-35.627,43.267-43.267C305.287,5.004,291.645-8.64,291.645-8.64l-43.268,43.267
			C247.911,35.094,247.677,35.704,247.675,36.316z"/>
		<path fill="#2DC5D0" d="M255.521,44.433c2.896-2.897,22.115-22.117,22.115-22.117l22.48-22.481l3.391,3.39
			c0,0,5.084,5.084,5.084,5.085l-22.48,22.481l-20.785,20.786c-0.225,0.225-0.489,0.399-0.777,0.521
			c-0.288,0.12-0.6,0.182-0.917,0.182s-0.629-0.063-0.917-0.182c-0.288-0.121-0.553-0.296-0.777-0.521l-3.391-3.39l-3.389-3.389
			C255.156,44.797,255.284,44.669,255.521,44.433z"/>
		<path id="SVGCleanerId_0" fill="#FFCE04" d="M243.747,58.604c-1.317,0-2.397-1.068-2.397-2.396c0-0.189,0.022-0.382,0.069-0.571
			c0.037-0.151,6.362-20.035,6.326-19.884c0.264-1.078,1.231-1.826,2.327-1.826c0.615,0,1.23,0.24,1.693,0.703l6.661,6.738
			l6.897,6.82c0.441,0.441,0.701,1.047,0.701,1.695c0,1.101-0.75,2.063-1.824,2.328c-0.256,0.063-20.035,6.362-19.885,6.325
			C244.131,58.58,243.939,58.604,243.747,58.604z"/>
		<g>
			<path id="SVGCleanerId_0_1_" fill="#FFCE04" d="M243.747,58.604c-1.317,0-2.397-1.068-2.397-2.396
				c0-0.189,0.022-0.382,0.069-0.571c0.037-0.151,6.362-20.035,6.326-19.884c0.264-1.078,1.231-1.826,2.327-1.826
				c0.615,0,1.23,0.24,1.693,0.703l6.661,6.738l6.897,6.82c0.441,0.441,0.701,1.047,0.701,1.695c0,1.101-0.75,2.063-1.824,2.328
				c-0.256,0.063-20.035,6.362-19.885,6.325C244.131,58.58,243.939,58.604,243.747,58.604z"/>
		</g>
		<path fill="#FAA736" d="M266.027,49.881c0-0.648-0.262-1.254-0.702-1.695l-6.818-6.74L242.053,57.9
			c0.576,0.576,1.432,0.839,2.266,0.634c-0.15,0.036,19.629-6.263,19.885-6.325C265.277,51.945,266.027,50.98,266.027,49.881z"/>
		<path fill="#E0E0E0" d="M243.521,48.995c-1.149,3.62-2.09,6.582-2.104,6.64c-0.047,0.189-0.068,0.383-0.068,0.571
			c0,1.328,1.078,2.397,2.396,2.397c0.191,0,0.384-0.023,0.57-0.069c-0.061,0.015,2.94-0.943,6.627-2.117L243.521,48.995z"/>
		<path fill="#F1F3F7" d="M247.24,52.713L247.24,52.713l-5.188,5.188c0.435,0.437,1.033,0.703,1.694,0.703
			c0.191,0,0.384-0.022,0.57-0.068c-0.061,0.015,2.94-0.943,6.627-2.117L247.24,52.713z"/>
	</g>
	<g id="Layer_10">
		<path fill="#FFCE04" d="M291.258,57.542l-13.551-13.551c-0.137-0.136-0.34-0.177-0.518-0.103
			c-0.176,0.073-0.293,0.246-0.293,0.438v13.551c0,0.262,0.213,0.475,0.475,0.475h13.552c0.191,0,0.364-0.115,0.438-0.293
			C291.434,57.881,291.395,57.678,291.258,57.542z M284.494,55.214c-0.073,0.179-0.246,0.293-0.438,0.293h-3.841
			c-0.262,0-0.474-0.212-0.474-0.474v-3.842c0-0.19,0.115-0.363,0.292-0.438c0.178-0.072,0.382-0.031,0.517,0.104l3.842,3.84
			C284.527,54.833,284.566,55.037,284.494,55.214z"/>
		<path fill="#FAA736" d="M291.359,58.059c0.074-0.178,0.033-0.381-0.103-0.517l-6.774-6.774l-2.012,2.01l1.92,1.921
			c0.137,0.136,0.176,0.34,0.104,0.517c-0.073,0.178-0.246,0.293-0.438,0.293h-3.841c-0.131,0-0.249-0.053-0.335-0.139l-2.844,2.845
			c0.085,0.085,0.203,0.14,0.334,0.14h13.552C291.114,58.352,291.287,58.234,291.359,58.059z"/>
		<g>
			<path fill="#F8981E" d="M284.161,50.445l-0.913,0.913c-0.186,0.186-0.186,0.484,0,0.67c0.093,0.094,0.214,0.14,0.335,0.14
				s0.242-0.046,0.335-0.14l0.913-0.912L284.161,50.445z"/>
			<path fill="#F8981E" d="M281.775,48.807c-0.186,0.186-0.186,0.486,0,0.671c0.093,0.093,0.215,0.139,0.336,0.139
				s0.242-0.046,0.334-0.139l0.375-0.373l-0.672-0.671L281.775,48.807z"/>
			<path fill="#F8981E" d="M279.227,47.336c-0.187,0.185-0.187,0.485,0,0.67c0.092,0.093,0.213,0.139,0.334,0.139
				s0.242-0.046,0.336-0.139l0.912-0.913l-0.67-0.67L279.227,47.336z"/>
		</g>
		<g>
			<path fill="#ED8823" d="M288.184,54.468l-0.912,0.912c-0.187,0.187-0.187,0.485,0,0.671c0.092,0.092,0.213,0.139,0.334,0.139
				s0.242-0.047,0.336-0.139l0.912-0.912L288.184,54.468z"/>
			<path fill="#ED8823" d="M286.172,52.456l-0.373,0.373c-0.186,0.187-0.186,0.485,0,0.671c0.092,0.093,0.215,0.139,0.335,0.139
				c0.121,0,0.242-0.046,0.335-0.139l0.374-0.373L286.172,52.456z"/>
			<path fill="#ED8823" d="M284.482,50.768l-1.248,1.246c0.005,0.006,0.009,0.01,0.014,0.016c0.093,0.093,0.214,0.139,0.335,0.139
				s0.242-0.046,0.335-0.139l0.913-0.913L284.482,50.768z"/>
		</g>
	</g>
	<g id="Layer_10_copy">
		<path fill="#FFCE04" d="M256.096,22.157L242.544,8.606c-0.136-0.136-0.34-0.177-0.517-0.103c-0.178,0.073-0.293,0.246-0.293,0.438
			v13.551c0,0.262,0.211,0.475,0.474,0.475h13.552c0.191,0,0.364-0.116,0.438-0.293C256.271,22.496,256.23,22.292,256.096,22.157z
			 M249.331,19.829c-0.073,0.178-0.246,0.293-0.438,0.293h-3.84c-0.262,0-0.474-0.212-0.474-0.474v-3.841
			c0-0.191,0.114-0.364,0.292-0.438c0.178-0.073,0.382-0.032,0.518,0.103l3.84,3.84C249.363,19.448,249.404,19.652,249.331,19.829z"
			/>
		<path fill="#FAA736" d="M256.197,22.673c0.072-0.178,0.033-0.381-0.104-0.517l-6.775-6.775l-2.012,2.011l1.922,1.92
			c0.136,0.136,0.176,0.34,0.103,0.517c-0.073,0.178-0.246,0.293-0.438,0.293h-3.84c-0.131,0-0.248-0.053-0.335-0.139l-2.844,2.845
			c0.085,0.085,0.203,0.139,0.334,0.139h13.552C255.951,22.966,256.124,22.85,256.197,22.673z"/>
		<g>
			<path fill="#F8981E" d="M248.998,15.06l-0.913,0.912c-0.187,0.186-0.187,0.485,0,0.671c0.093,0.093,0.214,0.139,0.335,0.139
				s0.242-0.046,0.335-0.139l0.913-0.913L248.998,15.06z"/>
			<path fill="#F8981E" d="M246.613,13.421c-0.187,0.186-0.187,0.486,0,0.671c0.092,0.093,0.214,0.139,0.335,0.139
				c0.12,0,0.241-0.046,0.335-0.139l0.374-0.373l-0.671-0.671L246.613,13.421z"/>
			<path fill="#F8981E" d="M244.063,11.951c-0.186,0.185-0.186,0.485,0,0.67c0.094,0.093,0.215,0.139,0.336,0.139
				s0.242-0.046,0.334-0.139l0.914-0.913l-0.67-0.67L244.063,11.951z"/>
		</g>
		<g>
			<path fill="#ED8823" d="M253.021,19.083l-0.914,0.912c-0.186,0.186-0.186,0.485,0,0.671c0.093,0.092,0.215,0.139,0.336,0.139
				s0.242-0.047,0.334-0.139l0.914-0.913L253.021,19.083z"/>
			<path fill="#ED8823" d="M251.009,17.071l-0.372,0.373c-0.187,0.186-0.187,0.486,0,0.671c0.092,0.093,0.213,0.139,0.334,0.139
				s0.242-0.046,0.336-0.139l0.373-0.373L251.009,17.071z"/>
			<path fill="#ED8823" d="M249.318,15.381l-1.248,1.247c0.006,0.005,0.01,0.01,0.015,0.015c0.093,0.093,0.214,0.139,0.335,0.139
				s0.242-0.046,0.335-0.139l0.913-0.913L249.318,15.381z"/>
		</g>
	</g>
	<g id="Layer_9">
		<path fill="#3AE6F2" d="M296.366,79.255H282.35c-0.646,0-1.168-0.522-1.168-1.169V64.068c0-0.646,0.521-1.168,1.168-1.168
			c8.373,0,15.187,6.813,15.187,15.186C297.535,78.73,297.012,79.255,296.366,79.255z"/>
		<path fill="#2DC5D0" d="M282.35,79.255h14.018c0.646,0,1.169-0.522,1.169-1.169c0-4.186-1.703-7.982-4.453-10.732l-11.56,11.561
			C281.732,79.124,282.025,79.255,282.35,79.255z"/>
		<path fill="#FFCE04" d="M276.896,98.725c-8.373,0-15.187-6.813-15.187-15.186c0-8.374,6.813-15.188,15.187-15.188
			c0.646,0,1.168,0.522,1.168,1.168V82.37h12.851c0.646,0,1.169,0.522,1.169,1.169C292.084,91.912,285.271,98.725,276.896,98.725z"
			/>
		<path fill="#FAA736" d="M276.896,98.725c8.373,0,15.187-6.813,15.187-15.186c0-0.646-0.522-1.169-1.168-1.169h-12.851
			l-11.9,11.901C268.914,97.021,272.711,98.725,276.896,98.725z"/>
	</g>
</g>
<g id="Layer_2">
	<g>
		<path fill="#FFFFFF" d="M98.756,26.248l-5.473,7.296H92.66l-5.353-7.32v12.217h-3.168V21.64h3.648l5.256,7.225L98.3,21.64h3.625
			v16.801h-3.168V26.248z"/>
		<path fill="#FFFFFF" d="M114.308,26.584h2.809v11.833h-2.76l-0.144-1.728c-0.672,1.392-2.521,2.064-3.84,2.088
			c-3.504,0.024-6.097-2.136-6.097-6.289c0-4.08,2.712-6.216,6.168-6.192c1.584,0,3.096,0.744,3.769,1.92L114.308,26.584z
			 M107.203,32.488c0,2.256,1.56,3.601,3.504,3.601c4.608,0,4.608-7.177,0-7.177C108.763,28.912,107.203,30.232,107.203,32.488z"/>
		<path fill="#FFFFFF" d="M123.211,23.248v3.36h3.264v2.521h-3.288v5.112c0,1.128,0.624,1.68,1.536,1.68
			c0.456,0,0.984-0.144,1.416-0.36l0.816,2.497c-0.84,0.336-1.536,0.48-2.424,0.504c-2.568,0.096-4.249-1.368-4.249-4.32v-5.112
			h-2.208v-2.521h2.208V23.56L123.211,23.248z"/>
		<path fill="#FFFFFF" d="M131.586,21.616v6.576c1.056-1.368,2.353-1.776,3.696-1.776c3.36,0,4.849,2.28,4.849,5.76v6.241h-2.928
			v-6.216c0-2.161-1.128-3.072-2.688-3.072c-1.728,0-2.928,1.464-2.928,3.24v6.048h-2.928V21.616H131.586z"/>
		<path fill="#FFFFFF" d="M150.331,29.728c-0.84-0.792-1.8-1.056-2.928-1.056c-1.393,0-2.161,0.432-2.161,1.176
			c0,0.768,0.696,1.2,2.208,1.296c2.232,0.144,5.065,0.648,5.065,3.792c0,2.088-1.705,3.889-5.089,3.889
			c-1.873,0-3.745-0.312-5.473-2.112l1.44-2.088c0.84,0.936,2.76,1.632,4.081,1.656c1.104,0.024,2.136-0.552,2.136-1.416
			c0-0.816-0.672-1.152-2.352-1.248c-2.232-0.168-4.896-0.984-4.896-3.672c0-2.736,2.832-3.696,4.992-3.696
			c1.848,0,3.241,0.36,4.608,1.56L150.331,29.728z"/>
	</g>
</g>
</svg>
