<?xml version="1.0" encoding="utf-8"?>
<!-- Generator: Adobe Illustrator 15.0.0, SVG Export Plug-In . SVG Version: 6.00 Build 0)  -->
<!DOCTYPE svg PUBLIC "-//W3C//DTD SVG 1.1//EN" "http://www.w3.org/Graphics/SVG/1.1/DTD/svg11.dtd">
<svg version="1.1" id="Layer_1" xmlns="http://www.w3.org/2000/svg"  x="0px" y="0px"
	 width="24px" height="24px" viewBox="0 0 24 24" enable-background="new 0 0 24 24" xml:space="preserve">
<path id="name" fill="#FFFFFF" d="M22.669,9.351h-6.414V7.802c-0.026-2.35-1.95-4.235-4.301-4.209
	C9.64,3.617,7.77,5.486,7.745,7.802v1.549H1.332C0.623,9.35,0.046,9.922,0.042,10.63v12.089c0.002,0.71,0.58,1.283,1.29,1.281
	h21.337c0.709,0.002,1.286-0.571,1.289-1.281V10.63C23.955,9.922,23.377,9.35,22.669,9.351z M20.902,15.093
	c-0.003,0.331-0.27,0.595-0.599,0.595h-6.202c-0.328,0.01-0.603-0.249-0.611-0.576c-0.01-0.329,0.248-0.603,0.577-0.612
	c0.01,0,0.021,0,0.034,0h6.202C20.632,14.499,20.898,14.764,20.902,15.093L20.902,15.093z M17.779,11.332
	c0.328-0.01,0.603,0.248,0.612,0.576c0.009,0.328-0.249,0.602-0.577,0.611c-0.012,0-0.023,0-0.035,0h-3.678
	c-0.328,0.01-0.603-0.249-0.611-0.576c-0.01-0.328,0.248-0.602,0.577-0.611c0.01-0.001,0.021-0.001,0.034,0H17.779z M12,5.418
	c0.934,0.006,1.685,0.767,1.679,1.7c-0.006,0.933-0.767,1.684-1.7,1.678C11.05,8.791,10.3,8.037,10.3,7.108
	c0.001-0.936,0.762-1.692,1.698-1.69C11.999,5.418,11.999,5.418,12,5.418z M11.648,20.509c-0.004,0.928-0.759,1.679-1.687,1.677
	H3.54c-0.929,0.002-1.684-0.748-1.688-1.677V12.84c0.004-0.93,0.759-1.68,1.688-1.678h6.419c0.929-0.001,1.684,0.748,1.688,1.678
	v7.667l0,0L11.648,20.509z M21.766,22.021h-3.677c-0.328,0.008-0.603-0.249-0.611-0.577c-0.01-0.328,0.249-0.602,0.576-0.612
	c0.012,0,0.022,0,0.035,0h3.676c0.33-0.009,0.604,0.249,0.612,0.577s-0.249,0.602-0.576,0.612
	C21.789,22.022,21.776,22.022,21.766,22.021L21.766,22.021z M21.766,18.853h-7.664c-0.328,0.011-0.603-0.249-0.611-0.576
	c-0.01-0.328,0.248-0.603,0.577-0.61c0.01-0.001,0.021-0.001,0.034,0h7.663c0.33-0.011,0.604,0.247,0.612,0.576
	c0.009,0.328-0.249,0.601-0.576,0.61C21.789,18.854,21.776,18.854,21.766,18.853L21.766,18.853z M9.958,11.955H3.54
	c-0.49,0-0.889,0.396-0.892,0.885v7.669c0.003,0.49,0.401,0.886,0.892,0.885h6.419c0.491,0.001,0.889-0.395,0.891-0.885V12.84
	C10.848,12.35,10.449,11.955,9.958,11.955L9.958,11.955z M6.747,12.67c1.136,0,2.059,1.206,2.059,2.69
	c0,1.485-0.923,2.691-2.059,2.691c-1.135,0-2.058-1.207-2.058-2.691c0-1.483,0.924-2.69,2.06-2.69H6.747z M9.73,20.487
	c-0.063,0.075-0.155,0.117-0.252,0.117H4.018c-0.098,0-0.19-0.042-0.252-0.117c-0.063-0.074-0.09-0.172-0.072-0.268
	c0.133-0.74,0.537-1.406,1.132-1.866c0.015-0.011,0.028-0.028,0.045-0.043c1.041,1.028,2.713,1.028,3.754,0
	c0.013,0.016,0.029,0.03,0.045,0.043c0.594,0.462,0.997,1.127,1.131,1.866c0.017,0.095-0.008,0.193-0.069,0.268H9.73z"/>
</svg>
