<?xml version="1.0" encoding="utf-8"?>
<!-- Generator: Adobe Illustrator 15.0.0, SVG Export Plug-In . SVG Version: 6.00 Build 0)  -->
<!DOCTYPE svg PUBLIC "-//W3C//DTD SVG 1.1//EN" "http://www.w3.org/Graphics/SVG/1.1/DTD/svg11.dtd">
<svg version="1.1" xmlns="http://www.w3.org/2000/svg" xmlns:xlink="http://www.w3.org/1999/xlink" x="0px" y="0px" width="200px"
	 height="200px" viewBox="0 0 200 200" enable-background="new 0 0 200 200" xml:space="preserve">
<g id="Layer_1">
	<g>
		<path fill="#5F889E" d="M113.637,62.875h6.188v4.817c0.476-0.03,0.955-0.049,1.436-0.049c12.181,0,22.227,9.321,23.371,21.209
			c0.584-0.031,1.164-0.044,1.742-0.044c1.934,0,3.83,0.16,5.683,0.453V62.875h6.188c1.039,0,2.027-0.617,2.447-1.634
			c0.423-1.021,0.16-2.151-0.575-2.887l-22.301-22.305c-0.478-0.479-1.146-0.777-1.875-0.777s-1.394,0.299-1.875,0.777
			l-22.306,22.305c-0.732,0.736-0.995,1.867-0.572,2.887C111.612,62.258,112.596,62.875,113.637,62.875z"/>
		<path fill="#5F889E" d="M146.374,93.041c-2.063,0-4.079,0.204-6.031,0.582c0.105-0.818,0.166-1.651,0.166-2.498
			c0-10.63-8.62-19.249-19.249-19.249c-3.891,0-7.505,1.155-10.53,3.138C105.8,61.227,92.625,51.36,77.143,51.36
			c-19.693,0-35.664,15.966-35.664,35.664c0,1.405,0.091,2.789,0.252,4.156c-6.648,0.589-11.863,6.167-11.863,12.969
			c0,3.048,1.048,5.844,2.801,8.064c-6.454,4.325-10.704,11.684-10.704,20.037c0,13.318,10.795,24.113,24.113,24.113h26.906
			L61.259,144.64c-1.974-1.971-2.56-4.917-1.49-7.499c1.067-2.58,3.565-4.246,6.356-4.246h1.955v-25.353
			c0-1.837,0.716-3.563,2.016-4.864c1.303-1.303,3.028-2.018,4.867-2.018h26.933c1.838,0,3.566,0.715,4.867,2.018
			c1.299,1.297,2.016,3.029,2.016,4.864v25.353h1.954c2.793,0,5.29,1.667,6.357,4.249c1.07,2.577,0.484,5.521-1.49,7.496
			l-11.725,11.725h42.496c17.484,0,31.662-14.174,31.662-31.662C178.036,107.215,163.858,93.041,146.374,93.041z"/>
		<path fill="#5F889E" d="M113.183,138.761c-0.42-1.019-1.407-1.634-2.447-1.634h-6.186v-29.586c0-0.677-0.264-1.355-0.78-1.87
			c-0.514-0.519-1.191-0.777-1.871-0.777H74.965c-0.678,0-1.354,0.259-1.872,0.777c-0.521,0.515-0.777,1.193-0.777,1.87v29.586
			h-6.189c-1.04,0-2.024,0.615-2.447,1.634c-0.42,1.021-0.161,2.152,0.575,2.887l22.305,22.304c0.479,0.479,1.142,0.777,1.872,0.777
			c0.733,0,1.394-0.299,1.875-0.777l22.305-22.304C113.346,140.913,113.606,139.782,113.183,138.761z"/>
	</g>
</g>
<g id="Layer_2">
	<path fill="#FFFFFF" d="M88.432,143.825c-1.306,0-2.367-1.06-2.367-2.366v-18.937c0-1.308,1.061-2.368,2.367-2.368
		c1.307,0,2.368,1.061,2.368,2.368v18.937C90.799,142.766,89.739,143.825,88.432,143.825z"/>
	<path fill="#FFFFFF" d="M88.432,153.294c-0.616,0-1.231-0.261-1.68-0.687c-0.426-0.45-0.687-1.065-0.687-1.681
		s0.26-1.23,0.687-1.681c0.9-0.876,2.461-0.876,3.361,0c0.426,0.45,0.687,1.065,0.687,1.681s-0.261,1.23-0.687,1.681
		C89.662,153.033,89.071,153.294,88.432,153.294z"/>
</g>
<g id="Layer_2_copy">
	<path fill="#FFFFFF" d="M135.941,47.327c0.616,0,1.117,0.5,1.117,1.117v8.937c0,0.617-0.501,1.118-1.117,1.118
		s-1.117-0.5-1.117-1.118v-8.937C134.824,47.827,135.325,47.327,135.941,47.327z"/>
	<path fill="#FFFFFF" d="M135.941,42.858c0.29,0,0.581,0.123,0.793,0.324c0.201,0.212,0.324,0.502,0.324,0.793
		s-0.123,0.581-0.324,0.793c-0.425,0.414-1.162,0.414-1.587,0c-0.201-0.212-0.323-0.502-0.323-0.793s0.122-0.581,0.323-0.793
		C135.36,42.981,135.64,42.858,135.941,42.858z"/>
</g>
<g id="Layer_4">
	<g>
		<g>
			<path fill="#5F889E" d="M180.232,115.344c1.352-0.268,2.709-0.507,4-1c1.043-0.398,0.591-2.091-0.465-1.688
				c-1.291,0.493-2.649,0.732-4,1C178.661,113.875,179.131,115.562,180.232,115.344L180.232,115.344z"/>
		</g>
	</g>
	<g>
		<g>
			<path fill="#5F889E" d="M181.559,122.756c0.485,0.218,1.02,0.284,1.5,0.5c0.435,0.195,0.937,0.13,1.197-0.314
				c0.221-0.378,0.121-1.002-0.314-1.197c-0.485-0.218-1.02-0.284-1.5-0.5c-0.435-0.195-0.937-0.13-1.197,0.314
				C181.023,121.937,181.123,122.561,181.559,122.756L181.559,122.756z"/>
		</g>
	</g>
	<g>
		<g>
			<path fill="#5F889E" d="M180.559,129.006c0.684,0.47,1.366,1.161,1.598,1.977c0.308,1.084,1.996,0.623,1.688-0.465
				c-0.36-1.271-1.337-2.292-2.402-3.023C180.509,126.854,179.635,128.371,180.559,129.006L180.559,129.006z"/>
		</g>
	</g>
	<g>
		<g>
			<path fill="#5F889E" d="M68.434,46.561c0.022,0.654,0.219,1.201,0.568,1.752c0.335,0.53,1.723-0.006,1.329-0.627
				c-0.24-0.379-0.417-0.792-0.432-1.248C69.874,45.698,68.414,45.943,68.434,46.561L68.434,46.561z"/>
		</g>
	</g>
	<g>
		<g>
			<path fill="#5F889E" d="M58.99,48.935c0.315,0.458,0.685,0.875,1,1.333c0.237,0.346,1.642-0.116,1.354-0.536
				c-0.315-0.458-0.685-0.875-1-1.333C60.105,48.053,58.701,48.515,58.99,48.935L58.99,48.935z"/>
		</g>
	</g>
	<g>
		<g>
			<path fill="#5F889E" d="M52.27,53.564c0.522,0.348,1.045,0.679,1.638,0.895c0.566,0.207,1.702-0.608,0.852-0.918
				c-0.493-0.18-0.927-0.483-1.362-0.772C52.908,52.443,51.611,53.125,52.27,53.564L52.27,53.564z"/>
		</g>
	</g>
	<g>
		<g>
			<path fill="#5F889E" d="M18.691,145.631c0.725-0.468,1.186-1.132,1.689-1.814c0.284-0.385,0.064-0.976-0.314-1.197
				c-0.445-0.26-0.914-0.068-1.197,0.314c-0.316,0.428-0.606,0.892-1.061,1.186C16.864,144.729,17.74,146.244,18.691,145.631
				L18.691,145.631z"/>
		</g>
	</g>
	<g>
		<g>
			<path fill="#5F889E" d="M23.5,148.625c1.128,0,1.128-1.75,0-1.75S22.372,148.625,23.5,148.625L23.5,148.625z"/>
		</g>
	</g>
	<g>
		<g>
			<path fill="#5F889E" d="M27.256,151.381c-0.55,0.442-0.944,1.055-1.262,1.678c-0.512,1.003,0.998,1.889,1.511,0.883
				c0.258-0.506,0.541-0.964,0.988-1.322c0.373-0.3,0.31-0.929,0-1.238C28.129,151.017,27.628,151.083,27.256,151.381
				L27.256,151.381z"/>
		</g>
	</g>
</g>
</svg>
