<?xml version="1.0" encoding="utf-8"?>
<!-- Generator: Adobe Illustrator 15.0.0, SVG Export Plug-In . SVG Version: 6.00 Build 0)  -->
<!DOCTYPE svg PUBLIC "-//W3C//DTD SVG 1.1//EN" "http://www.w3.org/Graphics/SVG/1.1/DTD/svg11.dtd">
<svg version="1.1" xmlns="http://www.w3.org/2000/svg" xmlns:xlink="http://www.w3.org/1999/xlink" x="0px" y="0px" width="64px"
	 height="64px" viewBox="0 0 64 64" enable-background="new 0 0 64 64" xml:space="preserve">
<g id="Layer_1">
</g>
<g id="Layer_2">
	<path fill="#981C1F" d="M4.626,14.86L32.495,0.318L60.363,14.86v34.8L32.495,63.683L4.626,49.66V14.86z"/>
</g>
<g id="Layer_5">
	<path fill="#16B268" d="M45.917,17.75c-3.869,0-3.869,6,0,6S49.786,17.75,45.917,17.75z"/>
</g>
<g id="Layer_5_copy">
	<path fill="#16B268" d="M19.083,17.75c-3.869,0-3.869,6,0,6S22.953,17.75,19.083,17.75z"/>
</g>
<g id="Layer_5_copy_2">
	<path fill="#FFCE09" d="M36.125,15.75c-0.14,0-0.257,0.033-0.365,0.074c-0.452-0.882-1.229-1.589-2.354-1.835
		c-0.021-0.041-0.049-0.077-0.074-0.114c0.029-0.521-0.284-1.063-0.957-1.063c-0.748,0-1.048,0.67-0.929,1.235
		c-0.926,0.243-1.605,0.804-2.049,1.511c-0.123-0.057-0.265-0.09-0.429-0.09c-1.224,0-1.271,1.781-0.173,1.965
		c-0.072,0.978,0.174,1.983,0.749,2.763c-0.61,0.516-0.416,1.772,0.612,1.772c0.476,0,0.774-0.274,0.898-0.618
		c0.423,0.162,0.899,0.259,1.439,0.259c0.376,0,0.714-0.056,1.033-0.138c0.116,0.361,0.417,0.653,0.91,0.653
		c0.94,0,1.187-1.058,0.756-1.634c0.68-0.737,1.024-1.745,1.02-2.759C37.404,17.633,37.381,15.75,36.125,15.75z"/>
</g>
<g id="Layer_4">
	<path id="over_all" fill="#FFFFFF" d="M47.719,27.665h-6.055v-0.854c0.006-0.507-0.401-0.923-0.908-0.929H24.229
		c-0.507,0.006-0.914,0.422-0.908,0.929v0.854H17.27c-0.507,0.006-0.914,0.422-0.908,0.93v4.205
		c-0.006,1.138,0.438,2.232,1.233,3.044c0.781,0.807,1.856,1.26,2.979,1.258h2.98c0.851,3.881,4.081,6.787,8.029,7.225v4.18h-2.436
		c-1.423,0.018-2.563,1.184-2.55,2.605v1.527c-0.006,0.508,0.401,0.924,0.909,0.93h9.969c0.507-0.006,0.914-0.422,0.909-0.93v-1.525
		c0.013-1.422-1.128-2.588-2.551-2.605H33.4v-4.18c3.948-0.438,7.178-3.344,8.028-7.225h2.979c2.352-0.027,4.236-1.953,4.214-4.304
		v-4.207C48.627,28.088,48.224,27.674,47.719,27.665z M36.572,51.113v0.6h-8.148v-0.6c-0.004-0.408,0.323-0.742,0.731-0.746h6.688
		C36.251,50.373,36.576,50.707,36.572,51.113z M23.326,35.246h-2.751c-0.639,0-1.25-0.26-1.693-0.719
		c-0.453-0.463-0.705-1.084-0.702-1.731v-3.277h5.144v5.725l0,0L23.326,35.246z M39.85,35.002c0.082,4.063-3.144,7.42-7.204,7.502
		c-4.062,0.084-7.422-3.143-7.504-7.205c-0.001-0.1-0.001-0.197,0-0.297V27.74h14.707L39.85,35.002L39.85,35.002z M41.667,29.522
		h5.145v3.277c0.013,1.337-1.061,2.431-2.396,2.447h-2.751v-5.724H41.667z M28.636,18.986l-0.682,3.677
		c-0.065,0.352,0.073,0.71,0.359,0.925c0.283,0.211,0.663,0.235,0.971,0.063l3.213-1.798l3.212,1.798
		c0.308,0.173,0.688,0.148,0.971-0.063c0.287-0.215,0.427-0.573,0.36-0.925l-0.682-3.677l2.664-2.562
		c0.257-0.25,0.349-0.623,0.239-0.964c-0.104-0.339-0.396-0.587-0.749-0.635l-3.634-0.473l-1.563-3.386
		c-0.2-0.454-0.731-0.659-1.186-0.458c-0.204,0.09-0.368,0.254-0.458,0.458l-1.564,3.386l-3.634,0.473
		c-0.352,0.048-0.644,0.296-0.749,0.635c-0.109,0.341-0.017,0.714,0.24,0.964L28.636,18.986z M30.835,16.126
		c0.311-0.041,0.578-0.239,0.707-0.524l0.955-2.065l0.954,2.065c0.129,0.284,0.396,0.482,0.706,0.524l2.218,0.29l-1.629,1.565
		c-0.228,0.22-0.328,0.539-0.271,0.849l0.416,2.245l-1.96-1.098c-0.271-0.152-0.603-0.152-0.874,0l-1.961,1.098l0.416-2.245
		c0.059-0.31-0.043-0.629-0.27-0.849l-1.628-1.565L30.835,16.126z M51.32,18.771c-0.105-0.339-0.397-0.587-0.749-0.635l-2.62-0.342
		l-1.128-2.44c-0.2-0.454-0.731-0.659-1.186-0.459c-0.205,0.091-0.368,0.254-0.459,0.459l-1.127,2.44l-2.62,0.342
		c-0.353,0.048-0.645,0.295-0.75,0.635c-0.109,0.34-0.017,0.713,0.24,0.962l1.923,1.851l-0.491,2.652
		c-0.066,0.352,0.073,0.709,0.358,0.924c0.283,0.212,0.664,0.236,0.972,0.063L46,23.925l2.316,1.297
		c0.308,0.174,0.688,0.148,0.972-0.063c0.285-0.215,0.425-0.572,0.358-0.924l-0.491-2.652l1.924-1.851
		C51.336,19.485,51.428,19.112,51.32,18.771L51.32,18.771z M47.546,20.581c-0.227,0.22-0.328,0.538-0.271,0.849l0.227,1.219
		l-1.064-0.599c-0.271-0.152-0.604-0.152-0.875,0l-1.064,0.599l0.227-1.219c0.058-0.311-0.044-0.629-0.271-0.849L43.57,19.73
		l1.204-0.157c0.311-0.042,0.577-0.24,0.707-0.524L46,17.926l0.518,1.122c0.13,0.284,0.397,0.482,0.708,0.524l1.204,0.157
		L47.546,20.581z M18.99,23.926l2.315,1.296c0.309,0.174,0.689,0.148,0.972-0.063c0.287-0.215,0.426-0.572,0.36-0.924l-0.491-2.652
		l1.923-1.849c0.256-0.251,0.349-0.624,0.239-0.964c-0.105-0.339-0.397-0.587-0.749-0.635l-2.621-0.342l-1.127-2.44
		c-0.201-0.454-0.731-0.659-1.186-0.459c-0.205,0.091-0.368,0.254-0.459,0.459l-1.127,2.44l-2.62,0.342
		c-0.353,0.048-0.646,0.296-0.75,0.635c-0.109,0.34-0.017,0.713,0.239,0.962l1.924,1.851l-0.492,2.652
		c-0.065,0.352,0.073,0.709,0.359,0.924c0.283,0.212,0.664,0.236,0.972,0.063L18.99,23.926z M17.766,19.573
		c0.31-0.042,0.576-0.24,0.706-0.524l0.519-1.122l0.519,1.122c0.13,0.284,0.396,0.482,0.707,0.524l1.204,0.157l-0.884,0.851
		c-0.227,0.22-0.328,0.538-0.27,0.849l0.226,1.219l-1.065-0.599c-0.271-0.152-0.602-0.152-0.873,0l-1.064,0.599l0.226-1.219
		c0.058-0.311-0.044-0.629-0.271-0.849l-0.884-0.851L17.766,19.573z"/>
</g>
</svg>
