<?xml version="1.0" encoding="utf-8"?>
<!-- Generator: Adobe Illustrator 15.0.0, SVG Export Plug-In . SVG Version: 6.00 Build 0)  -->
<!DOCTYPE svg PUBLIC "-//W3C//DTD SVG 1.1//EN" "http://www.w3.org/Graphics/SVG/1.1/DTD/svg11.dtd">
<svg version="1.1" id="Layer_1" xmlns="http://www.w3.org/2000/svg" xmlns:xlink="http://www.w3.org/1999/xlink" x="0px" y="0px"
	 width="24px" height="24px" viewBox="0 0 24 24" enable-background="new 0 0 24 24" xml:space="preserve">
<g>
	<g>
		<defs>
			<filter id="Adobe_OpacityMaskFilter" filterUnits="userSpaceOnUse" x="0.708" y="19.479" width="21.71" height="3.14">
				<feColorMatrix  type="matrix" values="1 0 0 0 0  0 1 0 0 0  0 0 1 0 0  0 0 0 1 0"/>
			</filter>
		</defs>
		<mask maskUnits="userSpaceOnUse" x="0.708" y="19.479" width="21.71" height="3.14" id="SVGID_1_">
			<g filter="url(#Adobe_OpacityMaskFilter)">
				<g>
					<defs>
						<rect id="SVGID_2_" x="0.708" y="19.479" width="21.71" height="3.14"/>
					</defs>
					<clipPath id="SVGID_3_">
						<use xlink:href="#SVGID_2_"  overflow="visible"/>
					</clipPath>
					<rect x="0.651" y="19.469" clip-path="url(#SVGID_3_)" width="21.813" height="3.159"/>
					<g enable-background="new    ">
						<g>
							<defs>
								<path id="SVGID_4_" d="M0.708,21.07c0.051-0.867,4.949-1.58,10.945-1.591c5.994-0.011,10.811,0.683,10.765,1.553
									c-0.023,0.864-4.928,1.576-10.932,1.587C5.481,22.628,0.651,21.937,0.708,21.07"/>
							</defs>
							<clipPath id="SVGID_5_" clip-path="url(#SVGID_3_)">
								<use xlink:href="#SVGID_4_"  overflow="visible"/>
							</clipPath>
							
								<radialGradient id="SVGID_6_" cx="-384.6113" cy="422.2012" r="0.1016" gradientTransform="matrix(-106.5007 0.1869 -0.7991 15.3958 -40612.4727 -6407.1533)" gradientUnits="userSpaceOnUse">
								<stop  offset="0" style="stop-color:#FFFFFF"/>
								<stop  offset="0.1213" style="stop-color:#D1D1D1"/>
								<stop  offset="0.3023" style="stop-color:#939392"/>
								<stop  offset="0.4757" style="stop-color:#5F5F5E"/>
								<stop  offset="0.6368" style="stop-color:#363635"/>
								<stop  offset="0.7828" style="stop-color:#191918"/>
								<stop  offset="0.9086" style="stop-color:#070706"/>
								<stop  offset="1" style="stop-color:#010100"/>
							</radialGradient>
							<polygon clip-path="url(#SVGID_5_)" fill="url(#SVGID_6_)" points="22.464,22.628 0.485,22.668 0.651,19.469 22.629,19.431 
															"/>
						</g>
					</g>
				</g>
			</g>
		</mask>
		<g mask="url(#SVGID_1_)">
			<g>
				<defs>
					<rect id="SVGID_7_" x="0.708" y="19.479" width="21.71" height="3.14"/>
				</defs>
				<clipPath id="SVGID_8_">
					<use xlink:href="#SVGID_7_"  overflow="visible"/>
				</clipPath>
				<path clip-path="url(#SVGID_8_)" d="M0.708,21.07c0.051-0.867,4.949-1.58,10.945-1.591c5.994-0.011,10.811,0.683,10.765,1.553
					c-0.023,0.864-4.928,1.576-10.932,1.587C5.481,22.628,0.651,21.937,0.708,21.07"/>
			</g>
		</g>
		<g>
			<g>
				<g>
					<path fill="#EAEAEA" d="M22.1,11.158c0,5.4-4.377,9.777-9.776,9.777c-5.4,0-9.777-4.377-9.777-9.777S6.923,1.38,12.323,1.38
						C17.723,1.38,22.1,5.758,22.1,11.158"/>
					<g>
						<defs>
							<path id="SVGID_9_" d="M4.092,7.45c-0.511,1.131-0.794,2.386-0.794,3.708c0,4.984,4.041,9.024,9.025,9.024
								c4.983,0,9.024-4.04,9.024-9.024c0-1.322-0.283-2.576-0.794-3.708c-1.414-3.134-4.567-5.318-8.23-5.318
								C8.661,2.132,5.506,4.316,4.092,7.45"/>
						</defs>
						<linearGradient id="SVGID_10_" gradientUnits="userSpaceOnUse" x1="3.2979" y1="11.1572" x2="21.3477" y2="11.1572">
							<stop  offset="0" style="stop-color:#EC1C24"/>
							<stop  offset="0.0913" style="stop-color:#ED2825"/>
							<stop  offset="0.2573" style="stop-color:#EF4927"/>
							<stop  offset="0.3333" style="stop-color:#F05A28"/>
							<stop  offset="0.4045" style="stop-color:#F05038"/>
							<stop  offset="0.5368" style="stop-color:#F14150"/>
							<stop  offset="0.6182" style="stop-color:#F13B59"/>
							<stop  offset="0.6898" style="stop-color:#EF3046"/>
							<stop  offset="0.7898" style="stop-color:#ED2533"/>
							<stop  offset="0.8923" style="stop-color:#EC1E28"/>
							<stop  offset="1" style="stop-color:#EC1C24"/>
						</linearGradient>
						<use xlink:href="#SVGID_9_"  overflow="visible" fill="url(#SVGID_10_)"/>
						<clipPath id="SVGID_11_">
							<use xlink:href="#SVGID_9_"  overflow="visible"/>
						</clipPath>
						
							<linearGradient id="SVGID_12_" gradientUnits="userSpaceOnUse" x1="-384.126" y1="412.248" x2="-383.9434" y2="412.248" gradientTransform="matrix(-76.9323 113.8176 113.8176 76.9323 -76453.5391 12005.8125)">
							<stop  offset="0" style="stop-color:#EC1C24"/>
							<stop  offset="0.0913" style="stop-color:#ED2825"/>
							<stop  offset="0.2573" style="stop-color:#EF4927"/>
							<stop  offset="0.3333" style="stop-color:#F05A28"/>
							<stop  offset="0.4045" style="stop-color:#F05038"/>
							<stop  offset="0.5368" style="stop-color:#F14150"/>
							<stop  offset="0.6182" style="stop-color:#F13B59"/>
							<stop  offset="0.6898" style="stop-color:#EF3046"/>
							<stop  offset="0.7898" style="stop-color:#ED2533"/>
							<stop  offset="0.8923" style="stop-color:#EC1E28"/>
							<stop  offset="1" style="stop-color:#EC1C24"/>
						</linearGradient>
						<polygon clip-path="url(#SVGID_11_)" fill="url(#SVGID_12_)" points="29.722,7.793 15.688,28.556 -5.076,14.521 8.959,-6.242 
													"/>
					</g>
				</g>
				<g opacity="0.1">
					<g>
						<defs>
							<rect id="SVGID_13_" x="4.142" y="1.989" width="16.462" height="10.637"/>
						</defs>
						<clipPath id="SVGID_14_">
							<use xlink:href="#SVGID_13_"  overflow="visible"/>
						</clipPath>
						<path clip-path="url(#SVGID_14_)" fill="#FFFFFF" d="M20.604,7.308c-1.414,3.134-4.569,5.318-8.231,5.318
							c-3.663,0-6.818-2.184-8.231-5.318c1.413-3.135,4.568-5.319,8.231-5.319C16.035,1.989,19.19,4.173,20.604,7.308"/>
					</g>
				</g>
			</g>
		</g>
	</g>
	<g>
		<path fill-rule="evenodd" clip-rule="evenodd" fill="#FFFFFF" d="M15.924,9.263c-0.509,0-1.02,0-1.529,0
			c0.224-1.628-0.716-2.738-2.009-2.678c-1.206,0.055-2.004,1.088-1.816,2.678c-0.51,0-1.02,0-1.53,0
			c-0.118-1.479,0.275-2.451,1.003-3.18c0.636-0.636,1.454-1.104,2.678-1.028c1.693,0.105,3.095,1.46,3.203,3.203
			C15.945,8.596,15.909,8.913,15.924,9.263z"/>
		<path fill-rule="evenodd" clip-rule="evenodd" fill="#FFFFFF" d="M8.513,10.051c0.586-0.111,1.43-0.023,2.08-0.023
			c1.314,0,2.759,0,4.112,0c0.448,0,1.588-0.111,1.961,0.071c0.093,0.046,0.271,0.206,0.334,0.336
			c0.138,0.279,0.073,1.052,0.073,1.386c0,0.987,0,1.859,0,2.916c0,0.805,0.099,1.474-0.407,1.722
			c-0.358,0.177-1.425,0.072-2.057,0.072c-1.796,0-3.53,0-5.26,0c-0.693,0-1.171,0.035-1.386-0.406
			c-0.135-0.275-0.072-0.885-0.072-1.363c0-1.113,0-1.796,0-2.869c0-0.389-0.089-0.966,0.048-1.363
			C8.035,10.253,8.251,10.101,8.513,10.051z M12.362,11.175c-0.572,0.05-1.009,0.562-1.028,1.1c-0.017,0.49,0.281,0.879,0.622,1.076
			c-0.224,0.533-0.407,1.106-0.622,1.649c0.757-0.017,1.578,0.031,2.296-0.024c-0.226-0.532-0.409-1.105-0.622-1.65
			C14.054,12.865,13.674,11.059,12.362,11.175z"/>
	</g>
</g>
</svg>
