<?xml version="1.0" encoding="utf-8"?>
<!-- Generator: Adobe Illustrator 15.0.0, SVG Export Plug-In . SVG Version: 6.00 Build 0)  -->
<!DOCTYPE svg PUBLIC "-//W3C//DTD SVG 1.1//EN" "http://www.w3.org/Graphics/SVG/1.1/DTD/svg11.dtd">
<svg version="1.1" xmlns="http://www.w3.org/2000/svg" xmlns:xlink="http://www.w3.org/1999/xlink" x="0px" y="0px" width="300px"
	 height="100px" viewBox="0 0 300 100" enable-background="new 0 0 300 100" xml:space="preserve">
<g id="Layer_1">
	<g id="Layer_1_1_" opacity="0.54">
	</g>
	<g id="background">
		<g>
			<rect fill="#5154A4" width="300" height="100"/>
		</g>
	</g>
	<g id="Layer_2">
		<g enable-background="new    ">
			<path fill="#FDFFFF" d="M92.036,33.473h-4.752v4.944h-3.168V21.615c2.64,0,5.28-0.023,7.92-0.023
				C100.245,21.592,100.269,33.473,92.036,33.473z M87.284,30.568h4.752c4.057,0,4.032-5.952,0-5.952h-4.752V30.568z"/>
			<path fill="#FDFFFF" d="M103.051,21.615v6.577c1.056-1.368,2.353-1.776,3.696-1.776c3.36,0,4.849,2.28,4.849,5.761v6.24h-2.928
				V32.2c0-2.16-1.128-3.072-2.688-3.072c-1.728,0-2.928,1.465-2.928,3.24v6.049h-2.928V21.615H103.051z"/>
			<path fill="#FDFFFF" d="M125.493,26.584l-7.225,16.777h-3.216l2.208-5.137l-4.728-11.641h3.408l1.8,5.112l1.128,3.336
				l1.224-3.264l2.16-5.185H125.493z"/>
			<path fill="#FDFFFF" d="M134.756,29.729c-0.84-0.792-1.8-1.057-2.929-1.057c-1.392,0-2.16,0.433-2.16,1.177
				c0,0.768,0.696,1.2,2.208,1.296c2.232,0.144,5.064,0.647,5.064,3.792c0,2.088-1.704,3.889-5.088,3.889
				c-1.873,0-3.745-0.313-5.473-2.112l1.44-2.088c0.84,0.936,2.76,1.632,4.081,1.656c1.104,0.023,2.136-0.553,2.136-1.417
				c0-0.815-0.672-1.151-2.352-1.248c-2.232-0.168-4.896-0.983-4.896-3.672c0-2.736,2.832-3.696,4.992-3.696
				c1.848,0,3.24,0.36,4.608,1.56L134.756,29.729z"/>
			<path fill="#FDFFFF" d="M142.003,23.248c0,2.28-3.456,2.28-3.456,0S142.003,20.968,142.003,23.248z M138.811,26.536v11.881h2.928
				V26.536H138.811z"/>
			<path fill="#FDFFFF" d="M154.531,36.905c-1.367,1.344-2.808,1.872-4.56,1.872c-3.433,0-6.289-2.064-6.289-6.265
				s2.856-6.265,6.289-6.265c1.681,0,2.976,0.479,4.272,1.752l-1.849,1.944c-0.696-0.624-1.56-0.937-2.376-0.937
				c-1.968,0-3.408,1.44-3.408,3.505c0,2.256,1.536,3.456,3.36,3.456c0.937,0,1.872-0.264,2.593-0.984L154.531,36.905z"/>
			<path fill="#FDFFFF" d="M163.556,29.729c-0.841-0.792-1.8-1.057-2.929-1.057c-1.393,0-2.16,0.433-2.16,1.177
				c0,0.768,0.696,1.2,2.209,1.296c2.231,0.144,5.064,0.647,5.064,3.792c0,2.088-1.705,3.889-5.089,3.889
				c-1.872,0-3.745-0.313-5.473-2.112l1.44-2.088c0.84,0.936,2.76,1.632,4.08,1.656c1.104,0.023,2.137-0.553,2.137-1.417
				c0-0.815-0.673-1.151-2.353-1.248c-2.232-0.168-4.896-0.983-4.896-3.672c0-2.736,2.832-3.696,4.992-3.696
				c1.849,0,3.24,0.36,4.608,1.56L163.556,29.729z"/>
		</g>
	</g>
	<g>
	</g>
</g>
<g id="Layer_7_1_">
	<g>
		<g>
			<path fill="#FDFFFF" d="M299.81,88.66l0.009-6.385c1.752-0.451,3.056-2.031,3.056-3.924c0-2.242-1.824-4.066-4.066-4.066
				c-1.128,0-2.148,0.463-2.886,1.205l-5.419-3.158c0.101-0.352,0.17-0.715,0.17-1.096c0-1.896-1.307-3.479-3.064-3.928l0.009-7.4
				c1.752-0.453,3.056-2.033,3.056-3.924c0-2.244-1.824-4.066-4.066-4.066c-1.128,0-2.148,0.461-2.886,1.205l-5.418-3.16
				c0.1-0.351,0.169-0.714,0.169-1.097c0-2.242-1.823-4.066-4.066-4.066s-4.066,1.824-4.066,4.066c0,0.383,0.069,0.746,0.168,1.097
				l-5.417,3.16c-0.737-0.744-1.758-1.205-2.886-1.205c-2.243,0-4.066,1.822-4.066,4.066c0,1.891,1.301,3.469,3.05,3.922v7.406
				c-1.749,0.455-3.05,2.033-3.05,3.924c0,0.381,0.07,0.744,0.169,1.096l-5.418,3.158c-0.737-0.742-1.758-1.205-2.886-1.205
				c-2.242,0-4.066,1.824-4.066,4.066c0,1.891,1.301,3.469,3.05,3.924v6.389c-1.749,0.455-3.05,2.033-3.05,3.922
				c0,2.244,1.824,4.068,4.066,4.068c1.128,0,2.148-0.463,2.886-1.207l5.418,3.16c-0.099,0.352-0.169,0.715-0.169,1.098
				c0,2.242,1.824,4.066,4.066,4.066c2.244,0,4.067-1.824,4.067-4.066c0-0.385-0.071-0.748-0.17-1.1l5.413-3.164
				c0.738,0.748,1.761,1.213,2.891,1.213c1.127,0,2.148-0.463,2.886-1.207l5.417,3.16c-0.099,0.352-0.169,0.715-0.169,1.096
				c0,2.244,1.823,4.068,4.067,4.068c2.243,0,4.066-1.824,4.066-4.068c0-0.383-0.07-0.746-0.17-1.098l5.414-3.164
				c0.737,0.748,1.76,1.211,2.891,1.211c2.242,0,4.066-1.822,4.066-4.066C302.874,90.691,301.566,89.109,299.81,88.66z
				 M273.375,88.654c-0.117,0.029-0.226,0.08-0.34,0.119c-0.086,0.031-0.177,0.055-0.261,0.094c-0.214,0.094-0.42,0.205-0.612,0.332
				c-0.075,0.051-0.141,0.111-0.212,0.166c-0.12,0.092-0.239,0.184-0.348,0.289c-0.078,0.074-0.147,0.156-0.22,0.236
				c-0.091,0.1-0.177,0.201-0.256,0.311c-0.064,0.088-0.122,0.178-0.18,0.271c-0.073,0.119-0.139,0.24-0.199,0.367
				c-0.045,0.092-0.088,0.186-0.126,0.281c-0.058,0.146-0.103,0.301-0.142,0.457c-0.021,0.082-0.05,0.164-0.066,0.25
				c-0.046,0.246-0.075,0.498-0.075,0.758c0,0.232,0.027,0.463,0.069,0.693c0.017,0.094,0.036,0.186,0.06,0.275
				c0.011,0.043,0.016,0.086,0.027,0.129l-5.406,3.158c-0.737-0.742-1.758-1.205-2.885-1.205c-1.129,0-2.148,0.463-2.887,1.205
				l-5.404-3.15c0.016-0.051,0.021-0.104,0.033-0.154c0.02-0.08,0.037-0.16,0.052-0.24c0.043-0.234,0.072-0.471,0.072-0.711
				c0-0.26-0.03-0.514-0.077-0.762c-0.015-0.08-0.042-0.156-0.061-0.234c-0.042-0.166-0.089-0.326-0.151-0.48
				c-0.032-0.088-0.072-0.17-0.112-0.254c-0.067-0.141-0.139-0.275-0.222-0.408c-0.049-0.078-0.099-0.154-0.153-0.232
				c-0.093-0.127-0.195-0.246-0.301-0.363c-0.059-0.063-0.112-0.129-0.175-0.188c-0.136-0.133-0.282-0.25-0.436-0.359
				c-0.044-0.031-0.082-0.07-0.127-0.1c-0.2-0.135-0.415-0.252-0.639-0.348c-0.063-0.027-0.132-0.045-0.196-0.068
				c-0.133-0.049-0.263-0.105-0.4-0.141v-6.357c0.138-0.037,0.268-0.092,0.4-0.141c0.064-0.025,0.133-0.041,0.196-0.068
				c0.224-0.098,0.438-0.213,0.639-0.348c0.045-0.029,0.083-0.066,0.127-0.1c0.153-0.109,0.3-0.229,0.436-0.359
				c0.063-0.059,0.116-0.125,0.175-0.188c0.105-0.117,0.208-0.236,0.301-0.365c0.055-0.074,0.104-0.152,0.153-0.23
				c0.083-0.133,0.154-0.268,0.222-0.408c0.04-0.084,0.08-0.166,0.112-0.254c0.063-0.154,0.109-0.316,0.151-0.48
				c0.019-0.08,0.045-0.154,0.061-0.234c0.047-0.248,0.077-0.502,0.077-0.762c0-0.24-0.029-0.477-0.072-0.709
				c-0.015-0.084-0.032-0.162-0.052-0.242c-0.012-0.051-0.018-0.104-0.033-0.154l5.404-3.15c0.738,0.742,1.758,1.205,2.887,1.205
				c0.291,0,0.574-0.035,0.848-0.092c0.081-0.018,0.157-0.051,0.236-0.074c0.191-0.053,0.381-0.109,0.559-0.188
				c0.082-0.037,0.157-0.086,0.237-0.129c0.168-0.088,0.334-0.182,0.487-0.293c0.065-0.045,0.123-0.1,0.186-0.152
				c0.161-0.131,0.313-0.27,0.452-0.422c0.016-0.02,0.037-0.033,0.055-0.051l2.578,1.287l2.589,1.297
				c-0.059,0.273-0.092,0.557-0.092,0.85c0,0.26,0.029,0.514,0.076,0.762c0.016,0.08,0.041,0.158,0.063,0.238
				c0.041,0.162,0.087,0.322,0.147,0.475c0.035,0.09,0.075,0.174,0.116,0.26c0.066,0.137,0.137,0.27,0.217,0.398
				c0.051,0.082,0.103,0.162,0.159,0.24c0.089,0.125,0.188,0.24,0.29,0.354c0.062,0.066,0.118,0.135,0.185,0.199
				c0.132,0.125,0.273,0.238,0.421,0.348c0.049,0.035,0.091,0.076,0.141,0.109c0.2,0.133,0.412,0.248,0.635,0.346
				c0.066,0.027,0.135,0.045,0.201,0.07c0.13,0.049,0.258,0.102,0.394,0.139L273.375,88.654z M274.405,73.27
				c-0.292,0-0.574,0.033-0.85,0.092c-0.081,0.018-0.157,0.051-0.237,0.074c-0.19,0.051-0.378,0.107-0.557,0.186
				c-0.082,0.037-0.156,0.088-0.236,0.129c-0.169,0.088-0.333,0.182-0.486,0.293c-0.067,0.047-0.125,0.102-0.187,0.154
				c-0.161,0.129-0.313,0.268-0.452,0.422c-0.017,0.018-0.038,0.031-0.055,0.051l-2.578-1.291l-2.589-1.293
				c0.059-0.275,0.093-0.559,0.093-0.85c0-0.262-0.03-0.516-0.077-0.764c-0.016-0.08-0.042-0.156-0.062-0.234
				c-0.042-0.166-0.088-0.326-0.149-0.48c-0.034-0.088-0.073-0.17-0.113-0.254c-0.067-0.141-0.14-0.275-0.222-0.408
				c-0.049-0.078-0.1-0.154-0.154-0.23c-0.093-0.129-0.194-0.25-0.301-0.365c-0.058-0.063-0.111-0.129-0.174-0.188
				c-0.137-0.131-0.283-0.25-0.437-0.359c-0.043-0.033-0.081-0.07-0.127-0.1c-0.2-0.135-0.414-0.252-0.638-0.348
				c-0.063-0.027-0.132-0.045-0.196-0.068c-0.133-0.049-0.263-0.104-0.401-0.141v-7.375c0.139-0.035,0.269-0.09,0.401-0.141
				c0.064-0.023,0.133-0.041,0.196-0.068c0.224-0.096,0.438-0.211,0.638-0.346c0.046-0.029,0.084-0.068,0.127-0.1
				c0.153-0.111,0.3-0.229,0.437-0.361c0.063-0.059,0.116-0.123,0.174-0.186c0.106-0.117,0.208-0.238,0.301-0.367
				c0.055-0.074,0.105-0.15,0.154-0.23c0.082-0.131,0.154-0.266,0.222-0.408c0.039-0.084,0.079-0.166,0.113-0.252
				c0.062-0.156,0.107-0.316,0.149-0.48c0.02-0.08,0.046-0.154,0.062-0.234c0.047-0.248,0.077-0.502,0.077-0.764
				c0-0.238-0.03-0.477-0.072-0.709c-0.015-0.082-0.033-0.162-0.052-0.242c-0.012-0.049-0.018-0.102-0.033-0.152l5.404-3.152
				c0.738,0.744,1.758,1.207,2.887,1.207c1.127,0,2.148-0.463,2.886-1.207l5.404,3.152c-0.015,0.051-0.021,0.104-0.033,0.152
				c-0.02,0.08-0.036,0.16-0.052,0.242c-0.043,0.232-0.071,0.471-0.071,0.709c0,0.26,0.03,0.516,0.076,0.762
				c0.017,0.082,0.041,0.158,0.063,0.238c0.042,0.162,0.088,0.322,0.147,0.475c0.035,0.09,0.075,0.176,0.116,0.26
				c0.066,0.139,0.138,0.27,0.217,0.398c0.051,0.082,0.103,0.164,0.159,0.242c0.09,0.123,0.188,0.238,0.291,0.352
				c0.062,0.066,0.118,0.135,0.185,0.199c0.131,0.127,0.273,0.24,0.421,0.348c0.049,0.035,0.091,0.076,0.14,0.109
				c0.201,0.133,0.413,0.248,0.636,0.346c0.065,0.027,0.135,0.045,0.2,0.07c0.13,0.049,0.258,0.102,0.395,0.137l-0.009,7.383
				c-0.117,0.031-0.226,0.08-0.339,0.119c-0.086,0.031-0.177,0.057-0.261,0.094c-0.214,0.094-0.421,0.203-0.613,0.332
				c-0.075,0.049-0.14,0.111-0.212,0.166c-0.119,0.092-0.239,0.184-0.348,0.289c-0.078,0.074-0.146,0.156-0.219,0.236
				c-0.091,0.1-0.177,0.203-0.257,0.311c-0.064,0.088-0.122,0.178-0.179,0.271c-0.074,0.119-0.139,0.24-0.2,0.367
				c-0.044,0.092-0.088,0.184-0.126,0.281c-0.058,0.146-0.102,0.301-0.142,0.457c-0.021,0.084-0.049,0.164-0.065,0.25
				c-0.047,0.246-0.076,0.498-0.076,0.76c0,0.289,0.032,0.57,0.09,0.844l-5.166,2.588c-0.017-0.018-0.037-0.031-0.054-0.051
				c-0.14-0.154-0.292-0.291-0.455-0.424c-0.061-0.051-0.118-0.105-0.183-0.152c-0.154-0.109-0.32-0.203-0.488-0.291
				c-0.08-0.041-0.155-0.092-0.236-0.129c-0.178-0.078-0.367-0.135-0.558-0.186c-0.08-0.023-0.155-0.057-0.236-0.074
				C274.979,73.303,274.696,73.27,274.405,73.27z M297.775,88.654c-0.116,0.029-0.226,0.08-0.338,0.119
				c-0.087,0.031-0.177,0.055-0.261,0.094c-0.215,0.094-0.421,0.205-0.613,0.332c-0.075,0.051-0.14,0.111-0.212,0.166
				c-0.12,0.092-0.239,0.184-0.349,0.289c-0.078,0.074-0.146,0.156-0.218,0.236c-0.091,0.1-0.177,0.201-0.257,0.311
				c-0.064,0.088-0.122,0.178-0.18,0.271c-0.073,0.119-0.138,0.24-0.199,0.367c-0.045,0.092-0.088,0.186-0.126,0.281
				c-0.059,0.146-0.102,0.301-0.142,0.457c-0.021,0.082-0.05,0.164-0.065,0.25c-0.047,0.246-0.077,0.498-0.077,0.758
				c0,0.232,0.029,0.463,0.071,0.693c0.016,0.094,0.036,0.186,0.059,0.275c0.012,0.043,0.015,0.086,0.027,0.129l-5.406,3.158
				c-0.737-0.742-1.758-1.205-2.884-1.205c-1.129,0-2.148,0.463-2.887,1.205l-5.405-3.15c0.016-0.051,0.021-0.104,0.034-0.154
				c0.019-0.08,0.037-0.16,0.051-0.242c0.043-0.232,0.072-0.469,0.072-0.709c0-0.26-0.03-0.514-0.076-0.762
				c-0.016-0.08-0.042-0.156-0.062-0.234c-0.042-0.166-0.089-0.326-0.149-0.48c-0.035-0.088-0.074-0.17-0.114-0.254
				c-0.067-0.141-0.139-0.275-0.222-0.408c-0.049-0.078-0.099-0.154-0.154-0.232c-0.092-0.127-0.193-0.248-0.301-0.363
				c-0.058-0.063-0.111-0.129-0.174-0.188c-0.136-0.133-0.282-0.25-0.436-0.361c-0.044-0.029-0.081-0.068-0.128-0.098
				c-0.199-0.135-0.414-0.252-0.638-0.348c-0.063-0.027-0.131-0.045-0.196-0.068c-0.133-0.049-0.262-0.105-0.4-0.141v-7.375
				c0.139-0.035,0.268-0.09,0.4-0.141c0.065-0.023,0.134-0.041,0.196-0.066c0.224-0.1,0.438-0.215,0.638-0.35
				c0.047-0.029,0.084-0.066,0.128-0.098c0.153-0.111,0.3-0.229,0.436-0.359c0.063-0.061,0.116-0.127,0.174-0.189
				c0.107-0.117,0.209-0.234,0.301-0.365c0.056-0.074,0.105-0.152,0.154-0.23c0.083-0.133,0.154-0.268,0.222-0.406
				c0.04-0.086,0.079-0.168,0.114-0.254c0.061-0.156,0.107-0.316,0.149-0.48c0.02-0.08,0.046-0.156,0.062-0.234
				c0.046-0.25,0.076-0.502,0.076-0.764c0-0.293-0.033-0.576-0.092-0.85l5.167-2.584c0.016,0.018,0.037,0.031,0.054,0.051
				c0.14,0.152,0.292,0.291,0.452,0.422c0.063,0.053,0.12,0.107,0.186,0.152c0.154,0.111,0.319,0.205,0.487,0.293
				c0.081,0.043,0.154,0.092,0.237,0.129c0.179,0.078,0.368,0.135,0.558,0.188c0.081,0.023,0.155,0.057,0.236,0.074
				c0.275,0.057,0.558,0.092,0.85,0.092c1.127,0,2.148-0.463,2.886-1.205l5.404,3.15c-0.015,0.051-0.021,0.104-0.033,0.154
				c-0.02,0.08-0.037,0.158-0.052,0.242c-0.043,0.232-0.072,0.469-0.072,0.707c0,0.262,0.03,0.516,0.077,0.762
				c0.016,0.084,0.043,0.16,0.063,0.242c0.042,0.16,0.088,0.316,0.146,0.471c0.036,0.09,0.078,0.178,0.119,0.264
				c0.064,0.137,0.134,0.266,0.212,0.393c0.054,0.084,0.106,0.166,0.165,0.246c0.087,0.121,0.183,0.234,0.283,0.344
				c0.063,0.07,0.123,0.143,0.191,0.207c0.127,0.121,0.264,0.23,0.404,0.334c0.054,0.041,0.102,0.086,0.157,0.123
				c0.198,0.133,0.41,0.246,0.631,0.344c0.066,0.029,0.138,0.047,0.207,0.072c0.128,0.049,0.254,0.102,0.39,0.137L297.775,88.654z"
				/>
		</g>
	</g>
</g>
<g id="Layer_4">
	<g>
		<g>
			<path fill="#F5F5F5" d="M41.853,82.007c-16.532,0-29.483-5.535-29.483-12.601c0-7.066,12.951-12.603,29.483-12.603
				c16.532,0,29.483,5.536,29.483,12.603C71.336,76.472,58.385,82.007,41.853,82.007z M41.853,57.711
				c-15.756,0-28.576,5.246-28.576,11.695c0,6.448,12.819,11.694,28.576,11.694c15.756,0,28.576-5.246,28.576-11.694
				C70.429,62.957,57.609,57.711,41.853,57.711z"/>
		</g>
		<g>
			<path fill="#F5F5F5" d="M41.853,98.889c-7.066,0-12.602-12.95-12.602-29.482c0-16.533,5.536-29.483,12.602-29.483
				c7.066,0,12.603,12.95,12.603,29.483C54.456,85.938,48.919,98.889,41.853,98.889z M41.853,40.831
				c-6.448,0-11.694,12.818-11.694,28.576c0,15.756,5.246,28.575,11.694,28.575s11.695-12.819,11.695-28.575
				C53.548,53.648,48.301,40.831,41.853,40.831z"/>
		</g>
		<g>
			<path fill="#F5F5F5" d="M26.224,92.12c-2.198,0-3.975-0.623-5.219-1.867c-4.997-4.997,0.246-18.067,11.936-29.757
				c11.69-11.691,24.761-16.936,29.759-11.938c4.997,4.999-0.247,18.069-11.937,29.759c-5.524,5.524-11.625,9.821-17.179,12.098
				C30.81,91.552,28.324,92.12,26.224,92.12z M57.441,47.573c-6.033,0-15.414,5.119-23.858,13.563
				c-5.441,5.44-9.668,11.438-11.899,16.883c-2.18,5.319-2.193,9.437-0.036,11.594c4.56,4.558,17.333-0.795,28.475-11.938
				C61.264,66.533,66.619,53.76,62.059,49.199C60.955,48.097,59.369,47.573,57.441,47.573z"/>
		</g>
		<g>
			<path fill="#F5F5F5" d="M57.431,92.141c-6.333,0-15.794-5.128-24.49-13.824c-11.69-11.689-16.933-24.76-11.936-29.759
				c2.433-2.431,6.899-2.489,12.579-0.16c5.554,2.276,11.655,6.573,17.179,12.099c11.69,11.689,16.934,24.76,11.937,29.757
				C61.42,91.533,59.61,92.141,57.431,92.141z M26.265,47.573c-1.927,0-3.513,0.521-4.617,1.626
				c-2.157,2.158-2.144,6.275,0.036,11.595c2.231,5.445,6.458,11.44,11.899,16.881C44.725,88.817,57.5,94.171,62.059,89.612
				c4.56-4.561-0.795-17.335-11.937-28.477C41.679,52.693,32.297,47.573,26.265,47.573z"/>
		</g>
		<circle fill="#EF5350" cx="41.853" cy="69.406" r="4.88"/>
		<circle fill="#1E88E5" cx="59.351" cy="59.646" r="1.835"/>
		<circle fill="#43A047" cx="31.54" cy="84.594" r="1.835"/>
		<circle fill="#FFCA28" cx="26.778" cy="47.514" r="1.836"/>
	</g>
</g>
<g id="Layer_6">
</g>
<g id="Layer_5">
</g>
</svg>
