<?xml version="1.0" encoding="utf-8"?>
<!-- Generator: Adobe Illustrator 15.0.0, SVG Export Plug-In . SVG Version: 6.00 Build 0)  -->
<!DOCTYPE svg PUBLIC "-//W3C//DTD SVG 1.1//EN" "http://www.w3.org/Graphics/SVG/1.1/DTD/svg11.dtd">
<svg version="1.1" id="Layer_2" xmlns="http://www.w3.org/2000/svg" xmlns:xlink="http://www.w3.org/1999/xlink" x="0px" y="0px"
	 width="350px" height="500px" viewBox="0 0 350 500" enable-background="new 0 0 350 500" xml:space="preserve">
<g>
	<rect fill="#5155A4" width="350" height="500"/>
</g>
<g id="Layer_4">
	<g>
		<g>
			<path fill="#F5F6F6" d="M260.354,106.371c-31.394,0-55.984-10.508-55.984-23.926s24.591-23.932,55.984-23.932
				c31.391,0,55.982,10.512,55.982,23.932C316.337,95.862,291.745,106.371,260.354,106.371z M260.354,60.237
				c-29.918,0-54.262,9.961-54.262,22.208c0,12.242,24.34,22.204,54.262,22.204c29.918,0,54.262-9.961,54.262-22.204
				C314.616,70.198,290.272,60.237,260.354,60.237z"/>
		</g>
		<g>
			<path fill="#F5F6F6" d="M260.354,138.427c-13.418,0-23.931-24.588-23.931-55.98c0-31.394,10.513-55.984,23.931-55.984
				c13.416,0,23.931,24.59,23.931,55.984C284.285,113.834,273.771,138.427,260.354,138.427z M260.354,28.185
				c-12.246,0-22.206,24.338-22.206,54.262c0,29.918,9.96,54.26,22.206,54.26c12.242,0,22.206-24.342,22.206-54.26
				C282.561,52.523,272.597,28.185,260.354,28.185z"/>
		</g>
		<g>
			<path fill="#F5F6F6" d="M230.678,125.574c-4.176,0-7.549-1.183-9.911-3.545c-9.489-9.489,0.467-34.307,22.665-56.503
				c22.196-22.199,47.017-32.159,56.508-22.668c9.488,9.492-0.47,34.31-22.666,56.506c-10.49,10.49-22.074,18.651-32.621,22.974
				C239.386,124.495,234.664,125.574,230.678,125.574z M289.953,40.987c-11.456,0-29.269,9.719-45.303,25.753
				c-10.331,10.331-18.358,21.72-22.596,32.06c-4.139,10.099-4.163,17.918-0.066,22.015c8.658,8.654,32.911-1.51,54.068-22.669
				c21.154-21.156,31.324-45.411,22.664-54.071C296.625,41.982,293.614,40.987,289.953,40.987z"/>
		</g>
		<g>
			<path fill="#F5F6F6" d="M289.935,125.613c-12.027,0-29.992-9.735-46.503-26.25c-22.198-22.194-32.154-47.015-22.665-56.506
				c4.619-4.616,13.101-4.727,23.886-0.304c10.547,4.322,22.129,12.481,32.621,22.975c22.196,22.194,32.154,47.015,22.666,56.503
				C297.508,124.46,294.07,125.613,289.935,125.613z M230.756,40.987c-3.661,0-6.672,0.988-8.768,3.087
				c-4.097,4.098-4.072,11.916,0.066,22.017c4.237,10.34,12.265,21.724,22.596,32.054c21.156,21.156,45.414,31.323,54.07,22.666
				c8.66-8.66-1.51-32.915-22.665-54.072C260.024,50.709,242.208,40.987,230.756,40.987z"/>
		</g>
		<circle fill="#EF5551" cx="260.354" cy="82.443" r="9.267"/>
		<circle fill="#3E83C4" cx="293.58" cy="63.91" r="3.484"/>
		<circle fill="#44A147" cx="240.771" cy="111.284" r="3.485"/>
		<circle fill="#FFCB2A" cx="231.728" cy="40.875" r="3.486"/>
	</g>
</g>
<g id="Layer_7_1_" opacity="0.53">
	<g>
		<g>
			<path fill="#FFFFFF" d="M246.595,389.777l0.022-18.504c5.077-1.306,8.859-5.887,8.859-11.371c0-6.498-5.287-11.786-11.786-11.786
				c-3.266,0-6.223,1.343-8.362,3.495l-15.705-9.154c0.295-1.02,0.492-2.072,0.492-3.176c0-5.497-3.786-10.084-8.881-11.383
				l0.027-21.447c5.077-1.313,8.856-5.892,8.856-11.372c0-6.504-5.284-11.785-11.782-11.785c-3.271,0-6.227,1.337-8.365,3.493
				l-15.703-9.159c0.291-1.017,0.493-2.069,0.493-3.178c0-6.498-5.286-11.786-11.786-11.786s-11.785,5.288-11.785,11.786
				c0,1.108,0.202,2.161,0.487,3.178l-15.699,9.159c-2.137-2.156-5.095-3.493-8.363-3.493c-6.501,0-11.785,5.281-11.785,11.785
				c0,5.48,3.77,10.052,8.841,11.366v21.464c-5.072,1.319-8.841,5.893-8.841,11.372c0,1.104,0.203,2.156,0.492,3.176l-15.702,9.154
				c-2.137-2.152-5.097-3.495-8.366-3.495c-6.498,0-11.785,5.288-11.785,11.786c0,5.479,3.773,10.053,8.841,11.371v18.516
				c-5.068,1.318-8.841,5.894-8.841,11.367c0,6.502,5.287,11.79,11.785,11.79c3.27,0,6.227-1.342,8.366-3.499l15.702,9.159
				c-0.289,1.019-0.492,2.072-0.492,3.182c0,6.498,5.287,11.784,11.785,11.784c6.504,0,11.786-5.286,11.786-11.784
				c0-1.115-0.204-2.169-0.493-3.187l15.69-9.171c2.137,2.167,5.1,3.516,8.377,3.516c3.268,0,6.228-1.342,8.364-3.499l15.699,9.159
				c-0.289,1.019-0.489,2.072-0.489,3.175c0,6.505,5.283,11.791,11.787,11.791c6.498,0,11.782-5.286,11.782-11.791
				c0-1.108-0.2-2.162-0.492-3.18l15.689-9.171c2.137,2.167,5.102,3.51,8.381,3.51c6.495,0,11.783-5.282,11.783-11.784
				C255.474,395.664,251.685,391.081,246.595,389.777z M169.981,389.761c-0.339,0.086-0.656,0.233-0.985,0.345
				c-0.25,0.091-0.515,0.159-0.759,0.272c-0.617,0.272-1.217,0.595-1.771,0.962c-0.218,0.147-0.408,0.323-0.615,0.481
				c-0.348,0.267-0.693,0.532-1.01,0.838c-0.227,0.216-0.425,0.453-0.638,0.685c-0.262,0.289-0.511,0.581-0.741,0.9
				c-0.185,0.256-0.354,0.515-0.524,0.787c-0.209,0.342-0.402,0.693-0.575,1.061c-0.13,0.27-0.254,0.542-0.365,0.815
				c-0.169,0.422-0.299,0.872-0.413,1.324c-0.059,0.238-0.141,0.476-0.189,0.726c-0.133,0.714-0.218,1.441-0.218,2.195
				c0,0.67,0.08,1.342,0.201,2.007c0.048,0.273,0.105,0.541,0.173,0.797c0.034,0.127,0.045,0.25,0.079,0.375l-15.668,9.152
				c-2.134-2.15-5.094-3.492-8.36-3.492c-3.271,0-6.227,1.342-8.366,3.492l-15.662-9.13c0.045-0.147,0.063-0.301,0.096-0.445
				c0.057-0.231,0.107-0.464,0.15-0.695c0.125-0.677,0.207-1.363,0.207-2.061c0-0.754-0.085-1.491-0.222-2.207
				c-0.045-0.231-0.121-0.453-0.175-0.681c-0.124-0.479-0.26-0.941-0.441-1.389c-0.09-0.254-0.206-0.492-0.322-0.736
				c-0.192-0.409-0.402-0.797-0.646-1.183c-0.142-0.226-0.283-0.446-0.441-0.674c-0.269-0.367-0.566-0.714-0.872-1.052
				c-0.17-0.183-0.326-0.375-0.509-0.544c-0.391-0.385-0.816-0.725-1.263-1.041c-0.127-0.09-0.238-0.205-0.368-0.289
				c-0.577-0.391-1.203-0.731-1.851-1.008c-0.184-0.078-0.385-0.13-0.569-0.199c-0.385-0.142-0.762-0.304-1.157-0.406v-18.426
				c0.398-0.106,0.775-0.265,1.157-0.406c0.184-0.073,0.385-0.12,0.569-0.198c0.648-0.283,1.268-0.617,1.851-1.009
				c0.13-0.084,0.241-0.192,0.368-0.29c0.445-0.314,0.872-0.665,1.263-1.04c0.184-0.172,0.339-0.361,0.509-0.545
				c0.306-0.337,0.603-0.683,0.872-1.056c0.159-0.216,0.3-0.442,0.441-0.669c0.243-0.385,0.447-0.774,0.646-1.183
				c0.116-0.243,0.232-0.481,0.322-0.735c0.184-0.447,0.317-0.917,0.441-1.393c0.054-0.231,0.13-0.448,0.175-0.677
				c0.136-0.72,0.222-1.454,0.222-2.209c0-0.694-0.082-1.382-0.207-2.056c-0.042-0.244-0.093-0.47-0.15-0.702
				c-0.034-0.147-0.054-0.301-0.096-0.445l15.662-9.127c2.14,2.147,5.095,3.493,8.366,3.493c0.843,0,1.665-0.103,2.457-0.268
				c0.235-0.055,0.456-0.147,0.685-0.214c0.554-0.155,1.104-0.316,1.619-0.545c0.238-0.108,0.455-0.25,0.688-0.378
				c0.487-0.254,0.968-0.525,1.413-0.849c0.187-0.131,0.356-0.289,0.537-0.438c0.467-0.38,0.906-0.786,1.311-1.224
				c0.048-0.059,0.108-0.097,0.159-0.149l7.472,3.729l7.503,3.759c-0.17,0.792-0.267,1.616-0.267,2.465
				c0,0.756,0.085,1.491,0.221,2.209c0.045,0.233,0.119,0.458,0.182,0.689c0.119,0.47,0.254,0.934,0.427,1.379
				c0.099,0.259,0.217,0.502,0.336,0.752c0.189,0.396,0.396,0.781,0.628,1.154c0.147,0.235,0.3,0.468,0.459,0.694
				c0.261,0.36,0.546,0.695,0.843,1.026c0.179,0.189,0.34,0.391,0.535,0.577c0.382,0.363,0.79,0.688,1.22,1.009
				c0.142,0.103,0.266,0.22,0.408,0.315c0.583,0.386,1.194,0.717,1.843,1.003c0.189,0.076,0.391,0.129,0.58,0.201
				c0.379,0.145,0.75,0.297,1.143,0.403L169.981,389.761z M172.964,345.173c-0.844,0-1.662,0.097-2.463,0.268
				c-0.232,0.053-0.452,0.149-0.685,0.214c-0.552,0.147-1.098,0.312-1.616,0.542c-0.235,0.106-0.45,0.254-0.682,0.373
				c-0.493,0.255-0.968,0.53-1.41,0.849c-0.192,0.136-0.362,0.298-0.543,0.447c-0.464,0.375-0.906,0.775-1.308,1.224
				c-0.051,0.054-0.113,0.087-0.159,0.147l-7.472-3.743l-7.505-3.747c0.17-0.796,0.271-1.62,0.271-2.465
				c0-0.758-0.088-1.494-0.227-2.214c-0.045-0.231-0.119-0.451-0.178-0.679c-0.122-0.479-0.254-0.943-0.433-1.389
				c-0.096-0.256-0.21-0.493-0.326-0.737c-0.195-0.409-0.405-0.795-0.643-1.18c-0.142-0.226-0.292-0.447-0.447-0.668
				c-0.271-0.374-0.563-0.725-0.872-1.059c-0.169-0.182-0.322-0.373-0.503-0.543c-0.399-0.379-0.821-0.726-1.268-1.041
				c-0.125-0.097-0.235-0.205-0.368-0.289c-0.58-0.395-1.2-0.73-1.851-1.012c-0.182-0.075-0.379-0.129-0.566-0.194
				c-0.385-0.141-0.765-0.302-1.164-0.41v-21.374c0.405-0.098,0.778-0.261,1.164-0.407c0.187-0.068,0.384-0.118,0.566-0.199
				c0.651-0.276,1.271-0.611,1.851-1.001c0.133-0.086,0.243-0.197,0.368-0.292c0.442-0.32,0.869-0.662,1.268-1.044
				c0.181-0.173,0.334-0.356,0.503-0.54c0.307-0.341,0.601-0.691,0.872-1.064c0.159-0.215,0.306-0.434,0.447-0.665
				c0.238-0.379,0.445-0.771,0.643-1.183c0.114-0.244,0.229-0.481,0.326-0.73c0.181-0.451,0.311-0.914,0.433-1.39
				c0.06-0.232,0.133-0.447,0.178-0.679c0.139-0.72,0.227-1.455,0.227-2.214c0-0.69-0.088-1.385-0.209-2.056
				c-0.046-0.238-0.096-0.47-0.153-0.701c-0.035-0.142-0.051-0.295-0.094-0.441l15.66-9.136c2.14,2.156,5.095,3.497,8.367,3.497
				c3.268,0,6.225-1.341,8.366-3.497l15.662,9.136c-0.045,0.146-0.062,0.3-0.096,0.441c-0.058,0.231-0.105,0.463-0.152,0.701
				c-0.125,0.671-0.204,1.365-0.204,2.056c0,0.752,0.085,1.494,0.221,2.207c0.048,0.238,0.119,0.46,0.181,0.691
				c0.122,0.47,0.254,0.933,0.428,1.375c0.099,0.261,0.218,0.509,0.337,0.753c0.189,0.403,0.398,0.784,0.627,1.155
				c0.147,0.238,0.298,0.476,0.459,0.701c0.261,0.357,0.547,0.691,0.845,1.02c0.181,0.192,0.345,0.39,0.537,0.576
				c0.379,0.368,0.793,0.698,1.219,1.008c0.144,0.103,0.264,0.222,0.405,0.317c0.584,0.384,1.2,0.718,1.847,1.001
				c0.187,0.08,0.39,0.131,0.576,0.205c0.379,0.142,0.748,0.295,1.146,0.397l-0.025,21.396c-0.34,0.091-0.656,0.232-0.984,0.345
				c-0.25,0.091-0.51,0.164-0.754,0.272c-0.622,0.271-1.222,0.587-1.777,0.962c-0.218,0.142-0.408,0.322-0.617,0.479
				c-0.345,0.269-0.69,0.536-1.007,0.839c-0.227,0.215-0.424,0.453-0.635,0.685c-0.262,0.289-0.515,0.59-0.743,0.899
				c-0.184,0.256-0.354,0.515-0.518,0.787c-0.216,0.345-0.405,0.697-0.584,1.064c-0.125,0.267-0.255,0.532-0.361,0.815
				c-0.17,0.422-0.298,0.871-0.414,1.324c-0.061,0.244-0.142,0.476-0.187,0.726c-0.136,0.713-0.221,1.443-0.221,2.201
				c0,0.839,0.09,1.652,0.26,2.445l-14.972,7.501c-0.051-0.052-0.107-0.091-0.155-0.147c-0.405-0.448-0.847-0.843-1.319-1.229
				c-0.178-0.147-0.342-0.307-0.529-0.442c-0.446-0.315-0.928-0.588-1.416-0.843c-0.23-0.12-0.449-0.266-0.684-0.373
				c-0.516-0.228-1.064-0.392-1.619-0.539c-0.229-0.067-0.448-0.167-0.682-0.215C174.628,345.27,173.807,345.173,172.964,345.173z
				 M240.697,389.761c-0.337,0.086-0.658,0.233-0.979,0.345c-0.255,0.091-0.515,0.159-0.759,0.272
				c-0.623,0.272-1.221,0.595-1.777,0.962c-0.215,0.147-0.404,0.323-0.611,0.481c-0.352,0.267-0.696,0.532-1.014,0.838
				c-0.226,0.216-0.425,0.453-0.631,0.685c-0.264,0.289-0.512,0.581-0.745,0.9c-0.187,0.256-0.356,0.515-0.521,0.787
				c-0.215,0.342-0.401,0.693-0.576,1.061c-0.131,0.27-0.256,0.542-0.369,0.815c-0.17,0.422-0.293,0.872-0.41,1.324
				c-0.059,0.238-0.144,0.476-0.189,0.726c-0.136,0.714-0.22,1.441-0.22,2.195c0,0.67,0.084,1.342,0.203,2.007
				c0.048,0.273,0.108,0.541,0.173,0.797c0.033,0.127,0.042,0.25,0.076,0.375l-15.665,9.152c-2.138-2.15-5.098-3.492-8.358-3.492
				c-3.271,0-6.226,1.342-8.368,3.492l-15.666-9.13c0.048-0.147,0.063-0.301,0.103-0.445c0.054-0.231,0.105-0.464,0.146-0.701
				c0.125-0.671,0.21-1.357,0.21-2.055c0-0.754-0.091-1.491-0.222-2.207c-0.048-0.231-0.123-0.453-0.18-0.681
				c-0.123-0.479-0.258-0.941-0.432-1.389c-0.1-0.254-0.215-0.492-0.334-0.736c-0.191-0.409-0.401-0.797-0.639-1.183
				c-0.145-0.226-0.289-0.446-0.447-0.674c-0.267-0.367-0.561-0.72-0.871-1.052c-0.17-0.183-0.324-0.375-0.508-0.544
				c-0.393-0.385-0.816-0.725-1.262-1.047c-0.127-0.084-0.235-0.199-0.371-0.283c-0.578-0.391-1.199-0.731-1.851-1.008
				c-0.181-0.078-0.38-0.13-0.565-0.199c-0.386-0.142-0.759-0.304-1.161-0.406v-21.373c0.402-0.103,0.775-0.261,1.161-0.411
				c0.186-0.064,0.388-0.119,0.565-0.189c0.651-0.292,1.271-0.623,1.851-1.016c0.136-0.083,0.244-0.19,0.371-0.283
				c0.445-0.323,0.869-0.665,1.262-1.042c0.184-0.176,0.338-0.368,0.508-0.546c0.309-0.34,0.604-0.68,0.871-1.06
				c0.161-0.214,0.303-0.44,0.447-0.668c0.237-0.384,0.445-0.775,0.639-1.177c0.119-0.25,0.234-0.487,0.334-0.736
				c0.177-0.449,0.309-0.913,0.432-1.389c0.057-0.231,0.132-0.45,0.18-0.677c0.131-0.725,0.222-1.454,0.222-2.216
				c0-0.849-0.097-1.67-0.27-2.465l14.975-7.488c0.046,0.053,0.108,0.091,0.16,0.149c0.401,0.438,0.843,0.844,1.306,1.224
				c0.183,0.154,0.35,0.307,0.539,0.438c0.447,0.323,0.929,0.595,1.415,0.849c0.231,0.128,0.443,0.27,0.685,0.378
				c0.521,0.223,1.066,0.39,1.619,0.545c0.231,0.066,0.446,0.165,0.682,0.214c0.796,0.165,1.616,0.268,2.465,0.268
				c3.268,0,6.225-1.346,8.364-3.493l15.659,9.127c-0.043,0.147-0.06,0.305-0.096,0.445c-0.058,0.232-0.105,0.458-0.147,0.702
				c-0.125,0.674-0.209,1.361-0.209,2.049c0,0.762,0.084,1.496,0.22,2.21c0.048,0.243,0.124,0.462,0.185,0.699
				c0.122,0.465,0.254,0.917,0.422,1.368c0.106,0.259,0.226,0.515,0.344,0.765c0.188,0.397,0.392,0.771,0.617,1.139
				c0.157,0.244,0.306,0.481,0.476,0.714c0.256,0.351,0.533,0.676,0.822,0.996c0.18,0.203,0.356,0.414,0.554,0.601
				c0.368,0.351,0.764,0.665,1.172,0.968c0.155,0.118,0.295,0.248,0.453,0.356c0.575,0.385,1.188,0.713,1.828,0.996
				c0.192,0.084,0.402,0.136,0.6,0.209c0.374,0.142,0.735,0.295,1.133,0.396L240.697,389.761z"/>
		</g>
	</g>
</g>
</svg>
