<?xml version="1.0" encoding="utf-8"?>
<!-- Generator: Adobe Illustrator 15.0.0, SVG Export Plug-In . SVG Version: 6.00 Build 0)  -->
<!DOCTYPE svg PUBLIC "-//W3C//DTD SVG 1.1//EN" "http://www.w3.org/Graphics/SVG/1.1/DTD/svg11.dtd">
<svg version="1.1" id="Layer_1" xmlns="http://www.w3.org/2000/svg" xmlns:xlink="http://www.w3.org/1999/xlink" x="0px" y="0px"
	 width="100px" height="100px" viewBox="0 0 100 100" enable-background="new 0 0 100 100" xml:space="preserve">
<g id="Layer_1_1_">
	<g>
		<circle fill="#FFD05B" cx="50" cy="50" r="49.9"/>
	</g>
</g>
<g id="Layer_3">
</g>
<g id="Layer_2_1_">
	<g>
		<path fill="#324A5E" d="M37.95,80.3h-1.899l-2.4-2.8h-1.5v2.8h-1.6V71.9c1.3,0,2.7,0,4,0c2,0,3,1.3,3,2.8c0,1.2-0.5,2.3-2.101,2.6
			l2.5,2.9V80.3z M32.15,73.4V76.1h2.4c1,0,1.399-0.699,1.399-1.3c0-0.6-0.399-1.3-1.399-1.3h-2.4V73.4z"/>
		<path fill="#324A5E" d="M39.751,77.9c0.1,0.699,0.699,1.3,1.8,1.3c0.5,0,1.2-0.2,1.6-0.601l0.9,0.9c-0.601,0.6-1.601,1-2.5,1
			c-2,0-3.3-1.3-3.3-3.2c0-1.8,1.199-3.1,3.1-3.1c2,0,3.2,1.2,3,3.7H39.751L39.751,77.9z M42.95,76.7c-0.1-0.8-0.699-1.2-1.5-1.2
			c-0.8,0-1.399,0.4-1.699,1.2H42.95z"/>
		<path fill="#324A5E" d="M45.45,82.8V74.4h1.4l0.1,0.8c0.5-0.7,1.2-0.9,1.9-0.9c1.8,0,3,1.4,3,3.101c0,1.699-1.1,3.1-3,3.1
			c-0.6,0-1.5-0.2-2-0.8v3.2h-1.4V82.8z M50.45,77.4c0-0.9-0.6-1.7-1.699-1.7c-1.101,0-1.7,0.8-1.7,1.7c0,0.899,0.7,1.699,1.7,1.699
			S50.45,78.3,50.45,77.4z"/>
		<path fill="#324A5E" d="M58.851,77.4c0,1.699-1.2,3.1-3.1,3.1c-1.9,0-3.101-1.4-3.101-3.1c0-1.7,1.2-3.101,3.101-3.101
			C57.65,74.3,58.851,75.7,58.851,77.4z M54.15,77.4c0,0.899,0.5,1.699,1.601,1.699c1.1,0,1.6-0.8,1.6-1.699
			c0-0.9-0.6-1.801-1.6-1.801S54.15,76.5,54.15,77.4z"/>
		<path fill="#324A5E" d="M61.251,74.4l0.1,0.699c0.5-0.699,1.1-0.8,1.7-0.8c0.6,0,1.2,0.2,1.5,0.601l-0.7,1.199
			c-0.3-0.3-0.6-0.399-1.1-0.399c-0.801,0-1.5,0.399-1.5,1.5v3.1h-1.4V74.4H61.251z"/>
		<path fill="#324A5E" d="M67.551,72.8v1.7h1.6v1.3h-1.6V78.4c0,0.6,0.3,0.8,0.8,0.8c0.2,0,0.5-0.101,0.7-0.2l0.399,1.2
			c-0.399,0.2-0.8,0.2-1.199,0.3c-1.301,0-2.101-0.7-2.101-2.2v-2.6h-1.1v-1.3h1.1v-1.5L67.551,72.8z"/>
	</g>
</g>
<g id="Layer_3_1_">
	<path fill="#324A5E" d="M69.899,68.067H30c-0.4,0-0.7-0.301-0.7-0.701v-50.6c0-0.4,0.3-0.7,0.7-0.7h40c0.399,0,0.699,0.3,0.699,0.7
		v50.6C70.699,67.767,70.3,68.067,69.899,68.067z"/>
	<polygon fill="#FFFFFF" points="33.3,18.967 33.3,60.167 60.8,60.167 60.8,54.366 66.6,54.366 66.6,18.967 	"/>
	<polygon fill="#E6E9EE" points="60.8,60.167 66.6,54.366 60.8,54.366 	"/>
	<path fill="#FF7058" d="M53.199,14.367v-1.1c0-1.8-1.5-3.3-3.3-3.3s-3.3,1.5-3.3,3.3v1.1h-5.8v6.7h18v-6.7H53.199z"/>
	<circle fill="#FFFFFF" cx="49.899" cy="13.267" r="1.6"/>
	<rect x="37.899" y="29.467" fill="#84DBFF" width="3.7" height="1.7"/>
	<rect x="44" y="29.467" fill="#E6E9EE" width="18" height="1.7"/>
	<rect x="37.899" y="34.867" fill="#84DBFF" width="3.7" height="1.7"/>
	<rect x="44" y="34.867" fill="#E6E9EE" width="18" height="1.7"/>
	<rect x="37.899" y="40.167" fill="#84DBFF" width="3.7" height="1.7"/>
	<rect x="44" y="40.167" fill="#E6E9EE" width="18" height="1.7"/>
	<rect x="37.899" y="45.567" fill="#84DBFF" width="3.7" height="1.7"/>
	<rect x="44" y="45.567" fill="#E6E9EE" width="18" height="1.7"/>
</g>
</svg>
