<?xml version="1.0" encoding="utf-8"?>
<!-- Generator: Adobe Illustrator 15.0.0, SVG Export Plug-In . SVG Version: 6.00 Build 0)  -->
<!DOCTYPE svg PUBLIC "-//W3C//DTD SVG 1.1//EN" "http://www.w3.org/Graphics/SVG/1.1/DTD/svg11.dtd">
<svg version="1.1" xmlns="http://www.w3.org/2000/svg" xmlns:xlink="http://www.w3.org/1999/xlink" x="0px" y="0px" width="24px"
	 height="24px" viewBox="0 0 24 24" enable-background="new 0 0 24 24" xml:space="preserve">
<g id="Layer_1">
</g>
<g id="Layer_2">
	<path id="school" fill="#FFFFFF" d="M8.8,14.791c0,0.22,0.179,0.398,0.401,0.398h1.6c0.221,0,0.4-0.179,0.4-0.398v-2.403
		c0-0.22-0.179-0.399-0.4-0.399h-1.6c-0.222,0-0.401,0.179-0.401,0.399V14.791L8.8,14.791z M9.601,12.792H10.4v1.598H9.601V12.792z
		 M9.201,10.388h1.6c0.221,0,0.4-0.179,0.4-0.4V7.586c0-0.222-0.179-0.4-0.4-0.4h-1.6c-0.222,0-0.401,0.178-0.401,0.4v2.402
		C8.801,10.208,8.98,10.387,9.201,10.388L9.201,10.388z M9.601,7.988H10.4v1.6H9.601V7.988z M6.207,7.53L12,4.047l5.794,3.48
		C17.856,7.563,17.928,7.583,18,7.583c0.221,0.001,0.4-0.177,0.401-0.398c0-0.141-0.074-0.272-0.194-0.344L12.4,3.353V0.778h1.999
		v0.798H13.2c-0.222,0-0.401,0.18-0.401,0.401s0.18,0.4,0.401,0.4h1.6c0.223,0,0.4-0.179,0.4-0.4v-1.6c0-0.221-0.178-0.4-0.4-0.4H12
		c-0.221,0-0.4,0.179-0.4,0.4v2.977L5.794,6.841C5.603,6.95,5.536,7.195,5.645,7.387c0.109,0.19,0.354,0.258,0.545,0.149
		C6.196,7.533,6.201,7.53,6.207,7.527V7.53z M4.401,15.194c0.221,0,0.4-0.18,0.4-0.399v-2.403c0-0.219-0.179-0.401-0.4-0.401H2.8
		c-0.221,0-0.4,0.182-0.4,0.401v0.801c0,0.22,0.18,0.4,0.4,0.4c0.222,0,0.401-0.181,0.401-0.4v-0.399H4v1.999
		c0,0.22,0.179,0.398,0.4,0.398V15.194z M7.2,20.4V8.785c0-0.22-0.18-0.4-0.4-0.4S6.4,8.564,6.4,8.785v11.611
		c-0.001,0.221,0.176,0.402,0.397,0.404C7.019,20.8,7.199,20.623,7.2,20.4c0-0.002,0-0.002,0-0.005V20.4z M5.201,22.399H18.8
		c0.221,0,0.4-0.179,0.4-0.399c0-0.222-0.18-0.398-0.4-0.398h-3.6v-4.004h0.4c0.221,0,0.4-0.18,0.4-0.399
		c0-0.223-0.18-0.402-0.4-0.402H8.399c-0.22,0-0.399,0.18-0.399,0.402c0,0.22,0.179,0.399,0.399,0.399h0.4V21.6H5.201
		c-0.216,0.05-0.346,0.277-0.295,0.492C4.942,22.238,5.056,22.354,5.201,22.399L5.201,22.399z M12.4,19.997
		c0.221,0,0.398-0.179,0.398-0.399c0-0.22-0.177-0.4-0.398-0.4v-1.6h1.999V21.6H12.4V20l0,0V19.997z M9.601,17.594H11.6v1.602
		c-0.221,0-0.399,0.178-0.399,0.4c0,0.221,0.179,0.399,0.399,0.399v1.601H9.601V17.59V17.594z M21.2,17.195h-1.602
		c-0.219,0-0.398,0.18-0.398,0.398v2.403c0,0.22,0.18,0.401,0.398,0.401H21.2c0.221,0,0.4-0.182,0.4-0.401v-2.403
		c0.001-0.219-0.178-0.398-0.399-0.4H21.2V17.195z M20.8,19.596H20v-1.6h0.8V19.596L20.8,19.596z M21.2,12.388h-1.602
		c-0.219,0-0.398,0.179-0.398,0.401v2.4c0,0.223,0.18,0.401,0.398,0.401H21.2c0.221,0,0.4-0.179,0.4-0.401v-2.4
		C21.601,12.567,21.421,12.388,21.2,12.388L21.2,12.388L21.2,12.388z M20.8,14.791H20v-1.6h0.8V14.791L20.8,14.791z M20.399,23.2
		H3.601c-0.222,0-0.4,0.179-0.4,0.398c0,0.221,0.179,0.401,0.4,0.401h16.798c0.229,0,0.415-0.171,0.415-0.401
		C20.814,23.37,20.629,23.185,20.399,23.2z M23.6,8.786c-0.22,0-0.399,0.179-0.399,0.4v0.4h-4.4c-0.222,0-0.399,0.179-0.399,0.4
		c0,0.221,0.178,0.4,0.399,0.4h4.4v13.213C23.2,23.819,23.38,24,23.6,24c0.222,0,0.4-0.181,0.4-0.401V9.186
		C24,8.964,23.821,8.785,23.6,8.786L23.6,8.786L23.6,8.786z M12.799,14.791c0,0.222,0.18,0.4,0.401,0.4h1.6
		c0.223,0,0.4-0.179,0.4-0.4v-2.403c0-0.22-0.178-0.399-0.4-0.399h-1.6c-0.222,0-0.401,0.179-0.401,0.399V14.791L12.799,14.791z
		 M13.599,12.792h0.801v1.6h-0.801V12.792L13.599,12.792z M4,19.596c0-0.05-0.023-5.206-2-5.206s-2,5.154-2,5.206
		c0.001,0.95,0.669,1.769,1.6,1.96v2.043C1.6,23.819,1.78,24,2,24c0.221,0,0.399-0.181,0.399-0.401v-2.043
		C3.331,21.364,4,20.546,4,19.596z M2,20.795c-0.662,0-1.2-0.538-1.2-1.199c0-1.994,0.536-4.404,1.2-4.404
		c0.666,0,1.201,2.41,1.201,4.404c0.001,0.661-0.536,1.199-1.198,1.202c-0.001,0-0.001,0-0.002,0V20.795z M17.601,20.396V8.385
		c0-0.221-0.179-0.4-0.4-0.4c-0.221,0-0.399,0.179-0.399,0.4v12.011c0,0.221,0.179,0.402,0.399,0.402
		C17.422,20.798,17.601,20.616,17.601,20.396L17.601,20.396z M13.2,10.386h1.6c0.223,0,0.4-0.179,0.4-0.4V7.583
		c0-0.221-0.178-0.4-0.4-0.4h-1.6c-0.222,0-0.401,0.179-0.401,0.4v2.403c0,0.221,0.18,0.4,0.401,0.401l0,0V10.386z M13.599,7.985
		h0.801v1.601h-0.801V7.985L13.599,7.985z M0.4,13.989c0.221,0,0.399-0.18,0.399-0.399v-3.203h4.401c0.22,0,0.399-0.18,0.399-0.4
		s-0.179-0.4-0.399-0.4H0.8V9.188c0-0.223-0.179-0.402-0.399-0.402C0.18,8.786,0,8.965,0,9.188v4.404
		C0,13.813,0.18,13.989,0.4,13.989z"/>
</g>
</svg>
