<?xml version="1.0" encoding="utf-8"?>
<!-- Generator: Adobe Illustrator 15.0.0, SVG Export Plug-In . SVG Version: 6.00 Build 0)  -->
<!DOCTYPE svg PUBLIC "-//W3C//DTD SVG 1.1//EN" "http://www.w3.org/Graphics/SVG/1.1/DTD/svg11.dtd">
<svg version="1.1" xmlns="http://www.w3.org/2000/svg" xmlns:xlink="http://www.w3.org/1999/xlink" x="0px" y="0px" width="300px"
	 height="100px" viewBox="0 0 300 100" enable-background="new 0 0 300 100" xml:space="preserve">
<g id="Layer_1">
	<g id="Layer_1_1_" opacity="0.54">
	</g>
	<g id="background">
		<g>
			<rect fill="#353535" width="300" height="100"/>
		</g>
	</g>
	<g id="Layer_2">
		<g enable-background="new    ">
			<path fill="#FCFCFC" d="M94.484,25.672c-0.576-0.96-2.16-1.872-3.984-1.872c-2.352,0-3.48,0.984-3.48,2.232
				c0,1.464,1.728,1.872,3.744,2.112c3.504,0.432,6.769,1.344,6.769,5.352c0,3.745-3.313,5.353-7.057,5.353
				c-3.432,0-6.072-1.056-7.321-4.128l2.641-1.368c0.744,1.849,2.688,2.664,4.728,2.664c1.992,0,3.865-0.696,3.865-2.521
				c0-1.584-1.656-2.231-3.889-2.472c-3.432-0.408-6.601-1.32-6.601-5.089c0-3.456,3.408-4.872,6.505-4.896
				c2.616,0,5.328,0.744,6.601,3.337L94.484,25.672z"/>
			<path fill="#FCFCFC" d="M109.916,36.905c-1.368,1.344-2.808,1.872-4.56,1.872c-3.433,0-6.289-2.064-6.289-6.265
				s2.856-6.265,6.289-6.265c1.68,0,2.976,0.479,4.272,1.752l-1.848,1.944c-0.696-0.624-1.56-0.937-2.376-0.937
				c-1.968,0-3.408,1.44-3.408,3.505c0,2.256,1.536,3.456,3.36,3.456c0.936,0,1.872-0.264,2.592-0.984L109.916,36.905z"/>
			<path fill="#FCFCFC" d="M114.403,23.248c0,2.28-3.456,2.28-3.456,0S114.403,20.968,114.403,23.248z M111.211,26.536v11.881h2.928
				V26.536H111.211z"/>
			<path fill="#FCFCFC" d="M119.275,33.545c0.192,1.464,1.464,2.52,3.528,2.52c1.081,0,2.497-0.407,3.168-1.104l1.872,1.848
				c-1.248,1.296-3.288,1.921-5.088,1.921c-4.08,0-6.504-2.521-6.504-6.313c0-3.6,2.448-6.192,6.289-6.192
				c3.96,0,6.433,2.448,5.977,7.321H119.275z M125.708,31.12c-0.192-1.536-1.392-2.304-3.072-2.304c-1.584,0-2.88,0.768-3.312,2.304
				H125.708z"/>
			<path fill="#FCFCFC" d="M139.483,38.417v-6.192c0-1.801-0.984-3.168-2.856-3.168c-1.8,0-3.024,1.512-3.024,3.312v6.049h-2.904
				V26.56h2.616l0.192,1.608c1.2-1.176,2.4-1.776,3.888-1.776c2.785,0,5.017,2.089,5.017,5.809v6.217H139.483z"/>
			<path fill="#FCFCFC" d="M155.084,36.905c-1.369,1.344-2.809,1.872-4.561,1.872c-3.433,0-6.289-2.064-6.289-6.265
				s2.856-6.265,6.289-6.265c1.68,0,2.977,0.479,4.271,1.752l-1.848,1.944c-0.695-0.624-1.561-0.937-2.376-0.937
				c-1.968,0-3.408,1.44-3.408,3.505c0,2.256,1.536,3.456,3.36,3.456c0.936,0,1.872-0.264,2.592-0.984L155.084,36.905z"/>
			<path fill="#FCFCFC" d="M159.354,33.545c0.192,1.464,1.464,2.52,3.528,2.52c1.08,0,2.496-0.407,3.168-1.104l1.873,1.848
				c-1.248,1.296-3.289,1.921-5.089,1.921c-4.08,0-6.505-2.521-6.505-6.313c0-3.6,2.449-6.192,6.289-6.192
				c3.961,0,6.433,2.448,5.977,7.321H159.354z M165.787,31.12c-0.191-1.536-1.393-2.304-3.072-2.304
				c-1.584,0-2.88,0.768-3.313,2.304H165.787z"/>
		</g>
	</g>
	<g>
	</g>
</g>
<g id="Layer_6">
	<g>
		<g>
			<path fill="#E6E6E6" d="M265.75,92.668c13.785,0,25-11.215,25-25s-11.215-25-25-25c-4.491,0-8.92,1.23-12.808,3.558
				c-0.593,0.355-0.784,1.121-0.43,1.715c0.354,0.593,1.122,0.785,1.715,0.43c3.499-2.095,7.483-3.203,11.522-3.203
				c12.406,0,22.5,10.094,22.5,22.5s-10.094,22.5-22.5,22.5s-22.5-10.094-22.5-22.5c0-4.648,1.422-9.121,4.109-12.936
				c0.398-0.564,0.264-1.344-0.301-1.743c-0.566-0.397-1.345-0.263-1.742,0.302c-2.988,4.238-4.566,9.209-4.566,14.377
				C240.75,81.453,251.965,92.668,265.75,92.668z"/>
			<path fill="#E6E6E6" d="M296.641,46.414c-0.393-0.57-1.174-0.712-1.739-0.32c-0.569,0.391-0.712,1.17-0.32,1.739
				c4.036,5.853,6.169,12.712,6.169,19.835c0,19.299-15.701,35-35,35c-7.998,0-15.533-2.635-21.789-7.62
				c-0.539-0.429-1.324-0.341-1.756,0.198c-0.43,0.541-0.342,1.326,0.199,1.757c6.702,5.341,14.775,8.165,23.346,8.165
				c20.678,0,37.5-16.822,37.5-37.5C303.25,60.035,300.964,52.686,296.641,46.414z"/>
			<path fill="#E6E6E6" d="M230.75,67.668c0-19.299,15.701-35,35-35c6.52,0,12.887,1.81,18.41,5.235
				c0.585,0.363,1.355,0.183,1.721-0.404c0.364-0.586,0.184-1.357-0.403-1.721c-5.921-3.67-12.743-5.61-19.728-5.61
				c-20.678,0-37.5,16.822-37.5,37.5c0,7.91,2.442,15.481,7.064,21.895c0.244,0.34,0.627,0.521,1.016,0.521
				c0.252,0,0.509-0.076,0.729-0.235c0.561-0.403,0.688-1.185,0.283-1.744C233.029,82.117,230.75,75.051,230.75,67.668z"/>
		</g>
		<circle fill="#F0C419" cx="265.75" cy="67.668" r="11.25"/>
		<circle fill="#4482C3" cx="290.75" cy="41.418" r="7.5"/>
		<circle fill="#F0785A" cx="249.5" cy="50.168" r="5"/>
		<circle fill="#AF8066" cx="239.5" cy="92.668" r="5"/>
		<circle fill="#E57E25" cx="272" cy="75.168" r="1.25"/>
		<circle fill="#E57E25" cx="274.5" cy="72.668" r="1.25"/>
		<circle fill="#E57E25" cx="269.5" cy="72.668" r="1.25"/>
		<circle fill="#E57E25" cx="272" cy="70.168" r="1.25"/>
		<circle fill="#E57E25" cx="274.5" cy="67.668" r="1.25"/>
		<circle fill="#F3D55B" cx="297" cy="100.168" r="1.25"/>
		<circle fill="#F3D55B" cx="300.75" cy="92.668" r="1.25"/>
		<circle fill="#F3D55B" cx="234.5" cy="41.418" r="1.25"/>
		<circle fill="#F3D55B" cx="233.25" cy="32.668" r="1.25"/>
		<circle fill="#F3D55B" cx="243.25" cy="32.668" r="1.25"/>
		<circle fill="#F3D55B" cx="230.75" cy="101.418" r="1.25"/>
		<circle fill="#F3D55B" cx="284.5" cy="31.418" r="1.25"/>
		<circle fill="#F3D55B" cx="268.25" cy="37.668" r="1.25"/>
		<circle fill="#F3D55B" cx="294.5" cy="81.418" r="1.25"/>
		<circle fill="#F3D55B" cx="235.75" cy="66.418" r="1.25"/>
		<circle fill="#E57E25" cx="267" cy="75.168" r="1.25"/>
		<circle fill="#E57E25" cx="269.5" cy="67.668" r="1.25"/>
	</g>
</g>
<g id="Layer_4" display="none">
	<g display="inline">
		<circle fill="#9FBDC2" cx="271.093" cy="68.115" r="18.647"/>
		<circle fill="#9FCACC" cx="268.736" cy="65.232" r="14.789"/>
		<circle fill="#ADD7DB" cx="267.178" cy="63.018" r="11.949"/>
		<path fill="#F3D55B" d="M279.082,92.65l-2.144-1.151l-0.33-1.098l1.151-2.143c0.211-0.395,0.063-0.886-0.331-1.098
			s-0.886-0.063-1.098,0.331l-1.15,2.143l-1.098,0.331l-2.144-1.151c-0.395-0.212-0.886-0.063-1.098,0.33
			c-0.211,0.395-0.063,0.887,0.331,1.098l2.144,1.151l0.33,1.098l-1.15,2.144c-0.213,0.394-0.063,0.885,0.33,1.098
			c0.394,0.211,0.886,0.063,1.098-0.331l1.15-2.143l1.098-0.332l2.144,1.152c0.395,0.211,0.886,0.063,1.098-0.331
			C279.624,93.354,279.477,92.862,279.082,92.65z"/>
		<circle fill="#F3D55B" cx="262.826" cy="40.67" r="0.81"/>
		<circle fill="#F3D55B" cx="245.407" cy="78.246" r="0.812"/>
		<circle fill="#ECF0F1" cx="244.521" cy="71.329" r="0.811"/>
		<circle fill="#F3D55B" cx="270.404" cy="41.979" r="0.811"/>
		<circle fill="#F3D55B" cx="297.825" cy="59.464" r="0.81"/>
		<circle fill="#F3D55B" cx="280.841" cy="94.516" r="0.81"/>
		<circle fill="#F3D55B" cx="277.47" cy="81.087" r="0.811"/>
		<circle fill="#F3D55B" cx="260.912" cy="59.657" r="0.811"/>
		<path fill="#ECF0F1" d="M261.935,84.354c-2.82,2.217-4.195,2.384-4.562,2.116c-0.43-0.311-0.715-2.13,1.282-6.788
			c1.77-4.13,4.748-9.182,8.392-14.227c8.109-11.233,15.408-16.841,16.903-15.794c0.343,0.247,0.621,1.492-0.421,4.559
			c0.423,0.378,0.823,0.771,1.202,1.181c0.092-0.087,0.17-0.187,0.216-0.313c1.274-3.592,1.26-5.797-0.048-6.74
			c-3.622-2.609-13.446,8.233-19.168,16.159c-3.711,5.139-6.752,10.302-8.568,14.537c-2.014,4.7-2.264,7.642-0.74,8.74
			c0.079,0.057,0.157,0.106,0.24,0.15c1.37,0.736,3.5-0.078,6.496-2.479c0.119-0.096,0.191-0.222,0.24-0.355
			C262.905,84.874,262.417,84.626,261.935,84.354z"/>
	</g>
</g>
<g id="Layer_5">
	<g>
		<path fill="#E6E6E6" d="M298.26,70.838l-0.911,0.203l-0.264-0.592c-0.145-0.327-0.216-0.684-0.207-1.041l0,0
			c0.008-0.277,0.063-0.551,0.161-0.811l0.074-0.189c0.038-0.099,0.162-0.126,0.237-0.055l0.146,0.142
			c0.202,0.192,0.367,0.417,0.493,0.665l0,0c0.16,0.319,0.248,0.672,0.255,1.029L298.26,70.838z"/>
		<path fill="#E6E6E6" d="M293.587,71.883l-0.913,0.203l-0.263-0.592c-0.145-0.327-0.216-0.684-0.207-1.041l0,0
			c0.008-0.278,0.063-0.552,0.161-0.811l0.075-0.191c0.037-0.097,0.161-0.124,0.235-0.052l0.148,0.141
			c0.201,0.192,0.367,0.417,0.491,0.665l0,0c0.16,0.319,0.248,0.672,0.257,1.029L293.587,71.883z"/>
		<path fill="#E6E6E6" d="M294.636,66.527l-0.315-0.201l-0.2,0.316c-0.882,1.391-0.691,3.153,0.352,4.322
			c0.002,0.002,0.002,0.003,0.003,0.004c0.237,0.263,0.413,0.575,0.49,0.921L295,72.045l1.14-0.255l-0.034-0.155
			c-0.077-0.346-0.05-0.704,0.052-1.043c0-0.001,0.001-0.001,0.002-0.002C296.605,69.086,296.026,67.409,294.636,66.527z"/>
		
			<line fill="none" stroke="#F29C1F" stroke-width="2" stroke-linecap="round" stroke-miterlimit="10" x1="292.923" y1="72.389" x2="292.974" y2="72.617"/>
		
			<line fill="none" stroke="#F29C1F" stroke-width="2" stroke-linecap="round" stroke-miterlimit="10" x1="293.493" y1="72.262" x2="293.544" y2="72.491"/>
		
			<line fill="none" stroke="#F29C1F" stroke-width="2" stroke-linecap="round" stroke-miterlimit="10" x1="297.596" y1="71.344" x2="297.647" y2="71.573"/>
		
			<line fill="none" stroke="#F29C1F" stroke-width="2" stroke-linecap="round" stroke-miterlimit="10" x1="298.167" y1="71.217" x2="298.218" y2="71.445"/>
		<g>
			<path fill="#A5A5A4" d="M296.304,69.55c0.001,0.271-0.025,0.542-0.088,0.811l0.983,0.345l-0.113-0.255
				c-0.098-0.221-0.161-0.454-0.188-0.69L296.304,69.55z"/>
			<path fill="#A5A5A4" d="M293.898,70.088l-0.449,0.443c0.074,0.227,0.116,0.463,0.122,0.703l0.007,0.283l0.744-0.734
				C294.153,70.567,294.013,70.333,293.898,70.088z"/>
		</g>
		<circle fill="#556080" cx="294.678" cy="67.928" r="0.584"/>
		<circle fill="#8697CB" cx="295.01" cy="69.41" r="0.35"/>
		<circle fill="#8697CB" cx="295.29" cy="70.663" r="0.351"/>
		<polygon fill="#38454F" points="296.433,72.563 295.064,72.868 295,72.045 296.14,71.79 		"/>
		<path fill="#546A79" d="M295.47,72.538c-0.063,0.015-0.126-0.024-0.14-0.089l-0.026-0.114c-0.014-0.062,0.026-0.124,0.089-0.14
			c0.063-0.013,0.126,0.027,0.14,0.09l0.025,0.113C295.572,72.463,295.532,72.523,295.47,72.538z"/>
		<path fill="#546A79" d="M295.926,72.437c-0.063,0.014-0.125-0.025-0.139-0.089l-0.026-0.114c-0.014-0.062,0.025-0.125,0.089-0.14
			c0.063-0.014,0.125,0.026,0.139,0.088l0.025,0.115C296.028,72.36,295.988,72.422,295.926,72.437z"/>
	</g>
	<path fill="#F3D55B" d="M291.841,5.59l-2.987,2.319l-1.768-0.223L284.767,4.7c-0.426-0.549-1.218-0.649-1.768-0.223
		c-0.549,0.426-0.648,1.218-0.222,1.768l2.318,2.987l-0.223,1.768l-2.986,2.319c-0.549,0.426-0.648,1.218-0.223,1.768
		c0.427,0.549,1.219,0.649,1.768,0.223l2.987-2.319l1.768,0.222l2.318,2.987c0.427,0.549,1.219,0.649,1.768,0.222
		c0.55-0.426,0.649-1.218,0.223-1.768l-2.318-2.986l0.222-1.768l2.987-2.319c0.549-0.426,0.648-1.218,0.223-1.768
		C293.182,5.263,292.39,5.163,291.841,5.59z"/>
	<circle fill="#F3D55B" cx="295.6" cy="4.268" r="1.26"/>
	<g>
		<path fill="#FCFCFC" d="M68.46,86.537c-0.215,0.082-0.323,0.123-0.472,0.055l-9.368-1.018c-0.62-0.013-1.079-0.576-0.959-1.237
			c0.012-0.62,0.578-1.079,1.238-0.959l9.367,1.018c0.62,0.012,1.079,0.577,0.959,1.236C69.133,86.038,68.891,86.375,68.46,86.537"
			/>
		<path fill="#FCFCFC" d="M40.615,45.361c-0.646,0.244-1.24-0.024-1.484-0.67l-3.251-8.618c-0.244-0.646,0.024-1.24,0.671-1.484
			c0.646-0.244,1.239,0.025,1.482,0.671l3.252,8.617C41.529,44.524,41.262,45.117,40.615,45.361"/>
		<path fill="#FCFCFC" d="M8.234,65.21c-0.215,0.081-0.472,0.056-0.728,0.028l-7.739-2.247c-0.553-0.161-0.945-0.874-0.785-1.427
			c0.161-0.554,0.874-0.945,1.427-0.784l7.739,2.247c0.553,0.16,0.945,0.873,0.784,1.426C8.84,64.859,8.558,65.088,8.234,65.21"/>
		<path fill="#FCFCFC" d="M25.372,102.798c-0.431,0.162-0.834,0.069-1.213-0.28c-0.418-0.458-0.448-1.186-0.098-1.563l6.36-6.952
			c0.457-0.42,1.184-0.448,1.563-0.099c0.419,0.458,0.448,1.186,0.098,1.563l-6.359,6.955
			C25.695,102.677,25.587,102.716,25.372,102.798"/>
		<path fill="#FCFCFC" d="M27.201,75.035c1.292-0.488,2.681-0.396,3.801,0.289l2.729-2.878c-0.229-0.28-0.352-0.605-0.474-0.928
			c-0.772-2.046,0.019-4.19,1.646-5.42l-1.748-4.632c-1.994,0.26-4.044-0.935-4.816-2.981c-0.123-0.324-0.244-0.646-0.218-0.902
			l-7.79-0.753l-5.352,5.712c0.229,0.281,0.352,0.606,0.474,0.929c0.773,2.047-0.018,4.191-1.646,5.42l3.049,8.08l7.682,0.791
			C24.927,76.508,25.908,75.521,27.201,75.035 M31.614,77.923c-0.108,0.04-0.215,0.081-0.364,0.015
			c-0.363,0.015-0.661-0.12-0.85-0.295c-0.608-0.634-1.524-0.779-2.386-0.455c-0.861,0.327-1.345,1.002-1.492,1.917
			c-0.027,0.257-0.16,0.554-0.443,0.784c-0.283,0.229-0.498,0.31-0.902,0.218l-9.368-1.02c-0.364,0.014-0.701-0.228-0.863-0.657
			l-3.659-9.695c-0.244-0.646,0.024-1.24,0.67-1.483c1.185-0.447,1.788-1.782,1.341-2.969c-0.121-0.321-0.352-0.605-0.58-0.888
			c-0.419-0.456-0.448-1.185-0.099-1.562l6.36-6.954c0.283-0.229,0.605-0.351,0.969-0.365l9.368,1.019
			c0.62,0.012,1.079,0.575,0.96,1.237c0.122,0.322,0.136,0.688,0.257,1.01c0.447,1.186,1.783,1.789,2.968,1.342
			c0.646-0.245,1.24,0.025,1.483,0.671l2.439,6.463c0.244,0.646-0.024,1.238-0.67,1.484c-1.186,0.446-1.79,1.782-1.342,2.968
			c0.122,0.322,0.352,0.604,0.581,0.887c0.419,0.457,0.447,1.185,0.098,1.563l-4.02,4.348
			C31.896,77.692,31.722,77.883,31.614,77.923"/>
		<path fill="#FCFCFC" d="M48.745,66.904c1.292-0.487,2.681-0.396,3.8,0.29l2.689-2.985c-0.229-0.283-0.311-0.496-0.433-0.819
			c-0.772-2.048-0.089-4.152,1.538-5.38l-3.049-8.081l-7.682-0.792c-0.388,1.255-1.37,2.24-2.663,2.728
			c-1.292,0.487-2.68,0.397-3.8-0.288l-2.73,2.877c0.337,0.24,0.459,0.564,0.582,0.887c0.773,2.048-0.018,4.192-1.646,5.42
			l1.748,4.633c1.994-0.26,4.044,0.935,4.817,2.981c0.122,0.322,0.244,0.647,0.218,0.903l3.949,0.355
			C46.47,68.378,47.453,67.393,48.745,66.904 M53.157,69.793c-0.43,0.162-0.835,0.068-1.213-0.281
			c-0.607-0.631-1.524-0.779-2.386-0.453c-0.862,0.325-1.346,1-1.492,1.917c-0.012,0.62-0.577,1.079-1.237,0.959l-5.999-0.567
			c-0.62-0.013-1.079-0.576-0.958-1.237c-0.015-0.364-0.028-0.728-0.15-1.05c-0.448-1.187-1.784-1.789-2.967-1.341
			c-0.647,0.243-1.24-0.025-1.485-0.672l-2.438-6.462c-0.244-0.647,0.024-1.241,0.671-1.484c1.184-0.446,1.788-1.783,1.341-2.968
			c-0.122-0.322-0.353-0.606-0.581-0.889c-0.419-0.456-0.447-1.185-0.098-1.563l4.127-4.388c0.458-0.419,1.186-0.448,1.564-0.099
			c0.607,0.633,1.524,0.779,2.386,0.453c0.86-0.324,1.345-1,1.491-1.916c0.013-0.619,0.578-1.078,1.238-0.959l9.367,1.018
			c0.405,0.094,0.85,0.296,1.013,0.728l3.658,9.693c0.203,0.538-0.024,1.24-0.671,1.483c-1.185,0.447-1.788,1.782-1.341,2.968
			c0.122,0.322,0.352,0.605,0.582,0.888c0.418,0.457,0.447,1.185-0.011,1.604l-4.087,4.495
			C53.439,69.563,53.265,69.752,53.157,69.793"/>
		<path fill="#FCFCFC" d="M38.231,91.545l7.791,0.753l5.352-5.712c-0.189-0.174-0.312-0.496-0.434-0.821
			c-0.772-2.046,0.019-4.189,1.647-5.42l-1.749-4.632c-1.994,0.26-4.045-0.935-4.817-2.981c-0.122-0.323-0.244-0.646-0.216-0.901
			l-3.95-0.356c-0.388,1.254-1.37,2.24-2.663,2.728c-1.292,0.487-2.681,0.396-3.801-0.289l-2.729,2.876
			c0.229,0.282,0.352,0.606,0.474,0.929c0.771,2.047-0.019,4.19-1.647,5.421l1.708,4.524c2.209-0.342,3.963,0.719,4.817,2.981
			C38.136,90.967,38.258,91.29,38.231,91.545 M46.917,94.667c-0.215,0.082-0.324,0.122-0.472,0.055l-9.367-1.018
			c-0.62-0.013-1.079-0.577-0.959-1.236c-0.015-0.365-0.028-0.728-0.15-1.053c-0.529-1.4-1.567-1.869-2.968-1.339
			c-0.646,0.243-1.239-0.025-1.484-0.673l-2.438-6.462c-0.244-0.646,0.024-1.239,0.67-1.485c1.185-0.446,1.789-1.781,1.342-2.966
			c-0.122-0.324-0.352-0.605-0.581-0.889c-0.419-0.458-0.447-1.186,0.01-1.603l4.02-4.349c0.458-0.42,1.186-0.447,1.563-0.097
			c0.607,0.631,1.524,0.777,2.385,0.452c0.861-0.324,1.346-0.999,1.492-1.915c0.012-0.62,0.578-1.08,1.238-0.961l5.998,0.568
			c0.62,0.011,1.079,0.576,0.959,1.236c-0.093,0.404-0.079,0.769,0.043,1.092c0.447,1.185,1.782,1.788,2.968,1.342
			c0.646-0.244,1.239,0.024,1.483,0.67l2.439,6.464c0.244,0.647-0.024,1.239-0.67,1.483c-1.185,0.446-1.789,1.782-1.341,2.968
			c0.122,0.323,0.351,0.605,0.581,0.887c0.418,0.457,0.447,1.186,0.098,1.563l-6.361,6.952
			C47.239,94.546,47.132,94.586,46.917,94.667"/>
	</g>
	<g>
		<path fill="#F0C419" d="M35.941,65.584c-2.37,0.894-3.577,3.565-2.683,5.935c0.895,2.369,3.565,3.577,5.935,2.683
			c2.371-0.895,3.577-3.565,2.683-5.934C40.981,65.896,38.311,64.689,35.941,65.584"/>
		<path fill="#F0C419" d="M31.063,52.657c-2.37,0.895-3.577,3.564-2.683,5.935c0.895,2.37,3.566,3.578,5.936,2.684
			c2.369-0.896,3.576-3.565,2.682-5.936C36.103,52.971,33.433,51.763,31.063,52.657"/>
		<path fill="#F0C419" d="M9.519,60.788c-2.37,0.894-3.577,3.564-2.684,5.934c0.895,2.37,3.565,3.578,5.936,2.685
			c2.37-0.896,3.577-3.565,2.683-5.936C14.56,61.101,11.889,59.894,9.519,60.788"/>
		<path fill="#F0C419" d="M48.745,66.904c-2.369,0.896-3.578,3.564-2.683,5.936c0.894,2.37,3.565,3.575,5.936,2.682
			c2.369-0.894,3.576-3.563,2.682-5.935C53.785,67.217,51.115,66.01,48.745,66.904"/>
		<path fill="#F0C419" d="M53.623,79.831c-2.37,0.894-3.577,3.565-2.683,5.934c0.894,2.371,3.565,3.578,5.936,2.685
			c2.37-0.896,3.576-3.565,2.682-5.936C58.663,80.144,55.993,78.937,53.623,79.831"/>
		<path fill="#F0C419" d="M57.484,57.455c-2.37,0.893-3.577,3.564-2.683,5.933c0.895,2.371,3.565,3.578,5.935,2.683
			c2.37-0.894,3.577-3.564,2.683-5.934C62.525,57.767,59.854,56.56,57.484,57.455"/>
		<path fill="#F0C419" d="M27.201,75.035c-2.37,0.894-3.577,3.564-2.683,5.934c0.895,2.371,3.566,3.578,5.935,2.684
			c2.371-0.896,3.578-3.565,2.683-5.936S29.571,74.14,27.201,75.035"/>
		<path fill="#F0C419" d="M32.08,87.96c-2.369,0.896-3.578,3.566-2.683,5.936s3.565,3.577,5.935,2.682
			c2.37-0.893,3.577-3.563,2.683-5.934C37.039,88.058,34.665,86.985,32.08,87.96"/>
		<path fill="#F0C419" d="M39.803,43.206c-2.371,0.895-3.578,3.565-2.684,5.936c0.894,2.369,3.565,3.577,5.935,2.682
			c2.37-0.895,3.577-3.563,2.683-5.934C44.842,43.52,42.171,42.312,39.803,43.206"/>
	</g>
</g>
<g id="Layer_3">
</g>
</svg>
