<?xml version="1.0" encoding="utf-8"?>
<!-- Generator: Adobe Illustrator 15.0.0, SVG Export Plug-In . SVG Version: 6.00 Build 0)  -->
<!DOCTYPE svg PUBLIC "-//W3C//DTD SVG 1.1//EN" "http://www.w3.org/Graphics/SVG/1.1/DTD/svg11.dtd">
<svg version="1.1" xmlns="http://www.w3.org/2000/svg" xmlns:xlink="http://www.w3.org/1999/xlink" x="0px" y="0px" width="350px"
	 height="500px" viewBox="0 0 350 500" enable-background="new 0 0 350 500" xml:space="preserve">
<g id="Layer_2">
	<rect fill="#353535" width="350" height="500"/>
</g>
<g id="Layer_3">
	<g>
		<g>
			<path fill="#E6E6E5" d="M247.787,142.585c17.612,4.47,35.578-6.222,40.048-23.834c4.47-17.613-6.223-35.578-23.835-40.048
				c-5.738-1.456-11.795-1.321-17.517,0.393c-0.872,0.261-1.366,1.178-1.105,2.052c0.261,0.872,1.18,1.367,2.052,1.106
				c5.15-1.542,10.6-1.666,15.76-0.356c15.851,4.023,25.474,20.191,21.451,36.042c-4.023,15.85-20.191,25.474-36.043,21.451
				c-15.85-4.022-25.474-20.192-21.451-36.042c1.508-5.939,4.775-11.192,9.445-15.195c0.692-0.592,0.772-1.631,0.181-2.324
				c-0.595-0.692-1.633-0.772-2.324-0.18c-5.191,4.447-8.819,10.285-10.495,16.889C219.483,120.15,230.175,138.115,247.787,142.585z
				"/>
			<path fill="#E6E6E5" d="M302.252,93.505c-0.316-0.855-1.269-1.29-2.118-0.972c-0.854,0.315-1.289,1.264-0.974,2.118
				c3.259,8.786,3.76,18.242,1.45,27.342c-6.258,24.656-31.409,39.625-56.065,33.368c-10.219-2.593-18.991-8.403-25.367-16.801
				c-0.551-0.723-1.581-0.865-2.309-0.316c-0.724,0.552-0.867,1.583-0.314,2.309c6.831,8.997,16.229,15.223,27.18,18.002
				c26.418,6.705,53.365-9.333,60.069-35.751C306.279,113.051,305.742,102.92,302.252,93.505z"/>
			<path fill="#E6E6E5" d="M211.178,99.295c6.258-24.657,31.408-39.626,56.064-33.369c8.33,2.114,15.878,6.491,21.824,12.658
				c0.63,0.654,1.673,0.673,2.329,0.042s0.675-1.675,0.043-2.33c-6.374-6.609-14.461-11.3-23.386-13.565
				c-26.418-6.705-53.365,9.333-60.07,35.752c-2.564,10.106-1.898,20.571,1.927,30.263c0.202,0.514,0.633,0.869,1.129,0.995
				c0.321,0.082,0.675,0.067,1.006-0.064c0.848-0.334,1.263-1.291,0.929-2.137C209.403,118.495,208.783,108.728,211.178,99.295z"/>
		</g>
		<circle fill="#EFC41C" cx="255.894" cy="110.644" r="14.829"/>
		<circle fill="#4482C4" cx="296.347" cy="85.213" r="9.886"/>
		<circle fill="#EF785A" cx="240.807" cy="83.017" r="6.591"/>
		<circle fill="#AF8066" cx="214.25" cy="134.073" r="6.591"/>
		<circle fill="#E47E26" cx="261.447" cy="122.252" r="1.648"/>
		<circle fill="#E47E26" cx="265.452" cy="119.869" r="1.648"/>
		<circle fill="#E47E26" cx="259.063" cy="118.248" r="1.648"/>
		<circle fill="#E47E26" cx="263.068" cy="115.865" r="1.648"/>
		<circle fill="#E47E26" cx="267.073" cy="113.481" r="1.648"/>
		<circle fill="#F3D55B" cx="285.281" cy="162.3" r="1.648"/>
		<circle fill="#F3D55B" cx="292.504" cy="153.934" r="1.648"/>
		<circle fill="#F3D55B" cx="224.479" cy="66.973" r="1.648"/>
		<circle fill="#F3D55B" cx="225.72" cy="55.389" r="1.648"/>
		<circle fill="#F3D55B" cx="238.496" cy="58.631" r="1.648"/>
		<circle fill="#F3D55B" cx="200.233" cy="142.415" r="1.648"/>
		<circle fill="#F3D55B" cx="291.604" cy="70.409" r="1.648"/>
		<circle fill="#F3D55B" cx="268.815" cy="73.126" r="1.648"/>
		<circle fill="#F3D55B" cx="288.167" cy="137.533" r="1.648"/>
		<circle fill="#F3D55B" cx="217.97" cy="99.32" r="1.648"/>
		<circle fill="#E47E26" cx="255.059" cy="120.631" r="1.648"/>
		<circle fill="#E47E26" cx="260.685" cy="111.86" r="1.648"/>
	</g>
	<path fill="#F3D55B" d="M309.357,39.792l-4.568,1.994l-2.188-0.858l-1.994-4.568c-0.365-0.839-1.345-1.224-2.187-0.857
		c-0.839,0.367-1.223,1.346-0.855,2.186l1.994,4.568l-0.858,2.186l-4.567,1.995c-0.84,0.366-1.225,1.346-0.857,2.186
		s1.347,1.224,2.186,0.857l4.569-1.994l2.186,0.857l1.994,4.568c0.367,0.84,1.347,1.224,2.186,0.857
		c0.842-0.367,1.226-1.346,0.858-2.187l-1.994-4.567l0.856-2.187l4.568-1.995c0.84-0.367,1.224-1.346,0.858-2.186
		C311.177,39.808,310.197,39.424,309.357,39.792z"/>
	<circle fill="#F3D55B" cx="314.589" cy="39.321" r="1.66"/>
</g>
<g id="Layer_4">
	<g opacity="0.42">
		<path fill="#E6E6E5" d="M846.685,314.94l-2.366,0.528l-0.688-1.538c-0.375-0.851-0.561-1.775-0.535-2.704l0,0
			c0.019-0.721,0.16-1.431,0.418-2.106l0.192-0.491c0.099-0.257,0.421-0.328,0.616-0.143l0.381,0.367
			c0.526,0.5,0.954,1.084,1.282,1.729l0,0c0.415,0.83,0.645,1.745,0.66,2.673L846.685,314.94z"/>
		<path fill="#E6E6E5" d="M834.545,317.655l-2.373,0.528l-0.681-1.538c-0.378-0.85-0.562-1.776-0.539-2.704l0,0
			c0.019-0.724,0.161-1.435,0.418-2.106l0.195-0.497c0.096-0.251,0.418-0.322,0.613-0.135l0.384,0.365
			c0.523,0.501,0.954,1.084,1.276,1.729l0,0c0.415,0.829,0.645,1.745,0.666,2.674L834.545,317.655z"/>
		<path fill="#E6E6E5" d="M837.268,303.742l-0.817-0.523l-0.521,0.822c-2.292,3.614-1.797,8.192,0.913,11.229
			c0.004,0.004,0.004,0.008,0.007,0.011c0.617,0.682,1.075,1.493,1.273,2.391l0.093,0.404l2.961-0.662l-0.09-0.403
			c-0.201-0.898-0.13-1.828,0.134-2.71c0-0.002,0.003-0.002,0.006-0.005C842.385,310.389,840.883,306.033,837.268,303.742z"/>
		
			<line fill="none" stroke="#F19C22" stroke-width="2" stroke-linecap="round" stroke-miterlimit="10" x1="832.819" y1="318.969" x2="832.95" y2="319.563"/>
		
			<line fill="none" stroke="#F19C22" stroke-width="2" stroke-linecap="round" stroke-miterlimit="10" x1="834.3" y1="318.639" x2="834.434" y2="319.234"/>
		
			<line fill="none" stroke="#F19C22" stroke-width="2" stroke-linecap="round" stroke-miterlimit="10" x1="844.959" y1="316.255" x2="845.093" y2="316.852"/>
		
			<line fill="none" stroke="#F19C22" stroke-width="2" stroke-linecap="round" stroke-miterlimit="10" x1="846.442" y1="315.926" x2="846.576" y2="316.519"/>
		<g>
			<path fill="#A5A5A4" d="M841.602,311.595c0.003,0.705-0.065,1.408-0.227,2.105l2.553,0.895l-0.294-0.661
				c-0.254-0.573-0.419-1.18-0.49-1.793L841.602,311.595z"/>
			<path fill="#A5A5A4" d="M835.354,312.992l-1.168,1.151c0.192,0.589,0.304,1.202,0.319,1.827l0.016,0.735l1.933-1.908
				C836.017,314.237,835.651,313.629,835.354,312.992z"/>
		</g>
		<path fill="#566181" d="M837.048,305.901c0.818-0.183,1.63,0.33,1.812,1.146c0.184,0.819-0.331,1.631-1.151,1.813
			c-0.814,0.183-1.626-0.335-1.81-1.15C835.713,306.893,836.229,306.085,837.048,305.901z"/>
		<path fill="#8797CA" d="M838.042,310.343c0.489-0.111,0.976,0.199,1.087,0.686c0.109,0.495-0.201,0.982-0.689,1.092
			c-0.49,0.108-0.977-0.201-1.088-0.694C837.24,310.937,837.553,310.45,838.042,310.343z"/>
		<path fill="#8797CA" d="M838.768,313.597c0.488-0.107,0.981,0.202,1.09,0.692c0.111,0.491-0.201,0.978-0.69,1.085
			c-0.489,0.111-0.977-0.197-1.088-0.689C837.968,314.195,838.277,313.708,838.768,313.597z"/>
		<polygon fill="#394650" points="841.937,319.421 838.383,320.215 838.216,318.076 841.177,317.414 		"/>
		<path fill="#556B7A" d="M839.437,319.357c-0.165,0.039-0.328-0.063-0.363-0.23l-0.067-0.298c-0.037-0.159,0.067-0.322,0.229-0.362
			c0.163-0.032,0.328,0.071,0.362,0.233l0.064,0.295C839.702,319.162,839.598,319.318,839.437,319.357z"/>
		<path fill="#556B7A" d="M840.619,319.095c-0.164,0.035-0.325-0.067-0.359-0.231l-0.067-0.298
			c-0.038-0.159,0.064-0.324,0.229-0.361c0.164-0.036,0.325,0.068,0.362,0.228l0.065,0.299
			C840.886,318.896,840.783,319.056,840.619,319.095z"/>
	</g>
	<path opacity="0.42" fill="#F3D55B" d="M830.007,145.431l-7.76,6.023l-4.593-0.579l-6.024-7.758
		c-1.106-1.425-3.163-1.684-4.592-0.578c-1.428,1.109-1.685,3.166-0.576,4.592l6.022,7.761l-0.58,4.591l-7.756,6.026
		c-1.425,1.106-1.686,3.165-0.579,4.592c1.108,1.425,3.165,1.684,4.594,0.578l7.76-6.024l4.591,0.576l6.024,7.762
		c1.108,1.428,3.165,1.686,4.591,0.574c1.428-1.106,1.688-3.163,0.579-4.592l-6.022-7.758l0.576-4.592l7.76-6.021
		c1.425-1.109,1.686-3.167,0.579-4.592C833.492,144.581,831.435,144.322,830.007,145.431z"/>
	<path opacity="0.42" fill="#F3D55B" d="M837.767,139.414c1.428-1.112,3.485-0.851,4.591,0.576c1.111,1.43,0.854,3.483-0.576,4.59
		c-1.431,1.109-3.482,0.855-4.594-0.575C836.078,142.58,836.339,140.52,837.767,139.414z"/>
	<g opacity="0.42">
		<path fill="#FDFEFF" d="M249.684,355.727c-0.561,0.212-0.84,0.319-1.227,0.141l-24.336-2.642
			c-1.611-0.035-2.804-1.498-2.492-3.216c0.032-1.611,1.502-2.804,3.216-2.49l24.335,2.642c1.611,0.031,2.804,1.501,2.492,3.212
			C251.432,354.43,250.802,355.305,249.684,355.727"/>
		<path fill="#FDFEFF" d="M177.344,248.754c-1.678,0.632-3.221-0.064-3.856-1.742l-8.445-22.389
			c-0.634-1.677,0.062-3.222,1.743-3.854c1.678-0.632,3.218,0.063,3.852,1.742l8.448,22.387
			C179.719,246.578,179.024,248.121,177.344,248.754"/>
		<path fill="#FDFEFF" d="M93.222,300.319c-0.56,0.211-1.226,0.145-1.891,0.073l-20.105-5.837c-1.438-0.419-2.456-2.271-2.039-3.707
			c0.417-1.438,2.27-2.456,3.707-2.036l20.105,5.837c1.438,0.417,2.455,2.268,2.037,3.703
			C94.796,299.409,94.063,300.002,93.222,300.319"/>
		<path fill="#FDFEFF" d="M137.743,397.97c-1.12,0.421-2.168,0.182-3.15-0.728c-1.088-1.19-1.163-3.08-0.255-4.062l16.523-18.062
			c1.188-1.091,3.076-1.165,4.06-0.256c1.088,1.189,1.163,3.079,0.254,4.059l-16.521,18.068
			C138.583,397.655,138.303,397.757,137.743,397.97"/>
		<path fill="#FDFEFF" d="M142.495,325.846c3.358-1.269,6.965-1.031,9.875,0.749l7.091-7.476c-0.597-0.729-0.914-1.574-1.23-2.41
			c-2.006-5.315,0.048-10.887,4.275-14.08l-4.539-12.034c-5.18,0.675-10.507-2.427-12.513-7.746
			c-0.318-0.842-0.635-1.678-0.567-2.343l-20.236-1.956l-13.904,14.839c0.597,0.731,0.914,1.575,1.23,2.413
			c2.01,5.316-0.048,10.889-4.276,14.08l7.922,20.991l19.956,2.055C136.588,329.671,139.137,327.108,142.495,325.846
			 M153.958,333.347c-0.28,0.104-0.559,0.21-0.944,0.038c-0.944,0.037-1.715-0.313-2.207-0.767c-1.58-1.646-3.96-2.024-6.198-1.182
			c-2.238,0.851-3.495,2.604-3.876,4.979c-0.07,0.668-0.416,1.439-1.151,2.038c-0.734,0.593-1.292,0.804-2.344,0.565l-24.336-2.648
			c-0.945,0.036-1.821-0.592-2.243-1.707l-9.505-25.188c-0.634-1.681,0.063-3.224,1.741-3.854c3.078-1.163,4.646-4.631,3.484-7.713
			c-0.314-0.835-0.915-1.574-1.508-2.307c-1.088-1.185-1.163-3.077-0.256-4.058l16.522-18.065c0.734-0.596,1.572-0.91,2.519-0.949
			l24.336,2.646c1.61,0.029,2.803,1.495,2.494,3.214c0.315,0.838,0.353,1.786,0.669,2.624c1.159,3.08,4.631,4.648,7.709,3.486
			c1.679-0.638,3.222,0.065,3.854,1.742l6.336,16.791c0.635,1.675-0.062,3.217-1.739,3.856c-3.082,1.158-4.65,4.629-3.486,7.71
			c0.315,0.836,0.913,1.567,1.509,2.303c1.088,1.188,1.16,3.077,0.253,4.059l-10.442,11.296
			C154.692,332.749,154.241,333.243,153.958,333.347"/>
		<path fill="#FDFEFF" d="M198.465,304.722c3.356-1.266,6.964-1.03,9.871,0.754l6.987-7.756c-0.596-0.736-0.807-1.289-1.123-2.128
			c-2.008-5.32-0.232-10.788,3.995-13.979l-7.921-20.994l-19.957-2.057c-1.007,3.261-3.56,5.821-6.918,7.086
			c-3.358,1.266-6.964,1.033-9.872-0.748l-7.093,7.475c0.875,0.624,1.193,1.465,1.512,2.303c2.008,5.32-0.048,10.892-4.278,14.08
			l4.541,12.036c5.18-0.674,10.508,2.428,12.515,7.745c0.316,0.838,0.635,1.682,0.566,2.349l10.258,0.922
			C192.555,308.55,195.107,305.99,198.465,304.722 M209.928,312.226c-1.118,0.421-2.17,0.178-3.152-0.729
			c-1.578-1.641-3.961-2.026-6.198-1.178c-2.239,0.845-3.496,2.598-3.877,4.979c-0.03,1.61-1.499,2.804-3.214,2.492l-15.584-1.475
			c-1.61-0.032-2.804-1.496-2.49-3.213c-0.039-0.947-0.074-1.892-0.39-2.729c-1.163-3.083-4.633-4.647-7.708-3.482
			c-1.682,0.63-3.223-0.066-3.857-1.746l-6.336-16.788c-0.634-1.683,0.063-3.226,1.743-3.855c3.076-1.16,4.645-4.634,3.485-7.71
			c-0.316-0.838-0.916-1.577-1.511-2.31c-1.087-1.185-1.161-3.077-0.255-4.059l10.724-11.399c1.188-1.089,3.08-1.165,4.063-0.256
			c1.578,1.644,3.96,2.024,6.199,1.178c2.235-0.843,3.494-2.6,3.873-4.979c0.035-1.609,1.501-2.802,3.217-2.492l24.335,2.645
			c1.052,0.242,2.208,0.768,2.632,1.889l9.503,25.184c0.528,1.398-0.063,3.222-1.743,3.854c-3.078,1.161-4.644,4.631-3.484,7.71
			c0.317,0.838,0.913,1.573,1.512,2.307c1.086,1.188,1.161,3.077-0.027,4.169l-10.619,11.678
			C210.66,311.628,210.208,312.12,209.928,312.226"/>
		<path fill="#FDFEFF" d="M171.15,368.736l20.24,1.956l13.903-14.839c-0.493-0.452-0.81-1.29-1.128-2.135
			c-2.005-5.314,0.049-10.883,4.279-14.08l-4.543-12.034c-5.179,0.676-10.508-2.427-12.515-7.745
			c-0.315-0.84-0.633-1.679-0.561-2.342l-10.263-0.925c-1.008,3.258-3.559,5.818-6.916,7.086c-3.358,1.266-6.965,1.029-9.875-0.751
			l-7.089,7.472c0.596,0.732,0.912,1.574,1.229,2.413c2.005,5.316-0.048,10.886-4.278,14.082l4.438,11.755
			c5.738-0.89,10.295,1.866,12.514,7.745C170.904,367.233,171.22,368.073,171.15,368.736 M193.714,376.848
			c-0.56,0.211-0.841,0.315-1.227,0.14l-24.335-2.642c-1.611-0.034-2.803-1.501-2.491-3.212c-0.038-0.95-0.073-1.892-0.391-2.735
			c-1.374-3.638-4.072-4.855-7.71-3.479c-1.678,0.632-3.221-0.065-3.854-1.749l-6.336-16.787c-0.634-1.679,0.062-3.219,1.741-3.857
			c3.078-1.161,4.647-4.628,3.485-7.705c-0.315-0.843-0.913-1.574-1.51-2.31c-1.089-1.189-1.162-3.08,0.025-4.164l10.444-11.297
			c1.188-1.09,3.08-1.161,4.062-0.25c1.577,1.638,3.96,2.019,6.197,1.174c2.237-0.843,3.495-2.594,3.876-4.975
			c0.031-1.61,1.501-2.807,3.216-2.497l15.582,1.478c1.61,0.027,2.804,1.496,2.491,3.211c-0.242,1.05-0.204,1.996,0.112,2.837
			c1.16,3.077,4.629,4.646,7.71,3.484c1.68-0.633,3.219,0.063,3.854,1.741l6.336,16.793c0.635,1.683-0.063,3.22-1.741,3.854
			c-3.079,1.158-4.648,4.63-3.484,7.71c0.315,0.84,0.911,1.571,1.51,2.303c1.085,1.188,1.161,3.081,0.253,4.063l-16.525,18.061
			C194.553,376.532,194.274,376.637,193.714,376.848"/>
	</g>
	<g opacity="0.42">
		<path fill="#EFC41C" d="M165.201,301.291c-6.157,2.321-9.293,9.264-6.971,15.418c2.323,6.155,9.261,9.293,15.418,6.97
			c6.158-2.325,9.292-9.264,6.97-15.415C178.294,302.104,171.356,298.967,165.201,301.291"/>
		<path fill="#EFC41C" d="M152.527,267.708c-6.157,2.325-9.294,9.261-6.971,15.418c2.324,6.157,9.265,9.297,15.421,6.972
			c6.155-2.326,9.291-9.262,6.969-15.42C165.622,268.522,158.685,265.385,152.527,267.708"/>
		<path fill="#EFC41C" d="M96.56,288.832c-6.158,2.322-9.294,9.261-6.973,15.415c2.324,6.157,9.263,9.296,15.42,6.975
			c6.156-2.326,9.294-9.264,6.97-15.42C109.654,289.644,102.715,286.508,96.56,288.832"/>
		<path fill="#EFC41C" d="M198.465,304.722c-6.155,2.326-9.296,9.26-6.97,15.419c2.321,6.158,9.261,9.289,15.419,6.968
			c6.155-2.322,9.29-9.258,6.967-15.418C211.558,305.533,204.622,302.398,198.465,304.722"/>
		<path fill="#EFC41C" d="M211.137,338.304c-6.156,2.321-9.292,9.264-6.971,15.415c2.323,6.16,9.264,9.297,15.421,6.975
			c6.156-2.326,9.291-9.262,6.968-15.42C224.23,339.115,217.294,335.98,211.137,338.304"/>
		<path fill="#EFC41C" d="M221.169,280.173c-6.157,2.318-9.292,9.261-6.971,15.412c2.324,6.161,9.262,9.296,15.419,6.97
			c6.154-2.322,9.293-9.261,6.97-15.415C234.264,280.983,227.325,277.847,221.169,280.173"/>
		<path fill="#EFC41C" d="M142.495,325.846c-6.155,2.319-9.292,9.26-6.97,15.413c2.323,6.161,9.264,9.296,15.419,6.973
			c6.158-2.326,9.294-9.264,6.97-15.419C155.59,326.654,148.651,323.518,142.495,325.846"/>
		<path fill="#EFC41C" d="M155.169,359.421c-6.154,2.33-9.294,9.268-6.971,15.422c2.324,6.155,9.262,9.293,15.42,6.967
			c6.157-2.318,9.292-9.259,6.969-15.415C168.052,359.676,161.885,356.891,155.169,359.421"/>
		<path fill="#EFC41C" d="M175.233,243.155c-6.158,2.323-9.296,9.264-6.972,15.419c2.321,6.155,9.263,9.294,15.418,6.968
			c6.155-2.324,9.291-9.258,6.969-15.416C188.324,243.97,181.387,240.833,175.233,243.155"/>
	</g>
</g>
</svg>
