<?xml version="1.0" encoding="utf-8"?>
<!-- Generator: Adobe Illustrator 15.0.0, SVG Export Plug-In . SVG Version: 6.00 Build 0)  -->
<!DOCTYPE svg PUBLIC "-//W3C//DTD SVG 1.1//EN" "http://www.w3.org/Graphics/SVG/1.1/DTD/svg11.dtd">
<svg version="1.1" xmlns="http://www.w3.org/2000/svg" xmlns:xlink="http://www.w3.org/1999/xlink" x="0px" y="0px" width="64px"
	 height="64px" viewBox="0 0 64 64" enable-background="new 0 0 64 64" xml:space="preserve">
<g id="Layer_1">
</g>
<g id="Layer_2">
	<path fill="#243E90" d="M4.626,14.86L32.495,0.318L60.363,14.86v34.8L32.495,63.683L4.626,49.66V14.86z"/>
</g>
<g id="Layer_3">
	<path id="state" fill="#FFFFFF" d="M45.646,23.545l-7.297-5.346c-0.27-0.195-0.645-0.136-0.84,0.133
		c-0.002,0.001-0.002,0.002-0.002,0.003c-0.197,0.272-0.137,0.651,0.133,0.851l7.299,5.345c0.104,0.075,0.227,0.116,0.354,0.116
		c0.195,0,0.377-0.093,0.49-0.251C45.979,24.123,45.918,23.743,45.646,23.545z M27.672,20.621c-0.049-0.329-0.354-0.557-0.683-0.508
		c-0.003,0-0.006,0.001-0.009,0.001l-8.904,1.426c-0.332,0.054-0.558,0.367-0.505,0.699c0.048,0.294,0.301,0.511,0.599,0.512
		c0.032,0,0.063-0.002,0.095-0.007l8.905-1.427C27.501,21.264,27.726,20.952,27.672,20.621L27.672,20.621z M51.803,21.629
		L38.25,11.702c-0.27-0.196-0.645-0.136-0.84,0.132c-0.002,0-0.002,0.001-0.002,0.002l-5.912,8.21l-0.813-5.174
		c-0.025-0.159-0.111-0.302-0.241-0.398c-0.13-0.094-0.29-0.133-0.449-0.108l-16.545,2.647c-0.331,0.055-0.555,0.365-0.502,0.696
		l3.23,20.535c0.025,0.159,0.111,0.302,0.241,0.397c0.103,0.076,0.227,0.116,0.354,0.116c0.031,0,0.063-0.003,0.095-0.007
		l3.801-0.609v6.537c-0.001,0.334,0.268,0.606,0.602,0.609h16.749c0.334-0.003,0.604-0.275,0.602-0.609v-1.718
		c0.414-0.24,0.807-0.519,1.17-0.831l1.504,1.518l-0.482,0.488c-0.236,0.239-0.236,0.623,0,0.861l5.467,5.514
		c0.234,0.235,0.615,0.237,0.852,0.003c0-0.001,0.002-0.002,0.002-0.003l1.824-1.838c0.234-0.238,0.234-0.623,0-0.861L43.488,42.3
		c-0.234-0.235-0.617-0.237-0.852-0.003c-0.002,0.002-0.002,0.002-0.004,0.003l-0.48,0.488l-1.504-1.518
		c1.195-1.406,1.848-3.192,1.842-5.037c0-0.2-0.008-0.402-0.023-0.602l9.469-13.154C52.131,22.206,52.072,21.828,51.803,21.629
		L51.803,21.629z M43.066,43.596l4.611,4.651l-0.969,0.977l-4.611-4.651L43.066,43.596z M20.669,23.892v2.497l-1.788,0.286
		c-0.332,0.056-0.556,0.37-0.5,0.701c0.049,0.292,0.299,0.506,0.594,0.51c0.032,0,0.064-0.003,0.097-0.008l1.598-0.256v4.03
		l-0.979,0.158c-0.332,0.055-0.556,0.369-0.501,0.701c0.05,0.291,0.3,0.505,0.595,0.509c0.031,0,0.063-0.002,0.095-0.007
		l0.791-0.127v4.03l-3.394,0.542l-3.041-19.332l15.349-2.457l0.909,5.775l-1.324,1.84h-7.895
		C20.94,23.287,20.669,23.558,20.669,23.892z M37.418,44.077H21.877V24.5h15.541v4.441c-0.838-0.307-1.723-0.463-2.615-0.461
		c-0.17,0-0.338,0.007-0.506,0.017c-0.045-0.011-0.092-0.017-0.139-0.017h-9.02c-0.336,0.011-0.601,0.292-0.59,0.628
		c0.011,0.322,0.269,0.58,0.59,0.59h5.525c-1.456,0.94-2.556,2.342-3.122,3.98h-2.403c-0.336,0.011-0.601,0.292-0.59,0.629
		c0.011,0.321,0.269,0.579,0.59,0.59h2.089c-0.077,0.442-0.115,0.891-0.115,1.339c-0.002,0.9,0.152,1.794,0.457,2.641H25.14
		c-0.338,0.011-0.602,0.292-0.591,0.628c0.01,0.321,0.269,0.58,0.591,0.59h2.99c1.355,2.41,3.906,3.901,6.672,3.898
		c0.893,0.003,1.777-0.153,2.615-0.46V44.077L37.418,44.077L37.418,44.077z M39.385,40.862L39.385,40.862
		c-0.479,0.484-1.031,0.891-1.637,1.203c-0.91,0.472-1.922,0.716-2.947,0.712c-2.446,0.002-4.682-1.379-5.776-3.566l0,0
		c-0.468-0.92-0.71-1.938-0.707-2.971c0-0.603,0.083-1.203,0.245-1.782c0.783-2.801,3.329-4.742,6.238-4.754
		c1.025-0.003,2.037,0.242,2.947,0.714c1.953,1.006,3.268,2.929,3.498,5.113l0,0c0.025,0.236,0.037,0.474,0.037,0.71
		c0.004,1.731-0.678,3.392-1.898,4.618V40.862z M42.162,33.986c-0.563-1.889-1.828-3.49-3.535-4.476v-3.176l3.283,2.407
		c0.268,0.194,0.645,0.136,0.84-0.133c0-0.001,0.002-0.003,0.002-0.003c0.195-0.272,0.137-0.651-0.135-0.851l-3.99-2.932v-0.933
		c0-0.334-0.268-0.606-0.602-0.609H36.52l-1.195-0.876c-0.27-0.195-0.645-0.137-0.84,0.133c-0.002,0-0.002,0.001-0.002,0.002
		c-0.162,0.224-0.154,0.526,0.02,0.741h-3.838l0.956-1.328l0,0l6.412-8.908l12.574,9.21L42.162,33.986z M34.803,31.081
		c-2.85-0.024-5.178,2.266-5.203,5.114s2.266,5.177,5.115,5.201c2.848,0.024,5.176-2.265,5.201-5.113c0-0.015,0-0.03,0-0.044
		C39.924,33.403,37.637,31.097,34.803,31.081z M34.803,40.178c-2.176,0.019-3.956-1.729-3.974-3.904
		c-0.02-2.176,1.729-3.955,3.904-3.975c2.176-0.019,3.955,1.729,3.975,3.905c0,0.012,0,0.023,0,0.035
		C38.713,38.403,36.967,40.164,34.803,40.178L34.803,40.178z M36.518,36.133c-0.234-0.235-0.615-0.237-0.852-0.003
		c-0.002,0.001-0.002,0.002-0.002,0.003l-1.611,1.624c-0.236,0.239-0.236,0.623,0,0.861c0.234,0.236,0.615,0.237,0.852,0.004
		c0-0.001,0.002-0.002,0.002-0.004l1.611-1.624c0.236-0.239,0.236-0.624,0-0.863V36.133z M35.873,33.534
		c-0.234-0.236-0.615-0.238-0.852-0.004c0,0.001-0.002,0.003-0.002,0.004l-1.771,1.786c-0.236,0.239-0.236,0.623,0,0.861
		c0.232,0.236,0.615,0.237,0.85,0.004c0.002-0.001,0.002-0.002,0.004-0.004l1.771-1.786c0.238-0.239,0.238-0.625,0-0.864V33.534z"/>
</g>
</svg>
