<?xml version="1.0" encoding="utf-8"?>
<!-- Generator: Adobe Illustrator 15.0.0, SVG Export Plug-In . SVG Version: 6.00 Build 0)  -->
<!DOCTYPE svg PUBLIC "-//W3C//DTD SVG 1.1//EN" "http://www.w3.org/Graphics/SVG/1.1/DTD/svg11.dtd">
<svg version="1.1" xmlns="http://www.w3.org/2000/svg" xmlns:xlink="http://www.w3.org/1999/xlink" x="0px" y="0px" width="100px"
	 height="100px" viewBox="0 0 100 100" style="enable-background:new 0 0 100 100;" xml:space="preserve">
<style type="text/css">
<![CDATA[
	.st0{fill:#4F5565;}
	.st1{fill:#F0582F;}
	.st2{fill:#5BBA3C;}
	.st3{fill:#5FA7D3;}
	.st4{fill:#FBD303;}
	.st5{fill:#FCFCFD;}
	.st6{fill:#FD8469;}
	.st7{fill:#FFFFFF;}
	.st8{fill:#6EB1E1;}
	.st9{fill:#71D456;}
	.st10{fill:#DEDEDF;}
]]>
</style>
<g id="Layer_1">
	<g>
		<circle class="st6" cx="50" cy="50" r="49.9"/>
	</g>
	<g>
	</g>
	<g>
	</g>
</g>
<g id="Layer_4">
	<path class="st7" d="M53.1,17.7H24.8c-0.8,0-1.4,0.6-1.4,1.4v47c0,0.8,0.6,1.4,1.4,1.4h28.3c0.8,0,1.4-0.6,1.4-1.4V19.2
		C54.5,18.4,53.8,17.7,53.1,17.7z"/>
	<rect x="24.3" y="22" class="st8" width="29.2" height="39.3"/>
	<g>
		<path class="st10" d="M41,19.7h-4c-0.2,0-0.4,0.1-0.4,0.4c0,0.2,0.1,0.4,0.4,0.4h4c0.2,0,0.4-0.1,0.4-0.4
			C41.3,19.9,41.1,19.7,41,19.7z"/>
		<circle class="st10" cx="38.9" cy="64.4" r="2.1"/>
	</g>
	<path class="st9" d="M74.5,30h-20v21.2h20c1.2,0,2.2-1,2.2-2.2V32.2C76.6,30.9,75.7,30,74.5,30z"/>
	<rect x="54.5" y="33.7" class="st0" width="22.2" height="6.9"/>
	<g>
		<rect x="54.5" y="45.5" class="st2" width="11.1" height="1.7"/>
		<rect x="69.1" y="45.5" class="st2" width="3" height="1.7"/>
	</g>
	<rect x="27.1" y="42.5" class="st5" width="23.7" height="15.8"/>
	<rect x="29" y="52.9" class="st9" width="4.7" height="3.3"/>
	<rect x="36.6" y="48.4" class="st4" width="4.7" height="7.7"/>
	<rect x="44.1" y="44.5" class="st1" width="4.7" height="11.7"/>
	<g>
		<rect x="27.1" y="25.1" class="st3" width="23.7" height="2.2"/>
		<rect x="27.1" y="30.3" class="st3" width="20.5" height="2.2"/>
		<rect x="27.1" y="35.4" class="st3" width="12.3" height="2.2"/>
	</g>
</g>
<g id="Layer_3">
</g>
<g id="Layer_2">
	<g>
		<path class="st7" d="M19.9,74c-0.3-0.5-1.1-0.9-2-0.9c-1.2,0-1.7,0.5-1.7,1.1c0,0.7,0.9,0.9,1.9,1.1c1.8,0.2,3.4,0.7,3.4,2.7
			c0,1.9-1.7,2.7-3.5,2.7c-1.7,0-3-0.5-3.7-2.1l1.3-0.7c0.4,0.9,1.3,1.3,2.4,1.3c1,0,1.9-0.3,1.9-1.3c0-0.8-0.8-1.1-1.9-1.2
			c-1.7-0.2-3.3-0.7-3.3-2.5c0-1.7,1.7-2.4,3.3-2.4c1.3,0,2.7,0.4,3.3,1.7L19.9,74z"/>
		<path class="st7" d="M24.3,74.4v3.1c0,0.9,0.5,1.6,1.4,1.6c0.9,0,1.5-0.8,1.5-1.7v-3h1.5v5.9h-1.3l-0.1-0.8
			c-0.6,0.6-1.2,0.9-2,0.9c-1.4,0-2.4-1.1-2.4-2.9v-3.1H24.3z"/>
		<path class="st7" d="M31.5,71.9v3.3c0.3-0.6,1.3-0.9,1.9-0.9c1.7,0,3,1.1,3,3.1c0,1.9-1.3,3.1-3,3.1c-0.7,0-1.5-0.2-1.9-0.9
			l-0.1,0.8H30v-8.4H31.5z M31.6,77.4c0,1.1,0.8,1.7,1.7,1.7c0.9,0,1.7-0.7,1.7-1.7c0-1.1-0.7-1.7-1.7-1.7
			C32.4,75.6,31.6,76.3,31.6,77.4z"/>
		<path class="st7" d="M41.4,76c-0.4-0.4-0.9-0.5-1.5-0.5c-0.7,0-1.1,0.2-1.1,0.6c0,0.4,0.3,0.6,1.1,0.6c1.1,0.1,2.5,0.3,2.5,1.9
			c0,1-0.9,1.9-2.5,1.9c-0.9,0-1.9-0.2-2.7-1.1l0.7-1c0.4,0.5,1.4,0.8,2,0.8c0.6,0,1.1-0.3,1.1-0.7c0-0.4-0.3-0.6-1.2-0.6
			c-1.1-0.1-2.4-0.5-2.4-1.8c0-1.4,1.4-1.8,2.5-1.8c0.9,0,1.6,0.2,2.3,0.8L41.4,76z"/>
		<path class="st7" d="M48.5,79.6c-0.7,0.7-1.4,0.9-2.3,0.9c-1.7,0-3.1-1-3.1-3.1s1.4-3.1,3.1-3.1c0.8,0,1.5,0.2,2.1,0.9l-0.9,1
			c-0.3-0.3-0.8-0.5-1.2-0.5c-1,0-1.7,0.7-1.7,1.8c0,1.1,0.8,1.7,1.7,1.7c0.5,0,0.9-0.1,1.3-0.5L48.5,79.6z"/>
		<path class="st7" d="M50.5,74.4l0.1,0.7c0.5-0.7,1.1-0.8,1.7-0.8c0.6,0,1.2,0.2,1.5,0.6l-0.7,1.3c-0.3-0.3-0.6-0.4-1.1-0.4
			c-0.8,0-1.5,0.4-1.5,1.5v3.1h-1.5v-5.9H50.5z"/>
		<path class="st7" d="M55.9,72.8c0,1.1-1.7,1.1-1.7,0C54.2,71.6,55.9,71.6,55.9,72.8z M54.3,74.4v5.9h1.5v-5.9H54.3z"/>
		<path class="st7" d="M57.1,82.8v-8.4h1.4l0.1,0.8c0.5-0.7,1.2-0.9,1.9-0.9c1.8,0,3,1.4,3,3.1c0,1.7-1.1,3.1-3,3.1
			c-0.6,0-1.5-0.2-2-0.8v3.2H57.1z M62.1,77.4c0-0.9-0.6-1.7-1.7-1.7s-1.7,0.8-1.7,1.7c0,0.9,0.7,1.7,1.7,1.7S62.1,78.3,62.1,77.4z"
			/>
		<path class="st7" d="M66.7,72.8v1.7h1.6v1.3h-1.6v2.6c0,0.6,0.3,0.8,0.8,0.8c0.2,0,0.5-0.1,0.7-0.2l0.4,1.2
			c-0.4,0.2-0.8,0.2-1.2,0.3c-1.3,0-2.1-0.7-2.1-2.2v-2.6h-1.1v-1.3h1.1v-1.5L66.7,72.8z"/>
		<path class="st7" d="M71,72.8c0,1.1-1.7,1.1-1.7,0C69.3,71.6,71,71.6,71,72.8z M69.4,74.4v5.9h1.5v-5.9H69.4z"/>
		<path class="st7" d="M78.2,77.4c0,1.7-1.2,3.1-3.1,3.1s-3.1-1.4-3.1-3.1c0-1.7,1.2-3.1,3.1-3.1C77,74.3,78.2,75.7,78.2,77.4z
			 M73.5,77.4c0,0.9,0.5,1.7,1.6,1.7s1.6-0.8,1.6-1.7c0-0.9-0.6-1.8-1.6-1.8C74.1,75.6,73.5,76.5,73.5,77.4z"/>
		<path class="st7" d="M83.6,80.3v-3.1c0-0.9-0.5-1.6-1.4-1.6c-0.9,0-1.5,0.8-1.5,1.7v3h-1.5v-5.9h1.3l0.1,0.8
			c0.6-0.6,1.2-0.9,1.9-0.9c1.4,0,2.5,1,2.5,2.9v3.1H83.6z"/>
	</g>
</g>
</svg>
