<?xml version="1.0" encoding="utf-8"?>
<!-- Generator: Adobe Illustrator 15.0.0, SVG Export Plug-In . SVG Version: 6.00 Build 0)  -->
<!DOCTYPE svg PUBLIC "-//W3C//DTD SVG 1.1//EN" "http://www.w3.org/Graphics/SVG/1.1/DTD/svg11.dtd">
<svg version="1.1" id="Layer_1" xmlns="http://www.w3.org/2000/svg" xmlns:xlink="http://www.w3.org/1999/xlink" x="0px" y="0px"
	 width="100px" height="100px" viewBox="0 0 100 100" style="enable-background:new 0 0 100 100;" xml:space="preserve">
<style type="text/css">
<![CDATA[
	.st0{fill:#E6E9EE;}
	.st1{fill:#4C4B4A;}
	.st2{fill:#FFFFFF;}
	.st3{fill:#3F51B5;}
]]>
</style>
<g id="Layer_1_1_">
	<g>
		<circle class="st3" cx="50" cy="50" r="49.9"/>
	</g>
</g>
<g id="Layer_4">
	<path class="st2" d="M30.7,20.2v44.7c0,1.3,1.1,2.4,2.4,2.4h26.1v-7.7c0-1.4,1.1-2.4,2.4-2.4h7.7v-37c0-1.3-1.1-2.4-2.4-2.4H33.1
		C31.7,17.8,30.7,18.9,30.7,20.2z"/>
	<path class="st0" d="M59.2,67.3l10.2-10.2h-7.7c-1.4,0-2.4,1.1-2.4,2.4L59.2,67.3L59.2,67.3L59.2,67.3z"/>
	<g>
		<path class="st1" d="M50.9,49l-1.6-3.8H42L40.3,49h-4.1l7.5-17.4h3.8L55,49H50.9z M45.6,36.7l-2.2,5.1h4.4L45.6,36.7z"/>
		<path class="st1" d="M58.2,40.4v-3.3H55v-2.2h3.2v-3.3h2.5v3.3h3.2v2.2h-3.2v3.3H58.2z"/>
	</g>
</g>
<g id="Layer_3">
</g>
<g>
	<path class="st2" d="M41,73.2h-2.7v-1.4c2.4,0,4.5,0,6.9,0v1.4h-2.7v7H41V73.2z"/>
	<path class="st2" d="M45.8,77.8c0.1,0.7,0.7,1.3,1.8,1.3c0.5,0,1.2-0.2,1.6-0.6l0.9,0.9c-0.6,0.6-1.6,1-2.5,1c-2,0-3.3-1.3-3.3-3.2
		c0-1.8,1.2-3.1,3.1-3.1c2,0,3.2,1.2,3,3.7H45.8L45.8,77.8z M49,76.6c-0.1-0.8-0.7-1.2-1.5-1.2s-1.4,0.4-1.7,1.2H49z"/>
	<path class="st2" d="M55.4,75.9c-0.4-0.4-0.9-0.5-1.5-0.5c-0.7,0-1.1,0.2-1.1,0.6s0.3,0.6,1.1,0.6c1.1,0.1,2.5,0.3,2.5,1.9
		c0,1-0.9,1.9-2.5,1.9c-0.9,0-1.9-0.2-2.7-1.1l0.7-1c0.4,0.5,1.4,0.8,2,0.8c0.6,0,1.1-0.3,1.1-0.7c0-0.4-0.3-0.6-1.2-0.6
		c-1.1-0.1-2.4-0.5-2.4-1.8c0-1.4,1.4-1.8,2.5-1.8c0.9,0,1.6,0.2,2.3,0.8L55.4,75.9z"/>
	<path class="st2" d="M59.5,72.6v1.7h1.6v1.3h-1.6v2.6c0,0.6,0.3,0.8,0.8,0.8c0.2,0,0.5-0.1,0.7-0.2l0.4,1.2
		c-0.4,0.2-0.8,0.2-1.2,0.3c-1.3,0-2.1-0.7-2.1-2.2v-2.6H57v-1.3h1v-1.5L59.5,72.6z"/>
	<path class="st2" d="M27.5,82.8c-0.3-0.5-1.1-0.9-2-0.9c-1.2,0-1.7,0.5-1.7,1.1c0,0.7,0.9,0.9,1.9,1.1c1.8,0.2,3.4,0.7,3.4,2.7
		c0,1.9-1.7,2.7-3.5,2.7c-1.7,0-3-0.5-3.7-2.1l1.3-0.7c0.4,0.9,1.3,1.3,2.4,1.3c1,0,1.9-0.3,1.9-1.3c0-0.8-0.8-1.1-1.9-1.2
		c-1.7-0.2-3.3-0.7-3.3-2.5c0-1.7,1.7-2.4,3.3-2.4c1.3,0,2.7,0.4,3.3,1.7L27.5,82.8z"/>
	<path class="st2" d="M31.9,83.3v3.1c0,0.9,0.5,1.6,1.4,1.6c0.9,0,1.5-0.8,1.5-1.7v-3h1.5v5.9H35l-0.1-0.8c-0.6,0.6-1.2,0.9-2,0.9
		c-1.4,0-2.4-1.1-2.4-2.9v-3.1H31.9z"/>
	<path class="st2" d="M41.5,89.2V86c0-0.8-0.4-1.5-1.2-1.5c-0.8,0-1.3,0.7-1.3,1.5v3.2h-1.5v-5.9h1.4L39,84c0.3-0.6,1-0.8,1.6-0.8
		c0.7,0,1.4,0.3,1.8,1.1c0.5-0.8,1.2-1.1,2-1.1c1.7,0,2.5,1,2.5,2.8v3.2h-1.5V86c0-0.8-0.3-1.4-1.1-1.4c-0.8,0-1.3,0.7-1.3,1.4v3.2
		H41.5z"/>
	<path class="st2" d="M52.3,89.2V86c0-0.8-0.4-1.5-1.2-1.5c-0.8,0-1.3,0.7-1.3,1.5v3.2h-1.5v-5.9h1.4l0.1,0.7c0.3-0.6,1-0.8,1.6-0.8
		c0.7,0,1.4,0.3,1.8,1.1c0.5-0.8,1.2-1.1,2-1.1c1.7,0,2.5,1,2.5,2.8v3.2h-1.5V86c0-0.8-0.3-1.4-1.1-1.4c-0.8,0-1.3,0.7-1.3,1.5v3.2
		L52.3,89.2L52.3,89.2z"/>
	<path class="st2" d="M63.8,83.3h1.4v5.9h-1.4l-0.1-0.9c-0.3,0.7-1.3,1-1.9,1c-1.8,0-3-1.1-3-3.1s1.4-3.1,3.1-3.1
		c0.8,0,1.5,0.4,1.9,1V83.3z M60.2,86.2c0,1.1,0.8,1.8,1.8,1.8c2.3,0,2.3-3.6,0-3.6C61,84.5,60.2,85.1,60.2,86.2z"/>
	<path class="st2" d="M67.8,83.3l0.1,0.7c0.5-0.7,1.1-0.8,1.7-0.8c0.6,0,1.2,0.2,1.5,0.6L70.4,85c-0.3-0.3-0.6-0.4-1.1-0.4
		c-0.8,0-1.5,0.4-1.5,1.5v3.1h-1.5v-5.9H67.8z"/>
	<path class="st2" d="M78,83.3l-3.6,8.4h-1.6l1.1-2.6l-2.4-5.8h1.7l0.9,2.6l0.6,1.7l0.6-1.6l1.1-2.6H78V83.3z"/>
</g>
</svg>
